<?xml version="1.0" encoding="utf-8"?>
<!-- Generator: Adobe Illustrator 22.1.0, SVG Export Plug-In . SVG Version: 6.00 Build 0)  -->
<svg version="1.1" id="Layer_1" xmlns="http://www.w3.org/2000/svg" xmlns:xlink="http://www.w3.org/1999/xlink" x="0px" y="0px"
	 viewBox="0 0 810 640" style="enable-background:new 0 0 810 640;" xml:space="preserve">
<style type="text/css">
	.st0{fill-rule:evenodd;clip-rule:evenodd;fill:#231F20;}
</style>
<g>
	<path class="st0" d="M455.4,400.8h-26.2c-4.7,0-8.6,3.9-8.6,8.6V432c0,4.7,3.9,8.6,8.6,8.6h26.2c4.7,0,8.6-3.9,8.6-8.6v-22.5
		C464,404.7,460.1,400.8,455.4,400.8L455.4,400.8z M359.2,371.2H356v-0.6c0.9,0,1.4-0.2,1-0.9c-0.6-1.2,2-1.1,2.4-0.9
		C360.1,369.3,359.7,370.6,359.2,371.2L359.2,371.2z M354.8,372h3.9c-0.4,0.7-1.6,2.9-2.4,2.9C356,374.4,355,373,354.8,372
		L354.8,372z M429.4,409.4h25.9V432h-25.9V409.4L429.4,409.4z M376.2,409.4h36v0c0-4.7-3.9-8.6-8.6-8.6H376c-4.7,0-8.6,3.9-8.6,8.6
		V432c0,4.7,3.9,8.6,8.6,8.6h27.7c4.7,0,8.6-3.9,8.6-8.6v-14.9H383v0c0,3.7,3,6.6,6.6,6.6h14.4v8.2h-27.8V409.4L376.2,409.4z
		 M263.7,409.4h34.4v0c0-4.7-3.9-8.6-8.6-8.6h-26.6c-4.7,0-8.6,3.9-8.6,8.6v7c0,4.7,3.9,8.6,8.6,8.6h26.7v7h-35.3l0,0
		c0,4.7,3.9,8.6,8.6,8.6h27.5c4.7,0,8.6-3.9,8.6-8.6v-7c0-4.7-3.9-8.6-8.6-8.6h-26.7V409.4L263.7,409.4z M214.2,409.4h32.5v0
		c0-4.7-3.9-8.6-8.6-8.6h-26.2c-4.7,0-8.6,3.9-8.6,8.6V432c0,4.7,3.9,8.6,8.6,8.6h26.2c4.7,0,8.6-3.9,8.6-8.6l0,0h-32.5V409.4
		L214.2,409.4z M367.5,367.3c-0.2,0.1-0.4,0.2-0.6,0.2c-1.2,1.7-0.5,1.5-2.7,3c0,2.9,0.1,3.2,0.8,5.8c0,0.1,0,0.1,0,0.2
		c0,0.1-0.1,0.1-0.1,0.1c-0.5,0.1-1.3,0.3-1.7,0.4c0,0.1,0.2,1.7,0,3c-0.4,1.9-5,6.1-6,6.4c-1.5,0.3-3.2-1-5.9-2.2
		c-0.7-0.3-3.2-1.9-4.5-2.4c-1.1-0.4-2.1,2.2-0.8,2.9c0.6,0.3,1.6,0.8,1.9,1.6c0.9,2.4-0.1,11.6-2,13.4c-0.9,0-1.7-0.8-2.3-0.6
		c-1.2,0.7-0.4,4.3,0,4.9c7.3,7.5,6.5,13.1,9.6,17.3c1.4,0,0.5,1.5,1.6,3.3c0.3,0.9-0.1,2.4-0.2,3c0,0.8,0,1.5,0,2.3
		c-0.1,0.2-0.2,0.5-0.2,0.7c0,0.7,0,1.3,0,2c-0.2,1-0.5,2.3-0.7,3.2c-0.4,1.9,1.2,3.4,0.2,5.2c0,1.1,0,0.9-0.7,1.8
		c0,1.7-0.4,5.4,0,6.7c0.3,0.9,3.5,4.7,4.4,5.1c2,0.9,4.9,0.7,3.9,3.8c-5.8,1.8-9.4-1-12.5-1l-0.1,0.5c-2,0-3.5-0.5-4-0.6
		c0-0.5,0.6-4.6,0.9-5.3c0.2-0.3,0.4-0.7,0.7-1c0.2-0.7-0.2-5.8-0.3-7.2c-1.2-0.9-1.5-3.7-1.5-5.2c-0.4-1.2-0.4-2.6-0.4-4.1
		c0-0.7-0.5-1.8-0.2-2.7c0.2-0.6,0.9-0.9,1-1.4c0-0.6,0-1.1,0-1.7c0.3-1.8,0.2-2.6-0.9-3.7c-2.7,0-3.1,0.2-4.5-2.1
		c-0.5-0.7-4.2-6.7-4.6-6.8c-3.1-1.4-2.5-0.8-3.9-3.3c-0.1,0-0.9,0.3-1.6,1.4c-1.1,1.7-3.1,7.1-3.7,9c-0.3,1.1,0,2.2-0.5,3.1
		c-0.3,0.6-1.5,0.8-1.7,1.3c-1.1,2-0.3,1.8-2.4,3.2c-0.4,0.5-0.4,1.2-0.7,1.8c-0.2,0.2-0.3,0.4-0.5,0.7c-0.4,0.8,0.4,2.1,0.2,2.6
		c-0.4,1.2-0.8,2.5-1.3,3.6c-1,2.3-0.8,5.3-1.8,6.7c-0.5,0.7-1.7,0-2.6,0.6c-0.1,0.5-1.5,3.7-1.8,4.6c0,1.7,0,3.4,0,5.2
		c0.3,0.9,1,1.7,0.8,2.8c-0.2,1.2-4.3,1.2-6.5,0.8c-1.5-0.2-1.9-1.3-1.9-2.6c0-1.5,3-11.2,2.9-11.8c-2.3-2.6,0.6-5.2,1.5-7.6
		c0.4-1.2,0.2-2.8,0.6-3.9c0.8-1.5,1.6-2.9,2.4-4.4c1.5-1.4,0.8-1.5,1.6-2.7c0.7-1.1,1.5-1.8,1-3.5c-1-3.3,1.1-8,1.3-11.5
		c-0.4-0.4-1.6-0.3-1.8-1.3c-0.3-2.2,0.8-6,1.5-6.3c0.3-0.2,0.7,0,0.9-0.2c0-1.6-1.6-10.6-0.4-11.1c0.8-0.3,2.5-0.4,2.8-0.6
		c0-0.4-0.3-1.2-0.6-1.2c-0.5-0.1-1.6-0.3-2.5-0.5c-2.7-0.6-0.2-11.2-0.2-11.3c0.7-1,4.2,0.3,4.6-1.3c1.1-1.5-0.9-7.1,3-14.1
		c1.3-2.3,3.9-4.7,6.8-3.7c1,0.3,0.4,1.8,2.1,0.2c0-0.9-0.4-1.6-0.6-2.4c-2.9-8.6,6.9-13.3,13.8-8.4c0.8,0.3,1.2,0.5,1.8,0.9
		c0.4,2,2.3,5.4,0.4,7.7c-0.8,0.2-1.8,0.6-2.4,1c0,0.8,0.1,1.5,0.2,2c0.1,0.4,0.4,0.6-0.3,0.9c-0.1,0,0,0.3,0,0.4
		c1.6,0.3,3.3-0.3,4.4-0.7h1.3v-1.6h0.3h0.3v-1.3h0.6v2.2h1.6v0.7H378v1.2h1V359h0.9v3.7h2v2.1h6.3v-0.6h1v0.3h3v1.7h-3v0.3h-1v-0.6
		h-6.3v0.6c-0.9,0-1.8,0-2.8,0V366H378v1.3H367.5L367.5,367.3z"/>
</g>
</svg>
