<?xml version="1.0" encoding="utf-8"?>
<!-- Generator: Adobe Illustrator 22.1.0, SVG Export Plug-In . SVG Version: 6.00 Build 0)  -->
<svg version="1.1" id="Layer_1" xmlns="http://www.w3.org/2000/svg" xmlns:xlink="http://www.w3.org/1999/xlink" x="0px" y="0px"
	 viewBox="0 0 810 640" style="enable-background:new 0 0 810 640;" xml:space="preserve">
<style type="text/css">
	.st0{fill:#2B3772;}
	.st1{fill:#5BC3B6;}
	.st2{fill:#FCB137;}
	.st3{fill:#5EB1E3;}
	.st4{fill:#FFFFFF;}
	.st5{fill:#B7BED4;}
	.st6{fill:#48545F;}
	.st7{fill:#475778;}
	.st8{fill:#EBECF2;}
	.st9{fill:#99A5D2;}
	.st10{fill:#5D6B7C;}
	.st11{fill:#667887;}
	.st12{fill:#374764;}
	.st13{fill:#546BB2;}
	.st14{fill:#A3AAB4;}
	.st15{fill:#34417B;}
	.st16{fill:url(#SVGID_1_);}
	.st17{fill:url(#XMLID_10_);}
	.st18{clip-path:url(#SVGID_3_);fill:url(#SVGID_4_);}
	.st19{fill:url(#SVGID_5_);}
	.st20{fill:none;stroke:url(#SVGID_6_);stroke-width:2.3182;stroke-miterlimit:10;}
	.st21{fill:url(#SVGID_7_);}
	.st22{fill:url(#XMLID_11_);}
	.st23{opacity:0.17;clip-path:url(#SVGID_9_);fill:url(#SVGID_10_);enable-background:new    ;}
	.st24{opacity:0.17;clip-path:url(#SVGID_12_);fill:url(#SVGID_13_);enable-background:new    ;}
	.st25{fill:url(#XMLID_12_);}
	.st26{opacity:0.59;clip-path:url(#SVGID_15_);fill:url(#SVGID_16_);enable-background:new    ;}
	.st27{fill:url(#SVGID_17_);}
	.st28{fill:url(#XMLID_13_);}
	.st29{opacity:0.29;clip-path:url(#SVGID_19_);fill:url(#SVGID_20_);enable-background:new    ;}
	.st30{opacity:0.14;clip-path:url(#SVGID_22_);fill:url(#SVGID_23_);enable-background:new    ;}
	.st31{opacity:0.21;clip-path:url(#SVGID_25_);fill:url(#SVGID_26_);enable-background:new    ;}
	.st32{opacity:0.21;clip-path:url(#SVGID_28_);fill:url(#SVGID_29_);enable-background:new    ;}
	.st33{fill:url(#SVGID_30_);}
	.st34{opacity:0.13;}
	.st35{fill:url(#SVGID_31_);}
	.st36{fill:url(#SVGID_32_);}
	.st37{fill:url(#SVGID_33_);}
	.st38{fill:url(#SVGID_34_);}
	.st39{fill:url(#XMLID_14_);}
	.st40{opacity:0.37;clip-path:url(#SVGID_36_);fill:url(#SVGID_37_);enable-background:new    ;}
	.st41{fill:url(#SVGID_38_);}
	.st42{fill:url(#SVGID_39_);}
	.st43{fill:url(#SVGID_40_);}
	.st44{fill:url(#SVGID_41_);}
	.st45{fill:url(#SVGID_42_);}
	.st46{fill:url(#SVGID_43_);}
	.st47{fill:url(#SVGID_44_);}
	.st48{fill:url(#SVGID_45_);}
	.st49{opacity:0.16;fill:#FFFFFF;enable-background:new    ;}
	.st50{fill:url(#XMLID_15_);}
	.st51{opacity:8.000000e-02;clip-path:url(#SVGID_47_);fill:url(#SVGID_48_);enable-background:new    ;}
	.st52{clip-path:url(#SVGID_50_);fill:url(#SVGID_51_);}
	.st53{fill:url(#SVGID_52_);}
	.st54{fill:url(#XMLID_16_);}
	.st55{opacity:0.32;clip-path:url(#SVGID_54_);fill:url(#SVGID_55_);enable-background:new    ;}
	.st56{fill:url(#SVGID_56_);}
	.st57{fill:url(#SVGID_57_);}
	.st58{fill:url(#SVGID_58_);}
	.st59{fill:url(#XMLID_17_);}
	.st60{opacity:0.42;clip-path:url(#SVGID_60_);fill:url(#SVGID_61_);enable-background:new    ;}
	.st61{clip-path:url(#SVGID_63_);fill:none;stroke:url(#SVGID_64_);stroke-width:0.5086;stroke-miterlimit:10;}
	.st62{fill:url(#SVGID_65_);}
	.st63{fill:url(#SVGID_66_);}
	.st64{opacity:0.68;fill:url(#SVGID_67_);enable-background:new    ;}
	.st65{fill:url(#SVGID_68_);}
	.st66{fill:#38223D;}
	.st67{fill:#01A9C3;}
	.st68{fill:#4D3952;}
	.st69{fill:#413B53;}
	.st70{fill:#F43C4F;}
	.st71{fill:#656385;}
	.st72{fill:#D33750;}
	.st73{fill:#9188BA;}
	.st74{fill:#ADA6D1;}
	.st75{fill:#E5C9B5;}
	.st76{fill:#5E7C77;}
	.st77{fill:#749892;}
	.st78{fill:#9AB4B1;}
	.st79{fill:#889F9D;}
</style>
<path class="st66" d="M146.5,350.6c0.7-5.9,4.8-10.9,13.2-14.7c7-3.2,14.3-5.8,21.6-8.4c16.2-5.8,32.4-11.4,48.7-17
	c0.8,0.6,1.7,1.3,2.5,1.9c-10.8,5.2-23.6,6.1-33.3,14c-3.5,3.3-4.1,7.4-4.1,12.2c-0.1,13.7,5,26.9,4.4,40.6
	c-1.1,8.8,1.3,17.4,2.2,26c1.7,15.4,1.8,31,5.2,46.2c-0.5,12,2.2,23.7,3.7,35.5c1.8,13.3,2.9,14.6,14.6,8.1
	c-4.4-1.6-7.4-4.3-7.8-9.1c-0.9-11.9-3.5-23.7-4.3-35.5c-1.7-27.1-5.7-54-7.3-81.1c-0.8-14.1-5.5-28.1-2-42.4c2.1-0.9,4.1-2,6.2-2.8
	c93.3-33.2,186.7-66.4,280-99.7c3.2-1.1,6.2-1.7,9.5-1.2c0.2,1.2,1.5,2.3,0.3,3.6c-5-0.5-9.6,1.3-14.2,3
	c-40.7,14.5-81.4,28.9-122.1,43.4c-50.4,17.9-100.9,36-151.3,53.8c-5.3,1.9-6.6,4.4-5.9,10.1c2,15.8,3.1,31.6,4.6,47.4
	c3.2,33.2,6.5,66.5,9.9,99.7c0.4,3.8,1.2,7.6,6.5,4.3c13.1-3.1,26.4-5.6,39.2-9.4c83.3-25.1,166.5-50.7,249.8-75.8
	c4.2-1.3,6.6-3.4,8.6-6.6l0.4,0.7l0.3-0.3l-0.7-0.4c1.1-1.3-1.9-6.8,3.5-3.5c1.5,0.9,1.1,5.3,4.3,3.7c3.2-1.7,1.7-5,1.1-7.9
	c-4.9-26-12.8-51.3-16.6-77.4c-1.5-10.1-5.8-19.6-6-30c-2.8-10.4-2.9-21.5-7.5-31.4c-1.4-7.2-2.9-14.3-4.3-21.5
	c0-0.6,0.1-1.2,0.4-1.8c5.7,0.1,4.1,5.2,4.7,7.9c5.5,24.3,11,48.7,15.8,73.2c5.9,29.8,14.2,59.2,18,89.4c0.5,4.4,2.7,3.7,5,2.6
	c4.3-2,3.3-5.8,2.5-9.3c-12-54.7-24.1-109.5-35.9-164.3c-0.8-3.8-1.6-7-6.2-7.2c-3.9-4.5-7.5,0.8-11.2,0.3c-0.8-0.7-1.5-1.3-2.3-2
	c5.2-2.5,10.4-4.7,17.5-3.8c-4.5-9.3-6.5-18.4-9.2-27.2c-2.1-6.7,0.1-13.2-1-19.8c-0.4-2.3,1.2-3.5,3.3-4.1
	c15.2-4.1,29.2-12.3,45.7-11.6c15.3,0.7,25.9,8.5,31.1,23.2c-1,0-2,0.1-3.1,0.1c-1.9-3.2-3.5-6.6-5.6-9.7c-1.2-1.7-2.7-4.2-5.1-3.4
	c-2.7,0.8,0.6,4.1-1.5,5.6c-9.8-10.2-20.7-16.2-34.9-8.7c-6.3,2.3-12.5,5-18.9,6.7c-6.2,1.6-6.8,4.5-5.5,10.4
	c11.6,52.9,22.8,105.8,34.2,158.7c2,9.5,4.7,10.3,13,4.4c2.9-2.1,3.9-4.8,9.9-4.7c15.4,0.2,31.9-12.8,31.1-32.6
	c1.9-5.3-1.2-10.6,0-15.8c10.2,13.6,4.3,36.6-12.5,46.7c-5.8,3.5-12.4,5.5-18.7,8.1c-4.8,2-9.7,3.7-14.5,5.7c-4,1.6-4.5,4.7-2.3,7.9
	c2.7,3.9,4.4,1.2,6.5-1.2c1.4-1.6,3.5-3.3,5.5-3.6c14-2.3,24.8-14.5,40-13.1c1.4,0.1,3-2.3,4.5-3.5c0.7,0.8,1.3,1.7,2,2.5
	c-7.7,11-20.2,13.3-31.7,17.4c-18.1,6.4-17.4,6.2-14.5,24.9c1.5,9.8,5.3,19.1,5.6,29.1c0.1,4.9-0.9,7.6-6.2,8.9
	c-12.5,3.2-24.9,7.1-37.3,10.8c0-1.2,0-2.4,0-3.7c6.4-1.9,12.9-3.3,19.1-5.8c3.4-1.4,9.2-1.8,7.6-8.3c2.1,0.2,4.2,0.4,6.3,0.5
	c0.3,0.8,0.4,2.1,1.7,0.8c-0.4-0.4-0.9-0.8-1.3-1.1c-0.9-6.1-5-4.8-8.8-3.6c-9.9,2.9-19.7,6.4-29.7,8.9c-15.9,4-30.9,11.5-47.5,12.7
	c-0.1-0.7-0.1-1.4-0.2-2.1c0.8-0.2,1.7-0.3,2.5-0.5c-0.2-0.3-0.5-0.6-0.7-0.9c-0.6,0.5-1.1,1-1.7,1.6c-2.1,0-4.3-0.7-6.5,1.3
	c2.4,0.3,4.5,0.5,6.6,0.7c-2,3.7-5.9,3.4-9.1,4.4c-40.3,12.3-80.5,24.4-120.8,36.6c-38.1,11.5-76.2,23-114.3,34.6
	c-3.1,1-9.9,0.1-5.7,7.3c2,4.7,5.3,2.5,8,1.2c9.5-4.7,21.5-2.7,29.4-11.4c1.2-0.2,2.3-0.5,3.5-0.7c1.9,0.8,3.9,2.1,4.3-1.4
	c2.8-3,7.1-1.5,10.3-3.4c2.5,1,5,2,5.3,5.2c-27.3,8.3-54.7,16.6-82,25c-0.1-0.7-0.2-1.4-0.3-2.1c2.2-1.1,4.4-2.2,6.6-3.3
	c10.2-2,10.2-2.1,9.3-6.4c-2-9.8-8.1-4-12.3-2.9c-8,2.1-15.7,5.4-24.2,5.3c-1.5-0.7-3.9-2.8-4.6-0.9c-1,2.7,1.8,2.9,4,2.9l0.2,0.1
	c1.2,4.1,5.7,3.1,8.2,5.3c-0.1,0.7-0.2,1.4-0.4,2.1c-14.9-3.6-29.3-18.7-30.6-34.5c-0.7-8.5-4.8-17.2-0.8-25.9
	c3.8,8.1,2.6,16.9,3.7,25.4c1.8,13.2,11.4,21.3,24.5,19.6c4.7-0.6,12.5,4.9,13.3-5.6c0.1-1.8,1.3-0.4,2.1-0.3
	c14.7,2,16.1,0.6,14.7-13.7c-5.1-51.3-10.3-102.5-15.3-153.8c-0.5-5.5-1.8-6.7-7.1-4.6C170.8,335,156.9,339.6,146.5,350.6z
	 M476.5,420.2c-1.4,0.2-2.9,0.4-4.3,0.6c0.2,0.3,0.3,0.7,0.5,0.7c1.6,0.5,2.9,0,3.8-1.5c1.5-0.2,2.9-0.5,4.4-0.7
	c-0.2-0.3-0.3-0.7-0.5-0.8C478.6,418.2,477.3,418.6,476.5,420.2z M496,414.4c-1.5,0.2-2.9,0.4-4.4,0.6c0.2,0.3,0.3,0.7,0.5,0.8
	c1.6,0.5,2.9-0.1,3.8-1.5c1.4-0.2,2.9-0.5,4.3-0.7c-0.2-0.3-0.3-0.7-0.5-0.7C498.1,412.3,496.8,412.8,496,414.4z M521.3,406.5
	c2.8,0,5.6,0.5,7.8-2c0.8-0.2,1.7-0.3,2.5-0.5c-0.2-0.3-0.4-0.6-0.7-1c-0.6,0.5-1.1,1-1.7,1.6C526.4,404.7,523.4,403.8,521.3,406.5
	c-1.4,0.3-2.8,0.6-4.2,0.8c0.2,0.3,0.3,0.7,0.5,0.7C519.1,408.4,520.5,408.1,521.3,406.5z M555.7,399.5c-3-5.8,1.3-14.6-8.6-18.8
	C549.8,388,548,395.6,555.7,399.5z M505.9,411.9c0.3-0.2,0.5-0.3,0.8-0.5c-0.2-0.2-0.5-0.6-0.6-0.5c-0.4,0.2-0.6,0.5-0.9,0.8
	C505.3,411.7,505.6,411.8,505.9,411.9z M512.6,409.5c-0.2-0.2-0.5-0.6-0.6-0.5c-0.5,0.1-1,0.3-1.4,0.5c0.2,0.2,0.4,0.5,0.6,0.5
	C511.6,409.9,512.1,409.7,512.6,409.5z M487.3,417.2c-0.3-0.2-0.5-0.6-0.7-0.6c-0.5,0.1-1,0.3-1.5,0.5c0.2,0.2,0.4,0.6,0.6,0.6
	C486.3,417.7,486.7,417.4,487.3,417.2z M535.6,401.5l0.7,0.4l0.1-0.6L535.6,401.5z"/>
<path class="st67" d="M144.5,352.6c10.4-11,24.3-15.7,38-20.9c5.3-2,6.5-0.8,7.1,4.6c4.9,51.3,10.1,102.6,15.3,153.8
	c1.4,14.3,0,15.7-14.7,13.7c-0.7-0.1-1.9-1.5-2.1,0.3c-0.7,10.5-8.6,5-13.3,5.6c-13.1,1.8-22.7-6.4-24.5-19.6
	c-1.1-8.5,0-17.3-3.7-25.4c-0.8-11-1.5-22-2.3-33.1c0.9-15.2,0.5-30.2-3.6-45C142.1,375.5,136.2,363.3,144.5,352.6z M177.8,420.2
	c-0.4,4.3-0.5,8.6,4.1,10.9c2.5,1.2,5.1,1.3,7.3-0.6c3.7-3,5.2-7,2-11c-4.6-5.8-9.3-4-13.6,0.8c0.3-5.2,1.2-10.6-5.1-13.1
	c-3.5-1.4-6.2,0.2-8.4,3c-2.3,2.9-2.2,6-0.1,8.9C168.2,424.9,173.1,422,177.8,420.2z M181.9,375.4c0-8.3-5.9-14.8-13.6-14.9
	c-13.2-0.2-21,5.7-21,15.8c0,7.6,11,17,19.6,16.6C175,392.6,181.9,384.4,181.9,375.4z M172.9,451.1c5.3-1,8.4-3.9,8.2-8.6
	c-0.2-5-3.7-9.7-8.6-8c-5.9,2.1-5.9-0.5-7.3-4.4c-1.6-4.4-5.2-6.6-10.1-4.2c-4.1,2-5.7,5.7-4,9.7c3.4,7.7,16.6,3.1,18.1,13.9
	C169.2,450.2,171.9,450.7,172.9,451.1z M190.8,459.8c-1.1-1.6,0.5-6.6-4.5-5.9c-3.8,0.5-9.3,1.3-8,7.2c0.6,2.5-0.9,8.3,4.9,7.3
	C187.3,467.8,191.8,466.7,190.8,459.8z"/>
<path class="st68" d="M517.4,422.1c0,1.2,0,2.4,0,3.7c-45,13.7-89.9,27.5-134.9,41.1c-31,9.3-62.2,18.3-93.3,27.4
	c-4.2-2.5-8.2-4.1-9.5,2.9c-1.4,0.4-2.7,0.7-4.1,1.1c-0.3-3.2-2.8-4.2-5.3-5.2c2.6-4,6.9-4.1,10.9-5c16,3.8,29.6-5.4,44.3-8.6
	c2.7-0.6,1.1-3.1,0.5-4.9c29.3-9.2,58.4-19.1,88.2-26.5c0.6,7.5,5.2,2.8,7.6,2.1C453.7,441,485.5,431.5,517.4,422.1z"/>
<path class="st68" d="M232.5,312.5c-0.8-0.6-1.7-1.3-2.5-1.9c32.9-12,65.8-24.1,98.7-35.9c51.3-18.4,102.7-36.7,154.1-55
	c2.4-0.9,5-1.4,7.5-2.1c0.8,0.7,1.5,1.3,2.3,2c-13.3,5-26.6,10.1-40.1,14.9C379.2,260.5,305.8,286.5,232.5,312.5z"/>
<path class="st68" d="M574.4,174.4c1,0,2-0.1,3.1-0.1c11.1,43.4,22.5,86.7,33.1,130.2c2.7,11.1-0.2,21.9-9.1,30.3
	c-0.7-0.8-1.3-1.7-2-2.5c-0.2-3.7,0.8-7.1,3.1-9.9c6.9-8.7,3.9-17.7,1.6-26.9C594.2,255.1,584.4,214.7,574.4,174.4z"/>
<path class="st66" d="M142.7,384.9c4.2,14.8,4.5,29.8,3.6,45C142.2,415.1,141.6,400,142.7,384.9z"/>
<path class="st68" d="M179.9,523.3c0.1-0.7,0.2-1.4,0.4-2.1c4.3,0,8.6,0,12.9,0c0.1,0.7,0.2,1.4,0.3,2.1
	C189,524.8,184.5,524.8,179.9,523.3z"/>
<path class="st66" d="M279.6,497.2c1.3-7,5.3-5.4,9.5-2.9C285.9,495.2,282.8,496.2,279.6,497.2z"/>
<path class="st69" d="M499.6,228.7c1.4,7.2,2.9,14.3,4.3,21.5c0.4,11,0.7,22,7.5,31.4c0.2,10.4,4.5,19.9,6,30
	c3.8,26.2,11.7,51.5,16.6,77.4c0.5,2.9,2,6.2-1.1,7.9c-3.2,1.7-2.7-2.7-4.3-3.7c-5.3-3.3-2.3,2.3-3.5,3.5c-2.1,3.3-4.4,5.4-8.6,6.6
	c-83.3,25.1-166.5,50.6-249.8,75.8c-12.9,3.9-26.1,6.3-39.2,9.4c-3.5-30.2-7.5-60.4-10.3-90.6c-1.9-20.6-5.8-41-5.9-61.8
	c4.6,0.5,5.9-2.1,5.6-6.1c2.7-1,5.5-1.9,8.2-2.9c66.6-23.7,133.2-47.2,199.7-71C449.8,247.2,475.2,239.4,499.6,228.7z M223.4,337.2
	c1.7,17,3.6,34,5.2,51.1c2.7,28,5.3,56,7.9,84c0.4,4.3,2,6.7,6.9,5.1c6.5-2.1,13-3.9,19.6-5.9c81-24.6,161.9-49.2,242.9-73.8
	c5.4-1.7,7.7-3.5,6.3-10.3c-9.1-45.3-17.6-90.8-26.3-136.2c-2.2-11.6-2.8-12-13.9-8c-48,17-95.9,34.2-143.9,51.3
	c-32.4,11.5-64.9,22.9-97.3,34.4C226.8,330.2,222.5,331.6,223.4,337.2z"/>
<path class="st70" d="M591,301.1c0.8,19.9-15.7,32.8-31.1,32.7c-6-0.1-7,2.7-9.9,4.7c-8.3,5.9-11,5.1-13-4.4
	c-11.4-52.9-22.6-105.8-34.2-158.7c-1.3-5.9-0.6-8.8,5.5-10.4c6.4-1.7,12.6-4.4,18.9-6.7c24.1-0.2,33.8,6.9,35.7,26.3
	c-2.2-1.3-4.2-3.1-6.6-3.7c-3.9-1.1-6.9,1-8.7,4.3c-2.2,3.9-1.1,7.5,2.3,10.2c3.1,2.4,6.6,2.9,9.6,0.2c1.9-1.7,3.1-4,4.7-6
	C574.4,226.4,582.8,263.7,591,301.1z M566.3,240.6l0.2-0.2c-0.2-3.6-1.4-6.3-5.8-5.6c-7.2-8.8-14.6-10.4-22.9-4.8
	c-7.8,5.3-9.8,13.5-5.3,22.4c0.4,1.1,0.6,2.4,2.3,2.1l-0.2,0c3.2,10.5,11.5,13.4,21.8,7.8c6.3,0.1,7.5-5.3,9.9-9.4
	C569,248.8,569.7,244.7,566.3,240.6z M544.8,283.6c-6,3.8-4,8.2-0.4,11.9c3.6,3.7,8.2,3.6,12.1,0.2c4-3.4,4.7-7.9,1.5-12
	c-3-3.8-6.8-7.1-11.4-1.5C546,282.8,545.4,283.2,544.8,283.6z M550.3,209c-0.3-4.2-2.5-7.7-7.1-8.5c-5.3-0.9-8.9,2.3-9.5,7.2
	c-0.7,5.2,2.7,8.6,7.8,9.1C546.2,217.2,549,214,550.3,209z M522.8,193.9c-4.9-0.5-8.8,1.2-8.6,7.1c0.2,4.8,3.6,7.9,8.2,7.8
	c5.1,0,8.5-3.4,8.4-8.6C530.7,195.7,528.1,193.1,522.8,193.9z M535.9,189.4c4.6-0.7,7.9-3.2,8.1-8c0.1-4.2-1.7-7.5-6.9-7.2
	c-5.7,0.4-6,6.3-8.7,9.5C526.9,185.3,532,188.8,535.9,189.4z"/>
<path class="st71" d="M211.3,336.2c0.1,20.8,4,41.2,5.9,61.8c2.8,30.3,6.8,60.4,10.3,90.6c-5.3,3.2-6.1-0.5-6.5-4.3
	c-3.3-33.2-6.6-66.5-9.9-99.7c-1.5-15.8-2.6-31.7-4.6-47.4c-0.7-5.7,0.5-8.2,5.9-10.1c50.5-17.8,100.9-35.9,151.3-53.8
	c40.7-14.5,81.4-28.9,122.1-43.4c4.6-1.6,9.1-3.5,14.2-3c0,0,0,0,0,0c-0.3,0.6-0.4,1.2-0.4,1.8c-24.4,10.7-49.8,18.5-74.8,27.4
	c-66.5,23.8-133.1,47.4-199.7,71c-2.7,1-5.5,1.9-8.2,2.9C213.1,330.3,211.6,332.7,211.3,336.2z"/>
<path class="st72" d="M574.4,174.4c9.9,40.3,19.8,80.7,29.8,121c2.3,9.2,5.3,18.3-1.6,26.9c-2.3,2.8-3.3,6.2-3.1,9.9
	c-1.5,1.2-3.1,3.6-4.5,3.5c-15.3-1.4-26,10.7-40,13.1c-2,0.3-4.2,2-5.5,3.6c-2.1,2.4-3.8,5.1-6.5,1.2c-2.2-3.2-1.6-6.2,2.3-7.9
	c4.8-2,9.7-3.7,14.5-5.7c6.3-2.6,12.9-4.6,18.7-8.1c16.8-10.1,22.7-33.1,12.5-46.7c-0.4-4.4-2.7-8.6-1.8-13.2c0-1.6,0.3-3.3,0-4.8
	c-7.2-31.4-14.4-62.7-21.9-94c-0.6-2.5,0-7.1-5.1-6.6l0.1,0.2c2.1-1.5-1.2-4.7,1.5-5.6c2.4-0.8,4,1.8,5.1,3.4
	C570.9,167.8,572.6,171.2,574.4,174.4z"/>
<path class="st73" d="M281.2,488.1c-4,0.9-8.4,1-10.9,5c-3.2,1.9-7.5,0.4-10.3,3.4c-1.7-0.3-3.3-0.4-4.3,1.4
	c-1.2,0.2-2.3,0.5-3.5,0.7c-13.3,0.2-25.2,5.6-37.3,10.3c-4.2-7.2,2.6-6.3,5.7-7.3c38.1-11.6,76.2-23.1,114.3-34.6
	c40.3-12.2,80.6-24.3,120.8-36.6c3.2-1,7.2-0.7,9.1-4.4l0,0c16.6-1.2,31.6-8.7,47.5-12.7c10-2.5,19.8-5.9,29.7-8.9
	c3.8-1.1,7.9-2.5,8.8,3.6l-0.4,0.4c-2.1-0.2-4.2-0.4-6.3-0.5c-2.9,0.5-5.8,0.8-8.5,1.7c-30.1,9.1-60.3,18.1-90.3,27.7
	c-10.4,3.3-21.5,4.8-31.1,10.7c-29.8,7.4-58.9,17.3-88.2,26.5C310.8,478.2,295.9,482.9,281.2,488.1z"/>
<path class="st73" d="M503.7,219.2c4.6,0.3,5.4,3.4,6.2,7.2c11.9,54.8,23.9,109.5,35.9,164.3c0.8,3.5,1.8,7.3-2.5,9.3
	c-2.3,1.1-4.5,1.8-5-2.6c-3.7-30.3-12.1-59.6-18-89.4c-4.8-24.5-10.3-48.8-15.8-73.2c-0.6-2.8,1-7.8-4.7-7.9c0,0,0,0,0,0
	c1.3-1.3,0-2.4-0.3-3.6C501.1,222,502.4,220.6,503.7,219.2z"/>
<path class="st74" d="M503.7,219.2c-1.3,1.4-2.7,2.8-4,4.1c-3.3-0.6-6.3,0.1-9.5,1.2c-93.3,33.3-186.7,66.5-280,99.7
	c-2.1,0.8-4.1,1.8-6.2,2.8c-1.6-0.2-3.2-0.3-4.8-0.5c9.7-7.9,22.4-8.8,33.3-14c73.3-26,146.7-52,220-78.1
	c13.4-4.8,26.7-9.9,40.1-14.9C496.3,220.1,499.9,214.8,503.7,219.2z"/>
<path class="st73" d="M199.2,326.5c1.6,0.2,3.2,0.3,4.8,0.5c-3.5,14.3,1.2,28.3,2,42.4c1.6,27.1,5.5,54,7.3,81.1
	c0.8,11.8,3.3,23.6,4.3,35.5c0.4,4.7,3.4,7.5,7.8,9.1c-11.7,6.5-12.9,5.2-14.6-8.1c-1.6-11.8-4.3-23.5-3.7-35.5
	c1.8-1.3,2.2-3.1,2-5.1c-1.6-15.3-2.7-30.7-5.1-45.9c-1.1-7.1,1.9-15.2-4.4-21.2c0.6-13.8-4.5-26.9-4.4-40.6
	C195.2,333.9,195.7,329.8,199.2,326.5z"/>
<path class="st71" d="M414.2,448.1c9.6-5.9,20.7-7.3,31.1-10.7c30-9.6,60.2-18.6,90.3-27.7c2.8-0.8,5.7-1.1,8.5-1.7
	c1.6,6.5-4.2,6.9-7.6,8.3c-6.1,2.5-12.7,3.9-19.1,5.8c-31.9,9.4-63.7,18.9-95.6,28.1C419.4,450.9,414.8,455.6,414.2,448.1z"/>
<path class="st75" d="M589.2,272.1c-0.9,4.6,1.4,8.8,1.8,13.2c-1.2,5.3,2,10.6,0,15.8c-8.2-37.4-16.7-74.7-26.7-111.6
	c-0.5-1.6-0.9-3.3-1.4-5c-1.9-19.4-11.5-26.6-35.7-26.3c14.2-7.5,25.1-1.5,34.9,8.7c0,0-0.1-0.2-0.1-0.2
	c7.8,33.5,15.6,67,23.3,100.6C586,269.6,586.3,271.7,589.2,272.1z"/>
<path class="st69" d="M172.6,513.8c8.5,0.1,16.2-3.2,24.2-5.3c4.2-1.1,10.3-6.9,12.3,2.9c0.9,4.3,0.9,4.4-9.3,6.4
	c-9.3-0.1-18.5-0.3-27.6-2c0,0-0.2-0.1-0.2-0.1C172.2,515.1,172.4,514.5,172.6,513.8z"/>
<path class="st74" d="M199.6,379.3c6.3,6,3.3,14.1,4.4,21.2c2.3,15.2,3.5,30.6,5.1,45.9c0.2,2-0.2,3.9-2,5.1
	c-3.4-15.2-3.5-30.8-5.2-46.2C200.9,396.7,198.5,388.1,199.6,379.3z"/>
<path class="st68" d="M214.8,508.9c12.1-4.7,24-10,37.3-10.3c-7.9,8.7-19.9,6.8-29.4,11.4C220.2,511.4,216.9,513.6,214.8,508.9z"/>
<path class="st76" d="M172.1,515.9c9.1,1.7,18.4,1.9,27.6,2c-2.2,1.1-4.4,2.2-6.6,3.3c-4.3,0-8.6,0-12.9,0
	C177.9,519,173.3,520,172.1,515.9z"/>
<path class="st74" d="M555.7,399.5c-7.6-4-5.8-11.5-8.6-18.8C557,385,552.7,393.7,555.7,399.5z"/>
<path class="st68" d="M511.4,281.6c-6.8-9.4-7.1-20.4-7.5-31.4C508.5,260.2,508.6,271.2,511.4,281.6z"/>
<path class="st76" d="M172.6,513.8c-0.2,0.7-0.4,1.3-0.6,2c-2.2,0.1-5-0.2-4-2.9C168.7,511,171.1,513.1,172.6,513.8z"/>
<path class="st71" d="M529,404.5c-2.1,2.4-5,2-7.8,2l0.1,0.1c2.1-2.8,5.1-1.9,7.8-1.9L529,404.5z"/>
<path class="st71" d="M464.8,426.1c-2.1-0.2-4.1-0.4-6.6-0.7c2.2-2,4.4-1.3,6.5-1.3l-0.1-0.1C464.7,424.7,464.8,425.4,464.8,426.1
	C464.8,426.1,464.8,426.1,464.8,426.1z"/>
<path class="st71" d="M521.3,406.5c-0.8,1.6-2.1,2-3.8,1.5c-0.2-0.1-0.3-0.5-0.5-0.7C518.5,407,519.9,406.8,521.3,406.5
	C521.4,406.6,521.3,406.5,521.3,406.5z"/>
<path class="st71" d="M495.9,414.3c-0.9,1.5-2.2,2-3.8,1.5c-0.2-0.1-0.3-0.5-0.5-0.8c1.5-0.2,2.9-0.4,4.4-0.6
	C496,414.4,495.9,414.3,495.9,414.3z"/>
<path class="st71" d="M496,414.4c0.8-1.6,2.1-2.1,3.8-1.6c0.2,0.1,0.3,0.5,0.5,0.7c-1.4,0.2-2.9,0.5-4.3,0.7
	C495.9,414.3,496,414.4,496,414.4z"/>
<path class="st68" d="M255.7,498c1-1.8,2.6-1.7,4.3-1.4C259.5,500.1,257.5,498.8,255.7,498z"/>
<path class="st71" d="M476.4,420.1c-0.9,1.5-2.1,2-3.8,1.5c-0.2-0.1-0.3-0.5-0.5-0.7c1.4-0.2,2.9-0.4,4.3-0.6L476.4,420.1z"/>
<path class="st71" d="M476.5,420.2c0.8-1.6,2.1-2,3.8-1.5c0.2,0.1,0.3,0.5,0.5,0.8c-1.5,0.2-2.9,0.5-4.4,0.7
	C476.4,420.1,476.5,420.2,476.5,420.2z"/>
<path class="st71" d="M529.1,404.6c0.6-0.5,1.1-1,1.7-1.6c0.2,0.3,0.5,0.6,0.7,1c-0.8,0.2-1.7,0.3-2.5,0.5
	C529,404.5,529.1,404.6,529.1,404.6z"/>
<path class="st71" d="M505.9,411.9c-0.3-0.1-0.5-0.2-0.8-0.2c0.3-0.3,0.6-0.6,0.9-0.8c0.1-0.1,0.4,0.4,0.6,0.5
	C506.4,411.6,506.1,411.7,505.9,411.9z"/>
<path class="st71" d="M464.8,424.1c0.6-0.5,1.1-1,1.7-1.6c0.2,0.3,0.5,0.6,0.7,0.9c-0.8,0.2-1.7,0.3-2.5,0.5
	C464.7,424,464.8,424.1,464.8,424.1z"/>
<path class="st71" d="M512.6,409.5c-0.5,0.2-1,0.4-1.5,0.5c-0.2,0-0.4-0.3-0.6-0.5c0.5-0.2,0.9-0.4,1.4-0.5
	C512.1,408.9,512.4,409.3,512.6,409.5z"/>
<path class="st71" d="M487.3,417.2c-0.6,0.2-1.1,0.4-1.6,0.5c-0.2,0-0.4-0.4-0.6-0.6c0.5-0.2,1-0.4,1.5-0.5
	C486.8,416.7,487.1,417,487.3,417.2z"/>
<polygon class="st69" points="525.2,396.8 525.9,397.1 525.6,397.5 "/>
<polygon class="st73" points="535.6,401.5 536.3,401.4 536.2,401.9 "/>
<path class="st73" d="M550.8,408.2c0.4,0.4,0.9,0.8,1.3,1.1c-1.3,1.4-1.4,0.1-1.7-0.8C550.4,408.6,550.8,408.2,550.8,408.2z"/>
<path class="st69" d="M183.9,373.4c0,9-7,17.3-14.9,17.6c-8.5,0.3-19.6-9-19.6-16.6c0-10.2,7.8-16,21-15.8
	C178,358.6,183.9,365.1,183.9,373.4z M162.5,383c5.7-1.2,9.1-4.5,9.5-10.4c0.4-5.8-3.2-8.6-8-8.6c-5,0-9.3,2.9-9.5,8.6
	C154.4,377.9,156.7,381.9,162.5,383z"/>
<path class="st69" d="M174.9,449.1c-1-0.4-3.6-0.9-3.7-1.7c-1.4-10.9-14.7-6.2-18.1-13.9c-1.7-4-0.1-7.7,4-9.7
	c4.8-2.3,8.5-0.2,10.1,4.2c1.4,3.9,1.5,6.5,7.3,4.4c4.9-1.8,8.4,2.9,8.6,8C183.3,445.1,180.2,448.1,174.9,449.1z"/>
<path class="st69" d="M179.8,418.2c-4.8,1.8-9.7,4.7-13.8-1c-2.1-2.9-2.2-6,0.1-8.9c2.1-2.8,4.9-4.3,8.4-3c6.3,2.5,5.4,7.9,5.1,13.1
	L179.8,418.2z"/>
<path class="st66" d="M179.7,418.3c4.3-4.8,9-6.6,13.6-0.8c3.2,4,1.7,7.9-2,11c-2.2,1.8-4.8,1.8-7.3,0.6c-4.6-2.3-4.5-6.6-4.1-10.9
	C179.8,418.2,179.7,418.3,179.7,418.3z"/>
<path class="st69" d="M192.8,457.8c1,6.9-3.5,8-7.5,8.7c-5.8,0.9-4.3-4.9-4.9-7.3c-1.4-5.8,4.1-6.6,8-7.2
	C193.3,451.2,191.7,456.2,192.8,457.8z"/>
<path class="st71" d="M281.2,488.1c14.7-5.2,29.6-9.9,44.8-13.5c0.5,1.7,2.1,4.3-0.5,4.9C310.8,482.7,297.2,492,281.2,488.1z"/>
<path class="st66" d="M223.4,337.2c-0.9-5.6,3.3-7,7.3-8.4c32.4-11.5,64.9-22.9,97.3-34.4c48-17.1,95.9-34.2,143.9-51.3
	c11.1-4,11.7-3.5,13.9,8c8.7,45.4,17.2,90.9,26.3,136.2c1.4,6.8-0.9,8.6-6.3,10.3c-81,24.5-161.9,49.2-242.9,73.8
	c-6.5,2-13.1,3.8-19.6,5.9c-4.9,1.6-6.5-0.8-6.9-5.1c-2.6-28-5.2-56-7.9-84C227,371.2,225.2,354.2,223.4,337.2z M324.6,448.3
	c0,0,0.4-0.2,0.4-0.2c6.2-1.8,12.3-3.5,18.5-5.3c9.2-2.9,18.4-5.8,27.6-8.7c42.8-12.9,85.6-26,128.5-38.7c8-2.4,8.5-7.2,7.2-14.2
	c-8.4-42.9-16.6-85.9-24.9-128.8c-0.9-4.9-3.5-7.6-8.7-5.4c-4,1.7-8.9,1.6-11.9,5.4c0.1,1.5,0.9,3.9,0.3,4.4c-2.9,2.3-2-1.5-3.1-2.3
	c-2.4-1.6-2.1,2.4-4,2.1c-8.7-2.9-15.2,3.1-22.6,5.6c-3.9,3.8-9.9,3.1-14.1,6.2c-10.7,0.2-19.4,6.7-29.4,9.2
	c-6.9,0.9-13,4.1-19.4,6.5c-18.9,6.9-37.8,13.8-56.6,20.7c-6.5,1.9-12,6.8-19.3,6.3c-17.4,5.8-34.8,11.3-51.6,18.7
	c-14,3.8-14,3.8-10.8,17.1c0.2,0.9-0.1,1.8-0.1,2.8c0,39.3,7,78.1,9.8,117.2c0.4,5.2,3.2,6.7,7.9,5.3c6.5-2,13-4,19.5-6.1
	c18.2-5.5,36.4-11.1,54.5-16.6C323.1,449,323.9,448.7,324.6,448.3z"/>
<path class="st66" d="M211.3,336.2c0.3-3.5,1.7-5.8,5.6-6.1C217.2,334.1,216,336.7,211.3,336.2z"/>
<path class="st68" d="M532.6,252.4c-4.5-8.9-2.5-17.1,5.3-22.4c8.2-5.6,15.7-4,22.9,4.8c-0.8,4.8,1.4,6.3,5.8,5.6
	c0,0-0.2,0.2-0.2,0.2c0,4.1,0.1,8.2,0.1,12.3c-2.4,4.1-3.6,9.5-9.9,9.4c-3.8,0-7.6,0-12.1,0c2.6-3.5,7.5-0.4,8.7-5.7
	c-6.6,2-12.8,1.6-18.4-2.1c0,0,0.2,0,0.2,0C534.1,253.8,533.3,253.1,532.6,252.4z M538.8,236.7c-1.5-0.1-1.9,0.9-2,2.1
	c-2.9,9.5,2.3,16.9,10.8,15.2c3-0.6,5.9-2.3,8.8-3.5c0.4,1.5,0.8,2.9,1.1,4.4c0.5-0.3,1.4-0.5,1.4-0.8c0.5-2.1-1.6-2.4-2.6-3.5
	c2.6-5.5,1.3-10.5-1.8-15.4C548.5,227.9,543.4,230,538.8,236.7L538.8,236.7z M563,243.9c-0.2,1.2-0.5,1.8-0.4,2.3
	c0.2,0.9,0.7,0.9,1.2,0.1c0.1-0.2,0.2-0.6,0.1-0.9C563.8,245,563.5,244.6,563,243.9z"/>
<path class="st68" d="M563,184.5c0.5,1.7,0.9,3.3,1.4,5c-1.5,2-2.8,4.3-4.7,5.9c-3.1,2.7-6.6,2.2-9.6-0.2c-3.4-2.7-4.5-6.3-2.3-10.2
	c1.8-3.3,4.8-5.4,8.7-4.3C558.7,181.5,560.8,183.2,563,184.5z"/>
<path class="st68" d="M550.3,209c-1.3,5.1-4.1,8.2-8.9,7.8c-5.1-0.4-8.5-3.8-7.8-9.1c0.7-4.9,4.2-8.1,9.5-7.2
	C547.8,201.3,550,204.8,550.3,209z"/>
<path class="st68" d="M522.8,193.9c5.3-0.8,7.8,1.9,7.9,6.3c0.1,5.3-3.3,8.6-8.4,8.6c-4.6,0-8-3.1-8.2-7.8
	C514,195.1,517.9,193.4,522.8,193.9z"/>
<path class="st68" d="M535.9,189.4c-3.9-0.6-9-4.1-7.5-5.7c2.7-3.1,3-9.1,8.7-9.5c5.2-0.4,7.1,2.9,6.9,7.2
	C543.8,186.2,540.5,188.8,535.9,189.4z"/>
<path class="st66" d="M546.7,282.3c4.6-5.6,8.4-2.4,11.4,1.5c3.2,4.1,2.5,8.6-1.5,12c-3.9,3.3-8.5,3.5-12.1-0.2
	c-3.6-3.7-5.6-8.1,0.4-11.9c-1.2,3.6-2.1,7.2,3.4,7.6c2.7,0.2,6.5,0.9,6.4-3.4C554.5,282.9,551.2,281.4,546.7,282.3z"/>
<path class="st66" d="M534.7,254.5c5.6,3.7,11.8,4.1,18.4,2.1c-1.2,5.3-6.1,2.2-8.7,5.7c4.5,0,8.3,0,12.1,0
	C546.2,267.9,538,264.9,534.7,254.5z"/>
<path class="st73" d="M546.7,282.3c4.6-1,7.8,0.6,7.9,5.5c0.1,4.3-3.7,3.6-6.4,3.4c-5.5-0.4-4.6-4-3.4-7.6
	C545.4,283.2,546,282.8,546.7,282.3z"/>
<path class="st66" d="M566.5,240.4c-4.5,0.8-6.6-0.8-5.8-5.6C565.1,234.1,566.3,236.8,566.5,240.4z"/>
<path class="st66" d="M566.4,252.9c0-4.1-0.1-8.2-0.1-12.3C569.7,244.7,569,248.8,566.4,252.9z"/>
<path class="st66" d="M532.6,252.4c0.8,0.7,1.5,1.4,2.3,2.1C533.2,254.9,533,253.5,532.6,252.4z"/>
<path class="st66" d="M589.2,272.1c-2.9-0.4-3.2-2.5-3.7-4.8c-7.7-33.5-15.5-67.1-23.3-100.6c5.1-0.5,4.5,4.1,5.1,6.6
	c7.5,31.3,14.7,62.7,21.9,94C589.5,268.8,589.2,270.5,589.2,272.1z"/>
<path class="st77" d="M162.5,383c-5.8-1.1-8.1-5.2-8-10.4c0.2-5.7,4.5-8.6,9.5-8.6c4.8,0,8.5,2.9,8,8.6
	C171.6,378.6,168.2,381.8,162.5,383z"/>
<path class="st76" d="M417.8,268.2c4.3-3.1,10.2-2.4,14.1-6.2c8.2,0.9,15.3-3,22.6-5.6c1.9,0.3,1.6-3.7,4-2.1
	c1.1,0.8,0.2,4.6,3.1,2.3c0.7-0.5-0.2-2.9-0.3-4.4c6.9-0.4,13.7-2.5,20.6,0.1c8.3,42.9,16.5,85.9,24.9,128.8
	c1.4,7,0.9,11.8-7.2,14.2C456.8,408,414,421.1,371.2,434C386.7,378.7,402.2,323.5,417.8,268.2z"/>
<path class="st77" d="M293,311c7.3,0.5,12.8-4.4,19.3-6.3c-3.3,19.2-10.3,37.3-15.4,55.9c-9.6,35.2-19.4,70.3-29.2,105.4
	c-6.5,2-13,4.1-19.5,6.1c-4.8,1.5-7.6,0-7.9-5.3c-2.9-39.1-9.8-77.9-9.8-117.2c0-0.9,0.3-1.9,0.1-2.8c-3.2-13.3-3.2-13.3,10.8-17.1
	c1.7,2.1,3.7,2,6.1,1.2c13.7-4.8,27.4-9.6,41.2-14.3C291.4,315.7,293.2,314.1,293,311z M254.9,457.3c0.6-2.2-0.2-3.9-2-3.6
	c-5.2,0.8-6.8,5.2-8.1,9.5c-0.5,1.7,0.4,3.5,2.2,3.4C252.8,466,252.8,460.5,254.9,457.3z"/>
<path class="st78" d="M267.8,466c9.7-35.1,19.6-70.3,29.2-105.4c5.1-18.6,12.1-36.8,15.4-55.9c18.9-6.9,37.8-13.8,56.6-20.7
	c1.6,5.8-2.6,10.1-4,15.2c-10.8,5-16.9,14.7-22.9,24.2c-20.2,32.1-23.2,66.6-13.9,102.7c-0.3,7.4-3.9,14.4-3.2,22
	c0,0-0.4,0.2-0.4,0.2c-0.8,0.4-1.5,0.8-2.3,1.1C304.1,454.9,286,460.5,267.8,466z"/>
<path class="st79" d="M417.8,268.2c-15.5,55.2-31.1,110.5-46.6,165.7c-9.2,2.9-18.4,5.8-27.6,8.7c10.5-37.3,21.3-74.5,31.5-111.9
	c4.8-17.7,12-34.8,13.3-53.4C398.4,275,407.1,268.4,417.8,268.2z"/>
<path class="st76" d="M388.4,277.4c-1.3,18.6-8.5,35.7-13.3,53.4c-10.2,37.4-20.9,74.6-31.5,111.9c-6.2,1.8-12.3,3.6-18.5,5.3
	c-0.8-7.6,2.9-14.6,3.2-22c3.4-3.8,3.5-8.9,4.8-13.5c10.7-37.8,21.3-75.6,32-113.5c1.3-5.1,5.6-9.4,4-15.2
	C375.4,281.5,381.5,278.3,388.4,277.4z"/>
<path class="st78" d="M293,311c0.2,3.1-1.7,4.7-4.3,5.6c-13.7,4.8-27.5,9.5-41.2,14.3c-2.4,0.8-4.4,0.9-6.1-1.2
	C258.2,322.3,275.6,316.8,293,311z"/>
<path class="st77" d="M482,252.3c-6.9-2.5-13.7-0.5-20.6-0.1c3.1-3.8,7.9-3.7,11.9-5.4C478.5,244.7,481,247.3,482,252.3z"/>
<path class="st77" d="M454.5,256.4c-7.4,2.6-14.4,6.5-22.6,5.6C439.3,259.6,445.8,253.6,454.5,256.4z"/>
<path class="st76" d="M322.3,449.4c0.8-0.4,1.5-0.8,2.3-1.1C323.9,448.7,323.1,449,322.3,449.4z"/>
<path class="st77" d="M556.4,250.4c-2.9,1.2-5.8,2.9-8.8,3.5c-8.6,1.7-13.7-5.7-10.8-15.2c1.2-0.2,1.9-0.8,2-2.1l0,0
	c5.4,0.3,10.4-2.8,15.8-1.6C557.7,239.9,559,244.9,556.4,250.4L556.4,250.4z"/>
<path class="st74" d="M554.6,235.1c-5.5-1.2-10.5,1.9-15.8,1.6C543.4,230,548.5,227.9,554.6,235.1z"/>
<path class="st66" d="M556.4,250.4c1,1.1,3.1,1.4,2.6,3.5c-0.1,0.4-0.9,0.6-1.4,0.8C557.2,253.4,556.8,251.9,556.4,250.4
	C556.4,250.4,556.4,250.4,556.4,250.4z"/>
<path class="st66" d="M563,243.9c0.5,0.7,0.8,1.1,0.9,1.5c0.1,0.3,0,0.6-0.1,0.9c-0.4,0.8-1,0.8-1.2-0.1
	C562.5,245.7,562.8,245.1,563,243.9z"/>
<path class="st74" d="M538.8,236.7c0,1.3-0.8,1.9-2,2.1C536.9,237.6,537.3,236.6,538.8,236.7z"/>
<path class="st78" d="M254.9,457.3c-2.2,3.3-2.2,8.8-7.9,9.3c-1.8,0.2-2.8-1.7-2.2-3.4c1.3-4.3,2.9-8.7,8.1-9.5
	C254.7,453.4,255.5,455.1,254.9,457.3z"/>
<path class="st79" d="M365,299.1c-10.7,37.8-21.3,75.7-32,113.5c-1.3,4.6-1.4,9.6-4.8,13.5c-9.3-36.1-6.3-70.6,13.9-102.7
	C348.1,313.8,354.1,304.1,365,299.1z"/>
</svg>
