<?xml version="1.0" encoding="utf-8"?>
<!-- Generator: Adobe Illustrator 22.1.0, SVG Export Plug-In . SVG Version: 6.00 Build 0)  -->
<svg version="1.1" id="Layer_1" xmlns="http://www.w3.org/2000/svg" xmlns:xlink="http://www.w3.org/1999/xlink" x="0px" y="0px"
	 viewBox="0 0 810 640" style="enable-background:new 0 0 810 640;" xml:space="preserve">
<style type="text/css">
	.st0{fill:#2B3772;}
	.st1{fill:#5BC3B6;}
	.st2{fill:#FCB137;}
	.st3{fill:#5EB1E3;}
	.st4{fill:#FFFFFF;}
	.st5{fill:#B7BED4;}
	.st6{fill:#48545F;}
	.st7{fill:#475778;}
	.st8{fill:#EBECF2;}
	.st9{fill:#99A5D2;}
	.st10{fill:#5D6B7C;}
	.st11{fill:#667887;}
	.st12{fill:#374764;}
	.st13{fill:#546BB2;}
	.st14{fill:#A3AAB4;}
	.st15{fill:#34417B;}
	.st16{fill:url(#SVGID_1_);}
	.st17{fill:url(#XMLID_10_);}
	.st18{clip-path:url(#SVGID_3_);fill:url(#SVGID_4_);}
	.st19{fill:url(#SVGID_5_);}
	.st20{fill:none;stroke:url(#SVGID_6_);stroke-width:2.3182;stroke-miterlimit:10;}
	.st21{fill:url(#SVGID_7_);}
	.st22{fill:url(#XMLID_11_);}
	.st23{opacity:0.17;clip-path:url(#SVGID_9_);fill:url(#SVGID_10_);enable-background:new    ;}
	.st24{opacity:0.17;clip-path:url(#SVGID_12_);fill:url(#SVGID_13_);enable-background:new    ;}
	.st25{fill:url(#XMLID_12_);}
	.st26{opacity:0.59;clip-path:url(#SVGID_15_);fill:url(#SVGID_16_);enable-background:new    ;}
	.st27{fill:url(#SVGID_17_);}
	.st28{fill:url(#XMLID_13_);}
	.st29{opacity:0.29;clip-path:url(#SVGID_19_);fill:url(#SVGID_20_);enable-background:new    ;}
	.st30{opacity:0.14;clip-path:url(#SVGID_22_);fill:url(#SVGID_23_);enable-background:new    ;}
	.st31{opacity:0.21;clip-path:url(#SVGID_25_);fill:url(#SVGID_26_);enable-background:new    ;}
	.st32{opacity:0.21;clip-path:url(#SVGID_28_);fill:url(#SVGID_29_);enable-background:new    ;}
	.st33{fill:url(#SVGID_30_);}
	.st34{opacity:0.13;}
	.st35{fill:url(#SVGID_31_);}
	.st36{fill:url(#SVGID_32_);}
	.st37{fill:url(#SVGID_33_);}
	.st38{fill:url(#SVGID_34_);}
	.st39{fill:url(#XMLID_14_);}
	.st40{opacity:0.37;clip-path:url(#SVGID_36_);fill:url(#SVGID_37_);enable-background:new    ;}
	.st41{fill:url(#SVGID_38_);}
	.st42{fill:url(#SVGID_39_);}
	.st43{fill:url(#SVGID_40_);}
	.st44{fill:url(#SVGID_41_);}
	.st45{fill:url(#SVGID_42_);}
	.st46{fill:url(#SVGID_43_);}
	.st47{fill:url(#SVGID_44_);}
	.st48{fill:url(#SVGID_45_);}
	.st49{opacity:0.16;fill:#FFFFFF;enable-background:new    ;}
	.st50{fill:url(#XMLID_15_);}
	.st51{opacity:8.000000e-02;clip-path:url(#SVGID_47_);fill:url(#SVGID_48_);enable-background:new    ;}
	.st52{clip-path:url(#SVGID_50_);fill:url(#SVGID_51_);}
	.st53{fill:url(#SVGID_52_);}
	.st54{fill:url(#XMLID_16_);}
	.st55{opacity:0.32;clip-path:url(#SVGID_54_);fill:url(#SVGID_55_);enable-background:new    ;}
	.st56{fill:url(#SVGID_56_);}
	.st57{fill:url(#SVGID_57_);}
	.st58{fill:url(#SVGID_58_);}
	.st59{fill:url(#XMLID_17_);}
	.st60{opacity:0.42;clip-path:url(#SVGID_60_);fill:url(#SVGID_61_);enable-background:new    ;}
	.st61{clip-path:url(#SVGID_63_);fill:none;stroke:url(#SVGID_64_);stroke-width:0.5086;stroke-miterlimit:10;}
	.st62{fill:url(#SVGID_65_);}
	.st63{fill:url(#SVGID_66_);}
	.st64{opacity:0.68;fill:url(#SVGID_67_);enable-background:new    ;}
	.st65{fill:url(#SVGID_68_);}
	.st66{fill:#38223D;}
	.st67{fill:#01A9C3;}
	.st68{fill:#4D3952;}
	.st69{fill:#413B53;}
	.st70{fill:#F43C4F;}
	.st71{fill:#656385;}
	.st72{fill:#D33750;}
	.st73{fill:#9188BA;}
	.st74{fill:#ADA6D1;}
	.st75{fill:#E5C9B5;}
	.st76{fill:#5E7C77;}
	.st77{fill:#749892;}
	.st78{fill:#9AB4B1;}
	.st79{fill:#889F9D;}
</style>
<g>
	<path class="st0" d="M397.2,137.1c5.3-24.9,23.4-40,42.2-54.4c18.8-14.4,39.9-24.6,61.9-33c8.2-3.1,14.9,1.4,15,10.2
		c0.1,9.3-0.1,18.7-0.3,28c-0.1,2.6,0.6,3.8,3.2,4.5c9.5,2.5,18.9,5.3,28.3,8c1.9,0.6,3.5,0.3,5.4-0.2c15.9-4.2,31.9-8.4,47.8-12.6
		c9.6-2.5,15.5,2.9,13.5,12.6c-10.4,49.3-20.9,98.7-31.3,148c-0.4,1.8-0.6,3.6-0.9,5.4c-1.4,6.3-2.9,12.6-4.2,18.9
		c-6.3,28.9-12.6,57.8-13.8,87.6c-0.9,23.1-3.5,46.2-5.5,69.2c-1,10.9-2.6,21.8-4,32.7c-2.7,16.8-5.4,33.5-8,50.3
		c-3.4,22-6.7,44.1-10.1,66.1c-0.9,5.6-4,8.7-9.6,9c-7.3,0.4-14.6,1-22,0.2c-1.2-0.1-2.2-0.4-3.3,0.5c-10.2,8.9-22,8.6-34.4,6.6
		c-35.8-5.8-71.7-11.3-107.6-16.7c-13-2-25-6.7-37.1-11.6c-6-2.4-8-9-5.1-15.2c2.3-5,4.8-9.9,7.3-14.7c0.8-1.5,1.3-2.8-0.8-3.6
		c-8.7-3.2-10.9-9.5-8.6-17.9c0.2-0.5,0.5-0.9,0.6-1.4c7.2-33,14.3-66,21.4-98.9c0.2-0.9,0.7-2-0.7-2.9
		c-20.7,7.7-41.6,15.3-62.4,23.2c-4.3,1.6-8.5,3.1-13.1,2.7c-3.5-0.4-5.6,1.1-7.5,3.8c-4.1,5.8-6.8,12.2-8.1,19.1
		c-3.6,13.8-4,28-4.1,42.1c-0.1,12.7-6.2,18.7-18.9,18.1c-11.8-0.6-20.7-6.8-28-15.5c-9.8-11.7-15.7-25.5-20-39.8
		c-9.4-31-11.9-62.7-10-94.8c0.1-2.1,0.3-4.4,1.2-6.4c2.5-5.7,4.2-11.2,0.7-17.3c-1.4-2.4,0.2-5.2,2-7.3
		c8.8-10.9,20.3-16.3,34.1-17.1c1.3,1,3.1,1.8,3.8,3.1c1.6,2.8,3.3,1.9,5.3,0.9c38-19.2,77.7-33.8,119.1-43.8c2.3-0.6,4-1.2,3.5-4.2
		c-0.5-3.6,1.4-6,4.5-7.6c8.2-4.4,16.8-7.6,26.2-6.9c4.5,0.3,5.6-1.4,6.4-5.2c3.8-18.4,7.9-36.7,11.9-55.1
		C387.8,181.7,392.5,159.4,397.2,137.1z M173.3,342.2c-2.9,2.1-2.9,4.9-0.8,7.1c1.3,1.3,2.1-1.1,2.9-2.1c7.6-5.7,16.1-10,24.4-14.5
		c1.1-0.6,2.8-0.9,2.2-2.8c-0.5-1.8-2.1-2.1-3.7-1.7C188.8,330.5,179.7,333.9,173.3,342.2z M342.5,280c9.7-1.8,19.3-4.7,29.3-4.9
		c1,0,2.1,0.1,2.4-1.2c0.2-1.1-0.3-1.9-1.1-2.6c-0.9-0.9-2-1-3.1-1.3c-10-2.3-18.9,1-27.7,5.3c-2.3,0.7-3.8,2-2.9,4.5
		C340,281.8,341.4,280.1,342.5,280z M566.3,120C566.3,120,566.4,120.1,566.3,120c-1.1-6.7-6.5-9.8-11.8-11.7
		c-11.9-4.1-24.2-7.3-36.3-10.9c-2.6-0.8-2.8,0.7-2.8,2.6c-0.3,5-0.7,9.9-1,14.9c-1.1,15.9-2,31.8-3.2,47.7
		c-1.4,18.2-3.1,36.3-4.7,54.5c-1.6,17.8-3.5,35.6-4.7,53.5c-0.4,5.2-2.3,10.4-0.4,15.6c-2.3,14.8-3.5,29.8-4.1,44.8
		c-3,18.5-3.9,37.2-5.8,55.8c-1.3,12-2.1,24.1-3.3,36.1c-1.5,16-3.2,32-4.8,47.9c-1.2,12-2.6,24-3.7,36.1
		c-1.2,12.7-2.2,25.4-3.2,38.1c-0.7,6.7-1.4,13.5-2.1,20.2c-0.2,2.2,0.2,4.2,2.7,4.6c5.5,0.9,11.1,1.5,16.7,2.3
		c2.5,0.4,3.8-0.8,4.2-3.1c1.2-7,3.2-13.8,3.4-21c0.7-2.4,1.5-4.7,2-7.1c8.5-45.9,16.8-91.9,25.3-137.8c6.2-33.4,12.7-66.6,18.7-100
		c8.1-45.5,17.8-90.7,24.6-136.4c1.4-9.5,1.3-19.2-0.1-28.8c-0.1-1.6-0.3-3.2-0.4-4.7c-0.1-3.3-1.2-6.3-2.2-9.3
		C568.2,122.4,569,120,566.3,120z M247.3,365.9l0.1,0.1c3,2.8,6.3,2.3,9.8,1c21.1-7.8,42.1-15.5,63.2-23.2
		c8.6-3.2,10.8-6.7,9.6-15.9c-1.2-9.4-2.6-18.8-4-28.2c-0.5-3.3-1.4-6.6-4.8-8.3c-1.5-0.8-2.9,0-4.3,0.4c-7.3,2.1-14.7,4.1-21.9,6.4
		c-22.2,7.2-44.2,15.1-65.1,25.6c-6.7,1.1-6.9,5.9-4.2,10.4c5.5,9.3,10.9,18.6,17.4,27.2c0.7,1.5,1.8,2.8,3.3,3.5
		C246.4,365.6,246.7,365.9,247.3,365.9z M227.4,493c-0.6,7.6,1.2,15.4-2.9,23c9-1.8,11.8-4.8,11.7-12.9c-0.2-16.2,0.9-32.3,4.9-48.1
		c1.1-5.5,4-10.2,7.1-14.6c2.2-3.1,2-4.6-1.6-6.2c-2.2-1-4.1-2.7-6.1-4.3c-3.6-2.9-5.2-7.3-8.2-11.4
		C229.3,443.7,227.6,468.3,227.4,493z M424.3,416c-14.7-16.7-30.4-32.2-46.4-47.7c-0.7-0.7-1.7-1-2.5-1.5c-0.2-0.1-0.4-0.3-0.6-0.4
		c0.1,0.2,0.2,0.4,0.3,0.7c1.9,8.3,1.5,16.5-2.7,24.6c5.7,1.2,10.8,3.2,15.8,5.3c7.4,5.8,15.3,11,21.8,18.1
		c6.2,6.8,12.5,13.4,18.8,19.9c3.6,3.7,9.2,4.1,12.7,1.4c1.3-1,2-1.7,0.1-2.8C434.3,429.4,430.2,421.8,424.3,416z M256.3,379.4
		c0-0.4,0-0.8,0-1.3c7.6-0.6,15-0.5,21.7,3.8c4.6,2.9,7.7,7.3,11.2,11.2c1.8,5.5,3.6,10.9,3.1,16.9c-0.4,4.5-2.5,8.5-3.2,12.9
		c-0.4,0.2-0.8,0.4-1.2,0.6c0.1,0.1,0.3,0.3,0.3,0.3c0.4-0.2,0.8-0.4,1.1-0.6c10.1-2.3,19.4-6.8,29.1-10.2c5.8-2,11.5-4.2,18.1-6.7
		c-11.4-4.4-17.7-12.1-21.3-22.2c0-3.1-0.4-6.3,0.1-9.4c1-7.4,2.7-14.5,10-18.6c0.1,1.3-0.9,2.1-1.6,3c-4.3,6.3-6.1,13-4.6,20.7
		c2,10.5,12.2,22.6,28.2,21.5c12-0.9,22.6-10.8,23.9-23.4c1.3-13-7.4-25.2-19.8-28.7c-6.3-1.8-12.1,0.4-18.1,1
		c5-4.4,11.4-2.5,18.6-3.5c-7.1-4-12.5-8.1-15.6-14.4c-1.5-14.7-6.2-29.1-4.6-44.1c-5.7,0.4-6.8,1.1-5.3,3.3
		c3.1,4.7,3.1,10,3.9,15.2c1.4,8.6,2.7,17.3,4,25.9c-0.8,6.2-2.9,11.5-9.5,13.9c-20.8,7.5-41.7,14.8-62.2,23
		c-8.1,3.2-14.6,3.3-21-2.6c-4.7-7.6-9.4-15.2-14-22.9c-2.6-4.4-6.3-8.2-6.4-13.8c0-2-1.3-2.1-2.7-1.3c-1.2,0.7-2.9,0.8-3.7,2.6
		c4.8,3.2,8,7.8,10.9,12.7c4.7,7.8,9.7,15.5,14.6,23.2c1.4,6,1.1,11.8-1.2,17.5c-1.4,3.4,0.9,2.4,2.4,2.3
		c-6.4,8.8-9.1,18.3-4.9,28.9c4.9,12.4,19.2,19.2,32,15.2c13.4-4.1,21.1-17.3,18-30.7C283.2,386.6,271.5,378.4,256.3,379.4z
		 M534,558c0.4-1.9,1-3.9,1.3-5.8c2.5-16.3,4.9-32.6,7.5-48.8c6.7-40.7,12.4-81.6,14.6-122.8c0.1-2.3,0.3-4.5-0.4-7.1
		c-1.5,2.4-1.5,4.9-2,7.2c-4.8,22.4-9.6,44.9-14.3,67.3c-0.5,2.4-1.7,5,2.9,4.7c3.1-0.2,1.6,2.2,1.3,3.5
		c-5.4,29.4-11,58.8-16.3,88.3c-0.5,2.6-1.7,3.6-4,4.3c-6.1,1.7-7.1,3.3-7,10.2c-1.6,7.1-3.1,14.3-4.7,21.4
		c-0.4,1.6-0.3,2.6,1.7,2.5c4.1-0.2,8.3-0.2,12.4-0.6c2.5-0.2,3.9-1.9,4.2-4.2C532.1,571.4,533,564.7,534,558z M412.3,569
		c-2.6-1.6-5.6-2-8.3-3c-11.5-4.5-23.9-6.6-34.2-13.9c-9.1-9.3-19.3-17.2-29-25.9c-2.5-2.3-4.4-1.6-5.9,1.3
		c-4.4,8.8-8.9,17.5-13,26.4c-1.7,3.5-1.3,6.9,3.3,8.2c22.5,10.7,46.8,13.3,71,16.1c5,1.8,10.3,2,15.4,2.9c19,3.1,38.2,5.8,57.2,8.9
		c8.7,1.4,17.1,2.4,25-2.6c1.6-1,3.4-1.8,1.3-4.1c-5.6-6.2-13-7.4-20.7-8c-1.5-0.1-2.6,0.6-3.2,1.9c-1,1.9-2.7,2.9-4.5,3.8
		c-4.8,2.6-9.4,0.9-14-0.4C439.4,576.6,425.9,572.8,412.3,569z M572.1,100.8c-3.5,0.8-7.1,1.6-10.6,2.4c-0.7,0.2-1.9,0.2-1.7,1.3
		c0.2,1,1.3,1.3,2.3,1.6c8.3,5.8,12.5,14,14.3,23.7c2.5,13.7,2.5,27.6,0.3,41.2c-3.8,24.1-8.5,48.1-12.8,72.1c-3.2,18-6.5,36-9.7,54
		c-0.6,2.6-1.3,5.2-1.8,7.8c-16.3,88-32.6,176.1-48.9,264.1c-0.4,2.3-0.4,5-2.4,6.4c-5.2,3.7-0.6,4.8,1.6,6.1
		c1.5,0.9,3.9,3.1,4.7-1.1c1.9-9.8,3.9-19.6,5.9-29.3c0.2-0.4,0.6-0.8,0.7-1.3c8.4-39.7,16.8-79.5,25.2-119.2
		c19.5-92.3,39-184.6,58.5-276.9c3.8-17.9,7.6-35.8,11.4-53.7c1.3-6.1-0.8-9-5.8-7.7C592.9,94.9,582.5,97.9,572.1,100.8z M169.7,407
		c-0.3,1.7-0.6,3.5,0.5,5.1c0.1,1,0.2,1.9,0.2,2.9c-0.5,6.4,0.9,12.6,1.9,18.8c3.3,20.5,8.4,40.4,19,58.5c4.8,8.1,10.6,15.4,19,20.1
		c8,4.5,11.9,2.3,12.3-6.8c0.5-14,0.8-28,1.6-42c1.5-28.3,4-56.4,11.7-83.9c1.3-4.8,1.2-9.7-1.4-14.1c-5.2-8.7-10.6-17.3-16.2-25.8
		c-1.6-2.4-3.4-5.1-7.1-4.6c-2.2-0.8-4.2-0.5-6.2,0.7c-7.1,4-14.4,7.7-21.3,11.9c-8.6,5.3-13.4,13.4-14.2,23.4
		C168.5,383.1,168.6,395.1,169.7,407z M338.2,288c-3.6,2.2-3.7,5.8-3.3,9.3c1.3,9.6,2.8,19.1,4.2,28.6c0.8,5.4,3.6,9.7,8,12.7
		c18.8,12.8,35.6,27.9,51.4,44.1c11.4,11.6,22.4,23.6,33.6,35.4c1.9,2.3,3.8,4.6,5.8,6.8c2.4,2.6,4.5,6.3,8.9,5.3
		c4.2-1,4.6-5.3,6-8.5c0.5-1.1,0.7-2.2,0.9-3.4c2.1-10.7,0.9-21.3-2.1-31.6c-11.2-38.4-33.6-69.9-61-98.2c-3.9-4-9-6.4-14.5-7.3
		c-12.7-1.9-24.6,2.5-36.7,5.4C339,286.7,338.6,287.5,338.2,288z M438.3,444.1c-6.6,0.1-11.6-2.7-15.9-7.8
		c-9.1-10.9-18.8-21.2-30.3-29.6c-5.7-4.2-11.8-7.6-18.7-9.1c-2-0.4-4.3-1.4-6.1,0.5c-5.1,5.5-12,7.7-18.8,9.7
		c-3.7,1.1-5.2,3.1-6,6.8c-5.5,25.9-11.1,51.7-16.7,77.6c-2,9.3-4,18.5-6,27.8c-1.2,5.3,2.6,7,6.3,8.7c3.8,1.7,3.4-2.2,4.3-3.8
		c3.5-6.1,8.6-7.1,14-2.6c7.9,6.6,15.2,14,23.6,20.1c0.7,1.2,1.5,2.2,2.8,2.8c3.3,3.9,7.5,6.3,12.3,8.1
		c24.2,8.8,48.9,16.2,73.9,22.7c8,2.1,11.1,0,11.9-8.4c2.9-29.3,5.6-58.6,8.4-88c3.2-33.3,6.3-66.6,9.5-99.9
		c3.5-37.6,7.1-75.2,10.5-112.8c3-33.1,5.9-66.3,8.6-99.5c1.3-16.1,2.2-32.2,3.3-48.3c1.6-19.4,2.7-38.9,2.3-58.4
		c-0.1-6-3.2-8.1-8.8-5.9c-4.5,1.7-9,3.5-13.4,5.5c-27.8,12.4-53.3,28-73.6,51.2c-5.8,6.6-10.2,14.1-12.1,22.7
		c-9.4,42.7-18.6,85.5-27.9,128.2c-0.3,1.4-1.2,3,0.5,4.1c2.7,1.9,3.4,4.9,4.1,7.7c0.5,1.7,1.1,3,2.9,3.6
		c6.8,2.4,11.9,7.2,16.7,12.3c20.4,22,37.2,46.5,49.6,73.8c0.2,0.6,0.3,1.3,0.6,1.9c6.1,14.2,10.5,28.8,10.1,44.4
		C459.6,427.2,451.7,439.2,438.3,444.1z"/>
	<path class="st1" d="M397.2,137.1c-4.7,22.3-9.4,44.5-14.2,66.8c-3.9,18.4-8,36.7-11.9,55.1c-0.8,3.8-1.9,5.5-6.4,5.2
		c-9.4-0.7-18,2.5-26.2,6.9c-3.1,1.6-5,4.1-4.5,7.6c0.4,3-1.2,3.6-3.5,4.2c-41.4,10-81.1,24.6-119.1,43.8c-2.1,1-3.7,1.9-5.3-0.9
		c-0.8-1.3-2.5-2.1-3.8-3.1c3.3-41.1,17-78.2,42.9-110.4c31.7-39.5,72.7-63.8,122.7-72.5C377.6,138.3,387.4,137.3,397.2,137.1z"/>
	<path class="st1" d="M245.4,460.8c1.3-7,4-13.3,8.1-19.1c1.8-2.6,3.9-4.1,7.5-3.8c4.5,0.5,8.8-1.1,13.1-2.7
		c20.8-7.8,41.7-15.5,62.4-23.2c1.5,0.9,0.9,2,0.7,2.9c-7.1,33-14.3,66-21.4,98.9c-0.1,0.5-0.4,0.9-0.6,1.4
		c-24.8-11.5-45.9-28-64-48.4C249.4,464.8,247.8,462.4,245.4,460.8z"/>
	<path class="st1" d="M554.4,462.2c1.3-10.9,3-21.7,4-32.7c2.1-23,4.6-46.1,5.5-69.2c1.2-29.8,7.5-58.7,13.8-87.6
		c1.4-6.3,2.8-12.6,4.2-18.9c8.4,17.4,13.5,35.7,16.1,54.8c4.9,36.2,0.5,71.3-13.8,104.9C576.7,431.1,567.1,447.6,554.4,462.2z"/>
	<path class="st2" d="M219.2,204.1c-17-2.4-33.5-4.8-50-7.1c-2.6-0.4-2.8-1.5-2.5-3.7c2.4-16.1,4.7-32.3,6.9-48.4
		c0.4-3.2,1.7-4.1,4.8-3.6c16,2.4,31.9,4.7,47.9,6.9c2.6,0.4,3.7,1,3.2,4.1c-2.4,16-4.6,32-6.9,47.9
		C222.4,202.6,222.2,205.1,219.2,204.1z M215.3,162.3c0.6-2.3-0.7-3-3.2-3.4c-7.9-1-15.8-2.1-23.7-3.4c-2.7-0.5-3.6,0.3-4,2.8
		c-1,7.7-2.1,15.5-3.3,23.2c-0.5,3,0,4.4,3.5,4.8c7.8,0.8,15.5,2.1,23.2,3.4c2.7,0.5,3.5-0.5,3.9-2.9
		C212.9,178.8,214.1,170.7,215.3,162.3z"/>
	<path class="st2" d="M603,434.6c18.7-15.3,36.5-29.9,54.8-44.8c1.9,5.1,2.1,10.1,2.9,14.8c2.9,16.9,5.6,33.8,8.3,50.7
		c0.3,2,1.3,4.8-2.8,3.2C645.5,450.7,624.8,442.9,603,434.6z M649.4,412.6c-7.7,6.3-14.4,11.8-21.9,17.9c8.4,3.2,15.9,6,23.4,8.9
		c2.1,0.8,2.8,0.2,2.4-1.9C652.1,429.5,650.8,421.5,649.4,412.6z"/>
	<path class="st3" d="M178.5,244c0,12.7-9.4,22.1-22,22.1c-12.7,0-22.3-9.7-22.2-22.5c0.1-12.1,10.5-22.5,22.3-22.2
		C168.8,221.7,178.5,231.7,178.5,244z M156.3,256.2c6.9,0,12.6-5.4,12.6-12.2c0-6.6-5.7-12.4-12.4-12.6c-6.7-0.1-12.3,5.5-12.3,12.3
		C144.2,251,149.2,256.1,156.3,256.2z"/>
	<path class="st3" d="M649.9,337.4c0.1-1.7-1-2-1.8-2.6c-1.6-1.2-3.1-2.6-4.9-3.4c-4.1-2-4-4-1.5-7.6c2.4-3.5,4-3.2,7-1
		c7.4,5.3,7.5,5.1,12.8-2.1c2.8-3.8,8.1-3.2,10.4,1c0.7,1.4-0.3,2.1-0.9,3.1c-5.9,9.1-6,9.3,2.6,15.1c3.8,2.6,1.3,4.3,0,6.3
		c-1.4,2-2,4.9-5.9,2.2c-8.3-5.8-8.7-5.7-14.8,2.7c-3.2,4.4-4.9,0.5-7.1-0.5c-2.8-1.3-3.3-3.2-1.1-5.8
		C646.6,342.3,648.3,339.6,649.9,337.4z"/>
	<path class="st4" d="M449.3,364c-12.4-27.4-29.2-51.8-49.6-73.8c-4.8-5.2-9.8-10-16.7-12.3c-1.8-0.6-2.5-1.9-2.9-3.6
		c-0.8-2.9-1.4-5.9-4.1-7.7c-1.6-1.1-0.8-2.8-0.5-4.1c9.3-42.7,18.5-85.5,27.9-128.2c1.9-8.6,6.3-16,12.1-22.7
		c20.3-23.2,45.8-38.8,73.6-51.2c4.4-2,8.9-3.8,13.4-5.5c5.7-2.2,8.7-0.1,8.8,5.9c0.4,19.5-0.7,38.9-2.3,58.4c-1.5,0-3,0-4.5,0
		c0-4.9-0.8-10,0.1-14.7c2.7-13.7,0.9-27.5,2.6-41.2c0.5-3.6-1.5-5-4.9-3.5c-9.8,4.4-20,8.3-29.2,13.9c-1.7,1.1-2.6,2.2-2.7,4.3
		c-0.6,12.9-1.4,25.9-1.9,38.8c-0.7,17.9-2,35.8-2.8,53.7c-1.1,23.7-2.5,47.4-4.2,71.1c-1.1,15.6-1.9,31.1-3.2,46.7
		c-1.8,21-3.7,41.9-6.1,62.8C451.6,355.2,453,360.2,449.3,364z"/>
	<path class="st5" d="M449.3,364c3.6-3.8,2.2-8.8,2.7-13.1c2.4-20.9,4.3-41.9,6.1-62.8c1.3-15.5,2.1-31.1,3.2-46.7
		c1.7-23.7,3.1-47.3,4.2-71.1c0.8-17.9,2.1-35.8,2.8-53.7c0.5-12.9,1.4-25.9,1.9-38.8c0.1-2.1,1-3.2,2.7-4.3
		c9.3-5.6,19.4-9.5,29.2-13.9c3.4-1.5,5.4-0.1,4.9,3.5c-1.7,13.7,0.1,27.5-2.6,41.2c-0.9,4.7-0.1,9.8-0.1,14.7
		c-0.3,0.1-0.6,0.1-0.9,0c-2-0.2-3.3,0.5-4.5,2.3c-4.9,7.2-8.7,14.8-10.9,23.3c-3.8,14.4-5.1,29.2-7.1,43.9
		c-2.7,19.4-3.1,38.9-4.5,58.3c-1.3,17.3-0.6,34.8,2.9,52c1.2,5.6,1.9,11.8,7.8,15.2c-0.2,12.3-2.5,24.3-3.2,36.6
		c-1,15.5-3.2,30.9-4.7,46.4c-1.5,15.7-2.6,31.4-4.2,47c-2.2,22.2-4.7,44.4-6.8,66.7c-1.6,16.3-2.7,32.7-4.2,49
		c-0.7,7.6-6,11.3-13.5,9.4c-23.9-5.9-47.3-13.2-70.5-21.2c-3.1-1.1-6-2.9-9.5-2.8c-1.3-0.6-2.2-1.5-2.8-2.8c1.3-0.4,2.6-0.3,3.9,0
		c12,2.6,22.3-0.4,30.9-9.3c9.2-9.5,14.9-21.1,19.7-33.1c7.2-18.1,11.9-36.9,15.9-55.9c13.5-4.9,21.3-16.9,21.8-33.8
		c0.4-15.6-4-30.2-10.1-44.4C449.7,365.3,449.5,364.6,449.3,364z"/>
	<path class="st4" d="M438.3,444.1c-4,19-8.7,37.8-15.9,55.9c-4.8,12.1-10.5,23.6-19.7,33.1c-8.6,8.8-18.9,11.9-30.9,9.3
		c-1.3-0.3-2.6-0.4-3.9,0c-8.3-6.1-15.6-13.5-23.6-20.1c-5.4-4.5-10.5-3.5-14,2.6c-0.9,1.6-0.5,5.5-4.3,3.8
		c-3.7-1.7-7.5-3.3-6.3-8.7c2-9.3,4-18.5,6-27.8c5.6-25.9,11.3-51.7,16.7-77.6c0.8-3.7,2.2-5.7,6-6.8c6.9-2,13.7-4.2,18.8-9.7
		c1.8-1.9,4.1-1,6.1-0.5c7,1.5,13,5,18.7,9.1c11.5,8.4,21.3,18.7,30.3,29.6C426.7,441.4,431.6,444.2,438.3,444.1z"/>
	<path class="st6" d="M476.4,545c1.1-12.7,2-25.4,3.2-38.1c1.1-12,2.5-24,3.7-36.1c1.6-16,3.2-32,4.8-47.9c1.2-12,2-24.1,3.3-36.1
		c2-18.6,2.9-37.3,5.9-55.8c2.2,0.2,4.2-0.2,6.3-0.9c11.6-4.1,16.9-13.8,21.8-23.8c7.3-15,11-31.1,14.3-47.4c5-24.4,7.5-49,7.7-73.8
		c0.1-9-0.6-17.9-1-26.8c13.8-0.3,21.6-6.5,25.3-20.4c1.4,9.6,1.5,19.3,0.1,28.8c-6.8,45.7-16.5,90.9-24.6,136.4
		c-6,33.4-12.5,66.7-18.7,100C520,449,511.7,495,503.2,540.9c-0.4,2.4-1.3,4.8-2,7.1C492.8,548.2,484.7,545.3,476.4,545z
		 M523.6,368.5c-1.4-3-3.8-4.1-6.9-3.4c-2.5,0.6-3.9,2.4-4.3,4.9c-0.7,4.4-1.4,8.7-2,13.1c-0.4,3.1-0.1,6,2.8,7.9
		c4.3,2.8,7.9,1.9,9-2.9c1.3-5.5,1.9-11.1,2.8-16.6C525.2,370.3,524.5,369.3,523.6,368.5z M532.4,326.1c-1.6-4.1-5.6-2.8-8.6-3.7
		c-3.9-1.1-7.1,0.9-7.3,5.1c-0.3,7.3-1.9,14.4-2.9,21.6c-0.3,2.4,0.4,4.3,2.9,5.1c3.1,3.4,7.2,3.1,10.9,2.4c3.5-0.7,3-4.4,3.5-7
		c1.1-6.3,1.9-12.7,3-19.1C534,328.8,534,327.3,532.4,326.1z M499.5,495.3c-0.6-1.9,1.2-4.7-1.9-5c-2.5-0.2-2.2,2.4-2.5,4.1
		c-0.8,5.1-1.7,10.1-2.6,15.2c-0.3,1.5,0.1,2.8,1.6,3.2c1.9,0.5,2.8-0.7,3-2.4C498,505.4,498.8,500.3,499.5,495.3z M497.5,477.8
		c-0.2,1.5-0.4,3.1,1.8,3.3c1.8,0.1,2.7-1,2.9-2.7c0.6-4.1,1.2-8.1,1.9-12.2c0.2-1.5-0.2-2.7-1.7-3.1c-1.9-0.4-2.7,0.8-3,2.5
		C498.7,469.7,498.2,473.7,497.5,477.8z"/>
	<path class="st4" d="M432.2,418.1c-11.2-11.8-22.3-23.8-33.6-35.4c-15.8-16.2-32.6-31.4-51.4-44.1c-4.5-3-7.2-7.3-8-12.7
		c-1.4-9.5-2.9-19.1-4.2-28.6c-0.5-3.5-0.4-7.1,3.3-9.3c6.6-0.4,13-2.2,19.5-3.6c13.1-2.8,24.2,0.3,33.6,9.9
		c6,6.2,11.8,12.6,17.2,19.4c13.7,17.1,25.7,35.1,31.1,56.7c2.7,10.7,5.1,21.3,2.7,32.3C440.8,409,439.8,415.8,432.2,418.1z
		 M389.4,332.9c-0.2-0.3-0.4-0.6-0.7-1c-1.4-1.2-2.6-2.6-4.1-3.5c-3.5-2-7-1.8-10.2,0.6c-3.4,2.5-4.8,5.9-3.7,10
		c1,3.8,3.5,6.4,7.4,7.1c2.8,0.5,5.6,0,8.1-1.4c4.2,1.6,5.2-2,6.2-4.4C393.8,337.3,393.2,334.3,389.4,332.9L389.4,332.9z M371.2,312
		c4.7,0.5,7.8-1.6,8.9-6c0.8-3.2,0.6-6.7-3.7-7.9c-1.2-1.1-2.4-2.4-3.7-3.3c-4-2.5-8-2.2-11.5,0.9s-4.2,7.2-2.2,11.3
		C361.4,312.2,366,312.9,371.2,312z M363.2,333.8c0.2,0.7,0.7,1.3,1.4,0.9c2.4-1.4,4.7-3.1,4.7-6.3c0.1-3.2,0-6.3-3.9-7.4
		c-0.7-0.7-1.4-1.4-2.2-2c-3.9-3.2-8.6-3.4-12.3-0.6c-3.6,2.7-4.8,7.5-2.9,11.6c2,4.3,6.2,6.3,11.1,5.3
		C360.5,335,361.8,334.3,363.2,333.8z M400.6,313.6c0-5.3-4.5-9.7-10-9.7c-5.3,0.1-9.5,4.3-9.5,9.6c0,5.3,4.1,9.5,9.5,9.6
		C396.4,323.2,400.6,319.3,400.6,313.6z M348.4,302.6c-0.3-1.8-0.5-4.3-1.1-6.6c-0.7-2.6-2.7-3.7-5.3-3.3c-2.4,0.4-3.9,2-3.7,4.5
		c0.1,2.5,0.6,4.9,0.9,7.4c0.4,2.9,2.2,4.6,5.1,4.3C347.3,308.6,348.7,306.4,348.4,302.6z"/>
	<path class="st7" d="M546.3,158.2c0.4,8.9,1.1,17.8,1,26.8c-0.2,24.9-2.8,49.4-7.7,73.8c-3.3,16.3-7,32.4-14.3,47.4
		c-4.9,10-10.3,19.7-21.8,23.8c-2.1,0.7-4.1,1.1-6.3,0.9c0.6-15,1.9-29.9,4.1-44.8c7.4-50.8,14.8-101.6,16.2-153.1
		c0.5,0.8,1,1.7,1.6,2.5C525.8,146,533.3,155.4,546.3,158.2z"/>
	<path class="st4" d="M170.5,415c-0.1-1-0.2-1.9-0.2-2.9c1.7-1.9,0-3.4-0.5-5.1c-1.1-11.9-1.2-23.9-0.2-35.8
		c0.8-10,5.6-18.1,14.2-23.4c6.9-4.3,14.2-7.9,21.3-11.9c2-1.1,4-1.4,6.2-0.7c-0.5,1.8,3.3,3.5,0,5.3c-3.1,1.1-4.6,3.2-3.3,6.4
		c0.8,1.9,2,3.7,3.2,5.5c3,4.5,5.3,4.6,9.3,0.6c5.6,5.4,10,11.5,10.8,19.4c0.2,1.9,0.7,4-0.6,5.9c-2.7-2.2-1-6.9-5.3-7.4
		c-2-3.9-4.8-5-8.9-3c-3.1,1.5-6.4,2.3-9.3,4.2c-0.3-4.3-1.8-8.3-3.8-12.1c-1-2-2.5-3-4.8-2.8c-11.7,1.1-15,6.9-9.7,17.1
		c2.1,4,6.4,4.6,10.1,5.5c3.4,0.8,4.6-2.5,5.9-5c0.6-1,0.5-2.8,2.4-2.8c0.6,1,0,1.9-0.4,2.8c-2.7,7.3-2.5,7.8,4.6,11.4
		c1.5,0.8,2.9,1.6,4.6,1.6c0.9,0.3,1.6,0.1,2.2-0.6c0.6-0.1,1.3-0.2,1.9-0.4c1.8,1.9,3.3-0.3,4.9-0.4c1.2-0.1,2.3-1.8,3.6-0.7
		c1,0.9-0.1,2.2-0.3,3.2c-3.9,17.8-6.6,35.9-7.9,54c-1.1,16-2.5,32.1-2.3,48.2c0.1,4.8-1.5,5.7-5.8,3.7c-7.2-3.5-12.7-9.1-17.3-15.5
		c-11.2-15.3-16.4-33.2-20.9-51.3C173.1,423.8,173.9,418.8,170.5,415z M197,393.8c-0.1,4.6,2.2,8,3.4,11.8c1.1,3.7,4,4.4,7.1,3
		c4.1-1.8,10.1-0.9,11-7.4c0-0.2,0-0.3,0-0.5c-1.2-3.1-2.2-6.3-3.7-9.2c-1.6-3.1-5.2-3.2-8-4.5c-3.7-1.7-5.6,1.8-8.3,3.6
		c0.8-6.7-1.3-9.6-8.2-11.6c-2.7-0.8-12.4,2.6-13.6,4.8c-1.2,2,2.1,13,4.4,14.7C183.5,400.5,191.5,398.3,197,393.8z"/>
	<path class="st4" d="M246.3,365.1c-1.5-0.8-2.5-2-3.3-3.5c3.8-2.4,5.2-6,5.3-10.4c0.2-13.1-5.8-22.1-18.5-27.3
		c20.9-10.5,42.9-18.4,65.1-25.6c7.2-2.4,14.6-4.3,21.9-6.4c1.4-0.4,2.8-1.2,4.3-0.4c1.6,11,3.1,22,4.8,32.9
		c1.1,6.8-1.6,13.6-6.9,15.6c-23.8,8.8-47.7,17.4-71.6,26l-0.1-0.1C247,365.6,246.7,365.3,246.3,365.1z"/>
	<path class="st8" d="M370.7,545.1c3.5-0.2,6.4,1.7,9.5,2.8c23.2,8,46.7,15.3,70.5,21.2c7.6,1.9,12.9-1.8,13.5-9.4
		c1.4-16.3,2.6-32.7,4.2-49c2.1-22.2,4.6-44.4,6.8-66.7c1.5-15.7,2.7-31.3,4.2-47c1.5-15.5,3.7-30.9,4.7-46.4
		c0.8-12.2,3-24.3,3.2-36.6c1-10,2.1-20,3-30c1.5-16,2.7-32,4.2-48c1.9-20.9,4.1-41.9,5.7-62.8c1.4-18,2.3-36.1,3.4-54.1
		c0.3,0,0.6,0,0.9,0c1.5,0,3,0,4.5,0c-1.1,16.1-1.9,32.2-3.3,48.3c-2.7,33.2-5.6,66.3-8.6,99.5c-3.4,37.6-7,75.2-10.5,112.8
		c-3.1,33.3-6.3,66.6-9.5,99.9c-2.8,29.3-5.5,58.7-8.4,88c-0.8,8.4-3.9,10.5-11.9,8.4c-24.9-6.5-49.6-13.9-73.9-22.7
		C378.2,551.4,374,549,370.7,545.1z"/>
	<path class="st9" d="M554.1,297.1c3.2-18,6.5-36,9.7-54c4.3-24,9-48,12.8-72.1c2.2-13.6,2.2-27.5-0.3-41.2
		c-1.8-9.7-6-17.9-14.3-23.7c4.7-0.2,9.3-1.1,13.3-3.8c1.6,0,3.3-0.1,4.9-0.1c1.9,1.3,3.9,2.5,5.6,4c7.1,5.9,8.7,14.1,9.4,22.7
		c0.3,3.4-1.1,6.9,1,10.2c-0.1,1.3-0.2,2.6-0.3,3.9c-0.2,0.4-0.5,0.8-0.7,1.1c-1.9,9.7-3.6,19.5-5.7,29.2
		c-3.4,16.2-7,32.4-10.5,48.6c-2,0.2-2,2.1-2.4,3.4c-5.6,18.7-11,37.5-16.8,56.1C558.3,286.8,557.2,292.3,554.1,297.1z"/>
	<path class="st5" d="M554.1,297.1c3.1-4.8,4.2-10.4,5.8-15.7c5.8-18.6,11.2-37.4,16.8-56.1c0.4-1.3,0.4-3.1,2.4-3.4
		c-0.8,4.1-1.5,8.1-2.4,12.2c-6.1,28.9-12.3,57.7-18.4,86.5c-6.9,32.6-13.5,65.2-20.4,97.8c-8.1,38.4-16.4,76.8-24.6,115.2
		c-1.2,5.8-3,11.6-0.1,17.4c-2,9.8-4.1,19.5-5.9,29.3c-0.8,4.2-3.2,2-4.7,1.1c-2.2-1.3-6.9-2.4-1.6-6.1c2-1.4,1.9-4.1,2.4-6.4
		c16.3-88,32.6-176.1,48.9-264.1C552.8,302.3,553.5,299.7,554.1,297.1z"/>
	<path class="st8" d="M513.3,551.1c-2.9-5.8-1.2-11.7,0.1-17.4c8.2-38.4,16.4-76.8,24.6-115.2c6.9-32.6,13.6-65.2,20.4-97.8
		c6.1-28.9,12.3-57.7,18.4-86.5c0.9-4,1.6-8.1,2.4-12.2c3.5-16.2,7.1-32.4,10.5-48.6c2-9.7,3.8-19.5,5.7-29.2
		c0.2-0.4,0.5-0.8,0.7-1.1c0.1-1.3,0.2-2.6,0.3-3.9c3.9-13,5.7-26.5,8.9-39.6c0.6-2.5-0.2-3.7-3.3-2.9c-7.2,2-14.4,3.8-21.7,5.6
		c-1.6,0-3.3,0.1-4.9,0.1c-1.2-0.3-2.6,0-3.2-1.5c10.4-2.9,20.7-5.9,31.2-8.6c5-1.3,7.1,1.6,5.8,7.7c-3.8,17.9-7.6,35.8-11.4,53.7
		c-19.5,92.3-39,184.6-58.5,276.9c-8.4,39.7-16.8,79.5-25.2,119.2C513.9,550.3,513.6,550.7,513.3,551.1z"/>
	<path class="st10" d="M241.5,366.7c6.4,5.9,13,5.8,21,2.6c20.5-8.2,41.4-15.5,62.2-23c6.6-2.4,8.7-7.7,9.5-13.9
		c0.7-0.1,1.4-0.2,2-0.3c3.1,6.3,8.4,10.4,15.6,14.4c-7.2,1-13.6-0.9-18.6,3.5l0,0c-1.5-0.1-2.6,0.4-3,2l0,0c-2.8-0.1-4.6,1.1-5,4
		l0,0c-7.3,4-9,11.2-10,18.6c-0.4,3.1-0.1,6.3-0.1,9.4c-9.1,1.9-17.6,5.3-26.1,9.1c-3.6-3.9-6.6-8.3-11.2-11.2
		c-6.7-4.3-14.1-4.4-21.7-3.8c-4.1,0.5-8,1.8-11.1,4.8c-0.3,0.4-0.6,0.8-1,1.2l0,0c-0.6,0.1-1,0.4-1,1l0,0c-1.4-0.1-2.2,0.5-2,2l0,0
		c-1.6,0.1-3.8,1.1-2.4-2.3c2.3-5.7,2.6-11.5,1.2-17.5C240.6,367.1,241,366.9,241.5,366.7z M289.6,376.2c-1.4,0.4-2.4,1.2-2.2,2.8
		c0.2,1.6,1.4,2.1,2.8,2s2.9-0.7,2.5-2.2C292.5,377.5,291.3,376.4,289.6,376.2z M294.7,371.7c-0.6-1.2-1.3-2.3-2.8-2.4
		c-1.6-0.1-2.5,1-2.4,2.5c0.1,1.6,1.2,2.2,2.8,2.2C293.6,373.9,294.3,373.1,294.7,371.7z M302.2,368.6c-0.3-1.2-0.8-2.4-2.4-2.3
		c-1.3,0.1-2,1.3-2,2.4c-0.1,1.6,1,2.3,2.6,2.2C301.7,370.9,302.2,370.1,302.2,368.6z M298,373.4c-1.3,0.6-2.5,1.3-2.2,2.9
		c0.2,1.3,1.3,1.8,2.6,1.8c1.5-0.1,2-1,1.8-2.3C300,374.4,299.4,373.5,298,373.4z M286.1,374.9c-0.6-1.2-1.3-2.4-2.8-2.4
		c-1.4,0-2,1.1-2,2.3c0,1.6,0.9,2.4,2.5,2.2C285,376.8,285.9,376.2,286.1,374.9z M306.9,375c0.8-0.3,2.2-0.5,2-2
		c-0.1-1.3-1.1-2.4-2.5-2.6c-1.3-0.2-2.1,0.8-2.2,2.1C304.3,374,305.1,374.8,306.9,375z M311.1,365.8c-0.7-1.1-1.3-2.4-2.8-2.4
		c-1.4,0-2,1-2,2.3c0.1,1.5,1,2.4,2.6,2.2C310.1,367.8,311,367.2,311.1,365.8z"/>
	<path class="st6" d="M369.8,552.1c10.3,7.3,22.8,9.4,34.2,13.9c2.7,1.1,5.8,1.4,8.3,3c-0.8,1.6-2.3,2.3-3.5,3.4
		c-3.6,3.2-8.7,3-12.5,5.7c-24.3-2.7-48.6-5.4-71-16.1c-0.6-2.1-1.7-4.2-0.7-6.3c3.9-8.3,8-16.5,12.3-25.3
		C346.1,541.4,356.3,549.2,369.8,552.1z"/>
	<path class="st5" d="M170.5,415c3.4,3.8,2.6,8.9,3.7,13.3c4.5,18.1,9.7,36,20.9,51.3c4.6,6.3,10.1,12,17.3,15.5
		c4.3,2,5.9,1.1,5.8-3.7c-0.2-16.1,1.2-32.2,2.3-48.2c1.3-18.2,4-36.2,7.9-54c0.2-1.1,1.4-2.3,0.3-3.2c-1.3-1.1-2.4,0.6-3.6,0.7
		c-1.6,0.2-3.1,2.3-4.9,0.4c8.6-4.6,8.6-4.6,5.4-14c-0.2-0.6-0.2-1.3-0.3-1.9c4.3,0.6,2.6,5.3,5.3,7.4c1.3-1.9,0.8-4,0.6-5.9
		c-0.8-8-5.2-14.1-10.8-19.4c0-6.3-3.7-11.5-9.2-12.5c3.3-1.8-0.6-3.5,0-5.3c3.7-0.5,5.5,2.2,7.1,4.6c5.5,8.5,10.9,17.1,16.2,25.8
		c2.6,4.4,2.7,9.3,1.4,14.1c-7.6,27.4-10.2,55.6-11.7,83.9c-0.7,14-1,28-1.6,42c-0.3,9.1-4.3,11.3-12.3,6.8
		c-8.4-4.7-14.2-11.9-19-20.1c-10.6-18.1-15.7-38.1-19-58.5C171.4,427.6,169.9,421.4,170.5,415z"/>
	<path class="st11" d="M546.3,158.2c-13-2.8-20.5-12.2-27.2-22.6c-0.5-0.8-1-1.7-1.6-2.5c-0.2-5.1-0.5-10.2,0.1-15.3
		c17.9,5.1,35.7,10.2,53.6,15.3c0.1,1.6,0.3,3.2,0.4,4.7C567.9,151.7,560.2,157.9,546.3,158.2z"/>
	<path class="st8" d="M517.5,559c-0.1-6.9,0.9-8.5,7-10.2c2.3-0.7,3.5-1.6,4-4.3c5.4-29.4,10.9-58.8,16.3-88.3
		c0.2-1.3,1.8-3.8-1.3-3.5c-4.5,0.3-3.4-2.3-2.9-4.7c4.7-22.4,9.5-44.9,14.3-67.3c0.5-2.3,0.5-4.9,2-7.2c0.7,2.5,0.5,4.8,0.4,7.1
		c-2.2,41.3-7.8,82.1-14.6,122.8c-2.7,16.2-5,32.5-7.5,48.8c-0.3,2-0.8,3.9-1.3,5.8C528.5,558.3,523,558.7,517.5,559z"/>
	<path class="st5" d="M432.2,418.1c7.6-2.3,8.6-9.1,10-15.3c2.4-11,0-21.7-2.7-32.3c-5.5-21.6-17.4-39.7-31.1-56.7
		c-5.4-6.7-11.1-13.2-17.2-19.4c-9.4-9.7-20.5-12.7-33.6-9.9c-6.5,1.4-12.8,3.2-19.5,3.6c0.4-0.5,0.8-1.3,1.3-1.4
		c12.1-2.9,24-7.3,36.7-5.4c5.5,0.8,10.6,3.2,14.5,7.3c27.4,28.3,49.7,59.9,61,98.2c3,10.3,4.2,20.9,2.1,31.6
		c-0.2,1.1-0.4,2.3-0.9,3.4c-1.4,3.3-1.8,7.5-6,8.5c-4.4,1-6.4-2.7-8.9-5.3C436,422.7,434.2,420.4,432.2,418.1z"/>
	<path class="st12" d="M396.3,578.1c3.8-2.7,8.9-2.5,12.5-5.7c1.2-1.1,2.8-1.8,3.5-3.4c13.5,3.8,27.1,7.6,40.6,11.4
		c4.6,1.3,9.2,3,14,0.4c1.8-1,3.5-2,4.5-3.8c0.7-1.3,1.8-2,3.2-1.9c7.7,0.6,15.1,1.8,20.7,8c2,2.3,0.3,3.1-1.3,4.1
		c-7.9,5-16.4,4-25,2.6c-19.1-3.1-38.2-5.8-57.2-8.9C406.6,580.1,401.3,579.9,396.3,578.1z"/>
	<path class="st7" d="M289.2,393.2c8.4-3.8,17-7.2,26.1-9.1c3.6,10.2,9.9,17.8,21.3,22.2c-6.6,2.4-12.3,4.7-18.1,6.7
		c-9.7,3.4-19,7.9-29.1,10.2l-0.2-0.3c0.6-4.4,2.8-8.4,3.2-12.9C292.8,404.1,291,398.6,289.2,393.2z M317.3,401.6
		c-0.5-1.7-1.4-3.7-3.9-2.9c-4.4,1.4-8.7,3.1-12.9,5c-1.5,0.7-2.7,2.2-1.7,4.1c0.9,1.7,2.3,2.8,4.5,1.9c3.8-1.5,7.7-2.9,11.6-4.3
		C316.4,404.7,317.4,403.7,317.3,401.6z"/>
	<path class="st11" d="M256.3,379.4c15.1-1,26.9,7.3,30,21.1c3.1,13.5-4.6,26.7-18,30.7c-12.8,3.9-27.1-2.9-32-15.2
		c-4.2-10.6-1.4-20.1,4.9-28.9l0,0c1-0.3,1.7-1,2-2l0,0c0.3-0.3,0.7-0.7,1-1l0,0c0.3,0,0.7,0,1-0.1
		C249,382.5,252.7,380.9,256.3,379.4z M261.1,427.2c11.7,0,21.1-9.2,21.1-20.7c0-11-9.9-20.6-21-20.5c-11.2,0.1-20.6,9.5-20.7,20.7
		C240.2,418.1,249.4,427.2,261.1,427.2z"/>
	<path class="st11" d="M333.3,350.1c6-0.6,11.8-2.8,18.1-1c12.4,3.6,21.1,15.8,19.8,28.7c-1.3,12.6-11.8,22.6-23.9,23.4
		c-16,1.1-26.2-11-28.2-21.5c-1.5-7.7,0.4-14.4,4.6-20.7c0.6-0.9,1.6-1.7,1.6-3l0,0c2.1-0.9,3.9-2,5-4l0,0
		C331.7,352,332.9,351.6,333.3,350.1L333.3,350.1z M366.2,375.9c-0.2-11.3-10.2-21-21.4-20.7c-10.9,0.3-20.7,10.4-20.4,21.2
		c0.3,11,10.3,20.8,21.1,20.5C356.6,396.6,366.3,386.7,366.2,375.9z"/>
	<path class="st6" d="M571.2,133.1c-17.9-5.1-35.7-10.2-53.6-15.3c-0.7-5,0.2-10.1-1-15c6,1.5,12.1,2.6,17.9,4.6
		c10.8,3.8,22.9,4.2,31.9,12.6l-0.1-0.1c0.3,1.7,1.5,2.8,2.7,3.8C570,126.8,571.1,129.8,571.2,133.1z"/>
	<path class="st13" d="M516.6,102.8c1.2,5,0.4,10,1,15c-0.6,5.1-0.3,10.2-0.1,15.3c-1.4,51.5-8.8,102.3-16.2,153.1
		c-1.9-5.2,0.1-10.5,0.4-15.6c1.2-17.9,3.1-35.7,4.7-53.5c1.6-18.2,3.3-36.3,4.7-54.5c1.2-15.9,2.2-31.8,3.2-47.7
		c0.3-5,0.7-9.9,1-14.9C515.8,100.9,516.2,101.9,516.6,102.8z"/>
	<path class="st10" d="M375.4,366.9c0.8,0.5,1.8,0.8,2.5,1.5c15.9,15.4,31.7,31,46.4,47.7c-4.5,2.4-7.9-0.2-11.1-2.7
		c-3.1-2.4-5.8-5.5-9-7.8c-4.9-3.5-9.5-7.8-16-8.5c-5-2.1-10.1-4.1-15.8-5.3c4.2-8.1,4.6-16.2,2.7-24.6L375.4,366.9z"/>
	<path class="st10" d="M227.4,493c0.2-24.7,1.9-49.3,5-74.5c3,4.1,4.6,8.5,8.2,11.4c1.9,1.5,3.8,3.3,6.1,4.3
		c3.6,1.5,3.8,3.1,1.6,6.2c-3.1,4.4-6,9.1-7.1,14.6c-2.2,0.5-2.3,2.5-3,4.2c-3.9,9.7-5.8,19.8-6.8,30.1
		C231.1,491.9,230.2,493.3,227.4,493z"/>
	<path class="st12" d="M476.4,545c8.4,0.3,16.4,3.2,24.9,3c-0.2,7.1-2.2,14-3.4,21c-0.4,2.3-1.7,3.4-4.2,3.1
		c-5.6-0.8-11.1-1.4-16.7-2.3c-2.5-0.4-2.9-2.4-2.7-4.6C475,558.5,475.7,551.7,476.4,545z"/>
	<path class="st5" d="M247.4,366c23.9-8.7,47.8-17.3,71.6-26c5.4-2,8-8.8,6.9-15.6c-1.7-11-3.2-21.9-4.8-32.9c3.4,1.7,4.3,5,4.8,8.3
		c1.5,9.4,2.8,18.8,4,28.2c1.2,9.2-1,12.7-9.6,15.9c-21.1,7.7-42.2,15.4-63.2,23.2C253.7,368.3,250.4,368.8,247.4,366z"/>
	<path class="st8" d="M229.8,323.9c12.7,5.2,18.7,14.1,18.5,27.3c-0.1,4.4-1.5,8-5.3,10.4c-6.5-8.6-11.9-18-17.4-27.2
		C223,329.7,223.1,325,229.8,323.9z"/>
	<path class="st5" d="M517.5,559c5.5-0.3,11-0.7,16.5-1c-0.9,6.7-1.8,13.5-2.8,20.2c-0.4,2.4-1.8,4-4.2,4.2
		c-4.1,0.3-8.3,0.4-12.4,0.6c-2,0.1-2.1-1-1.7-2.5C514.3,573.3,515.9,566.1,517.5,559z"/>
	<path class="st7" d="M388.2,397.1c6.5,0.7,11.1,4.9,16,8.5c3.2,2.3,5.8,5.4,9,7.8c3.2,2.5,6.6,5.1,11.1,2.7
		c5.9,5.8,10,13.3,17.3,17.7c1.9,1.1,1.2,1.8-0.1,2.8c-3.4,2.7-9.1,2.3-12.7-1.4c-6.4-6.5-12.7-13.2-18.8-19.9
		C403.6,408.1,395.6,403,388.2,397.1z"/>
	<path class="st14" d="M369.8,552.1c-13.5-2.8-23.7-10.7-32.9-21.7c-4.3,8.8-8.4,17-12.3,25.3c-1,2.1,0.1,4.2,0.7,6.3
		c-4.6-1.3-5-4.7-3.3-8.2c4.2-8.9,8.7-17.6,13-26.4c1.4-2.9,3.4-3.6,5.9-1.3C350.5,534.8,360.7,542.8,369.8,552.1z"/>
	<path class="st7" d="M227.4,493c2.8,0.3,3.7-1.1,4-3.7c0.9-10.3,2.9-20.4,6.8-30.1c0.7-1.7,0.8-3.6,3-4.2
		c-4,15.8-5.1,31.9-4.9,48.1c0.1,8.1-2.6,11.1-11.7,12.9C228.6,508.4,226.8,500.6,227.4,493z"/>
	<path class="st14" d="M516.6,102.8c-0.4-0.9-0.8-1.9-1.3-2.8c0-1.8,0.2-3.4,2.8-2.6c12.1,3.6,24.4,6.7,36.3,10.9
		c5.4,1.9,10.7,5,11.9,11.8c-8.9-8.4-21.1-8.8-31.9-12.6C528.7,105.4,522.6,104.3,516.6,102.8z"/>
	<path class="st10" d="M342.3,275.2c8.7-4.3,17.7-7.6,27.7-5.3c1.1,0.3,2.3,0.4,3.1,1.3c0.7,0.7,1.3,1.6,1.1,2.6
		c-0.3,1.3-1.4,1.2-2.4,1.2c-10,0.2-19.5,3.1-29.3,4.9C342.4,278.4,342.3,276.8,342.3,275.2z"/>
	<path class="st10" d="M173.3,342.2c6.4-8.3,15.5-11.7,25.2-13.9c1.6-0.4,3.1-0.1,3.7,1.7c0.6,1.8-1.1,2.2-2.2,2.8
		c-8.3,4.5-16.8,8.8-24.4,14.5C174.8,345.5,174,343.8,173.3,342.2z"/>
	<path class="st13" d="M336.3,332.2c-0.7,0.1-1.4,0.2-2,0.3c-1.3-8.6-2.6-17.3-4-25.9c-0.8-5.2-0.8-10.5-3.9-15.2
		c-1.4-2.2-0.3-2.9,5.3-3.3C330.2,303.1,334.8,317.5,336.3,332.2z"/>
	<path class="st13" d="M241.5,366.7c-0.5,0.2-0.9,0.3-1.4,0.5c-4.9-7.7-9.9-15.4-14.6-23.2c-2.9-4.9-6-9.5-10.9-12.7
		c0.8-1.8,2.4-1.9,3.7-2.6c1.5-0.8,2.7-0.7,2.7,1.3c0.1,5.6,3.8,9.5,6.4,13.8C232.1,351.5,236.8,359.1,241.5,366.7z"/>
	<path class="st5" d="M572.1,100.8c0.6,1.5,2.1,1.2,3.2,1.5c-4,2.7-8.6,3.6-13.3,3.8c-1-0.3-2.1-0.6-2.3-1.6s1-1.1,1.7-1.3
		C565,102.4,568.6,101.6,572.1,100.8z"/>
	<path class="st15" d="M256.3,379.4c-3.7,1.5-7.4,3.1-11.1,4.6c0-0.4,0-0.7,0-1.1c3.1-3.1,6.9-4.3,11.1-4.8
		C256.3,378.5,256.3,379,256.3,379.4z"/>
	<path class="st14" d="M173.3,342.2c0.7,1.7,1.4,3.3,2.2,5c-0.8,1-1.6,3.4-2.9,2.1C170.4,347,170.4,344.2,173.3,342.2z"/>
	<path class="st14" d="M342.3,275.2c0.1,1.6,0.1,3.2,0.2,4.8c-1.1,0.1-2.5,1.8-3.2-0.3C338.5,277.2,340,275.9,342.3,275.2z"/>
	<path class="st5" d="M169.7,407c0.6,1.7,2.2,3.2,0.5,5.1C169.1,410.5,169.4,408.8,169.7,407z"/>
	<path class="st14" d="M569,123.8c-1.2-1-2.4-2.1-2.7-3.8C569,120,568.2,122.4,569,123.8z"/>
	<path class="st7" d="M289.4,423.2c-0.4,0.2-0.7,0.5-1.1,0.6c0,0-0.2-0.2-0.3-0.3c0.4-0.2,0.8-0.4,1.2-0.6
		C289.2,422.9,289.4,423.2,289.4,423.2z"/>
	<path class="st8" d="M246.3,365.1c0.3,0.3,0.7,0.5,1,0.8C246.7,365.9,246.4,365.6,246.3,365.1z"/>
	<path class="st10" d="M375.1,367.2c-0.1-0.2-0.2-0.4-0.3-0.7c0.2,0.1,0.4,0.3,0.6,0.4L375.1,367.2z"/>
	<path class="st9" d="M503.6,119.1c-1.1,18-2,36.1-3.4,54.1c-1.7,21-3.9,41.9-5.7,62.8c-1.4,16-2.7,32-4.2,48c-0.9,10-2,20-3,30
		c-5.9-3.4-6.7-9.6-7.8-15.2c-3.5-17.1-4.2-34.6-2.9-52c1.4-19.4,1.8-38.9,4.5-58.3c2-14.7,3.3-29.5,7.1-43.9
		c2.2-8.5,6-16.1,10.9-23.3C500.3,119.6,501.6,118.9,503.6,119.1z"/>
	<path class="st0" d="M516.4,354.3c-2.5-0.9-3.2-2.8-2.9-5.1c1-7.2,2.6-14.3,2.9-21.6c0.2-4.1,3.4-6.2,7.3-5.1c3,0.9,7-0.4,8.6,3.7
		c-1,6.2-2,12.4-2.9,18.6C528.1,354.9,530.2,356.8,516.4,354.3z M516.3,348.3c-0.2,3.6-0.1,3.6,5.3,4.6c2.9,0.5,4.7,0.3,5.2-3.3
		c0.8-6.7,1.8-13.5,3.1-20.2c0.7-3.7-1.8-3.9-4.1-4.1c-2.3-0.2-5.6-2-6.3,2.3C518.3,334.5,517.3,341.4,516.3,348.3z"/>
	<path class="st0" d="M513.2,391c-2.9-1.9-3.2-4.8-2.8-7.9c0.6-4.4,1.3-8.8,2-13.1c0.4-2.5,1.9-4.3,4.3-4.9c3.1-0.7,5.5,0.4,6.9,3.4
		c-0.7,5.3-1.5,10.5-2.2,15.8C520.6,390.1,519.3,391.1,513.2,391z M521.3,371.9c0.2-2.1,0.1-4.2-2.4-4.7c-2.8-0.6-3.8,1.4-4.2,3.7
		c-0.8,4.7-1.6,9.4-2.2,14.2c-0.3,2.1,0.7,3.6,2.8,4c2.2,0.4,3.5-1,3.8-3C520,381.3,520.6,376.6,521.3,371.9z"/>
	<path class="st11" d="M499.5,495.3c-0.7,4.9-1.5,10-2.3,15.1c-0.3,1.7-1.2,2.9-3,2.4c-1.5-0.4-1.9-1.6-1.6-3.2
		c0.9-5,1.7-10.1,2.6-15.2c0.3-1.8,0-4.3,2.5-4.1C500.7,490.6,498.9,493.5,499.5,495.3z"/>
	<path class="st14" d="M516.4,354.3c13.8,2.5,11.7,0.6,13.2-9.6c0.9-6.2,1.9-12.4,2.9-18.6c1.6,1.1,1.6,2.6,1.3,4.4
		c-1,6.4-1.8,12.8-3,19.1c-0.5,2.6,0,6.4-3.5,7C523.6,357.4,519.4,357.7,516.4,354.3z"/>
	<path class="st11" d="M497.5,477.8c0.6-4.1,1.2-8.1,1.8-12.2c0.3-1.6,1.1-2.9,3-2.5c1.5,0.3,2,1.6,1.7,3.1
		c-0.6,4.1-1.2,8.1-1.9,12.2c-0.3,1.6-1.1,2.8-2.9,2.7C497.2,480.9,497.3,479.3,497.5,477.8z"/>
	<path class="st14" d="M513.2,391c6.1,0.1,7.4-1,8.2-6.7c0.7-5.3,1.5-10.5,2.2-15.8c0.9,0.8,1.6,1.8,1.4,3
		c-0.9,5.6-1.5,11.2-2.8,16.6C521.1,392.9,517.6,393.9,513.2,391z"/>
	<path class="st15" d="M363.2,333.8c-1.4,0.5-2.7,1.2-4.2,1.5c-4.9,1.1-9.1-1-11.1-5.3c-1.9-4.1-0.7-8.8,2.9-11.6
		c3.7-2.8,8.4-2.6,12.3,0.6c0.8,0.6,1.5,1.3,2.2,2C367.3,325.7,366.3,329.9,363.2,333.8z M363.2,326.1c0.1-3.6-3.1-6.8-6.6-6.6
		c-3.8,0.3-6.2,2.4-6.3,6.4c-0.1,3.9,2.3,6.1,6.1,6.5C359.9,332.9,363.2,329.7,363.2,326.1z"/>
	<path class="st15" d="M371.2,312c-5.2,0.9-9.8,0.2-12.3-5c-2-4.2-1.3-8.2,2.2-11.3c3.5-3.1,7.5-3.4,11.5-0.9
		c1.4,0.9,2.5,2.2,3.7,3.3C378.2,304,376.8,308.8,371.2,312z M367,309.2c4.2,0,7.4-3.2,7-6.7c-0.4-3.8-2.7-6-6.5-6.2
		c-3.6-0.2-6.6,3.1-6.4,6.8C361.3,307,363.7,308.9,367,309.2z"/>
	<path class="st15" d="M400.6,313.6c0,5.7-4.2,9.6-10,9.5c-5.3-0.1-9.5-4.3-9.5-9.6c0-5.3,4.2-9.5,9.5-9.6
		C396.1,303.9,400.6,308.3,400.6,313.6z M390.4,320c4.2-0.1,7.2-3.3,6.8-6.9c-0.4-3.8-2.7-6-6.6-6c-3.7,0-6.6,3.2-6.3,6.9
		C384.7,317.8,387.1,319.7,390.4,320z"/>
	<path class="st15" d="M386.2,344.7c-2.5,1.4-5.3,2-8.1,1.4c-4-0.7-6.5-3.3-7.4-7.1c-1-4.1,0.4-7.5,3.7-10c3.2-2.4,6.8-2.6,10.2-0.6
		c1.5,0.9,2.7,2.3,4.1,3.5c-0.1,0.5,0.1,0.9,0.7,1v0.1C390,337.4,389.3,341.4,386.2,344.7z M386.5,336.7c-0.4-4-2.6-6.1-6.4-6.4
		c-3.5-0.2-6.7,3.1-6.6,6.7s3.3,6.6,6.9,6.2C384.3,342.8,386.2,340.4,386.5,336.7z"/>
	<path class="st15" d="M348.4,302.6c0.3,3.8-1.1,6-4.2,6.3c-2.9,0.3-4.6-1.5-5.1-4.3c-0.4-2.4-0.8-4.9-0.9-7.4s1.3-4.1,3.7-4.5
		c2.7-0.5,4.6,0.7,5.3,3.3C347.9,298.3,348.1,300.8,348.4,302.6z M345.2,302.3c-0.9-1.9,0.7-5.4-2.6-6.4c-1.3-0.4-1.5,1.5-1.2,2.6
		c0.6,2.4-0.5,5.8,2.4,6.9C345.3,306.1,345.3,303.9,345.2,302.3z"/>
	<path class="st5" d="M371.2,312c5.6-3.2,7.1-8,5.2-13.9c4.3,1.2,4.5,4.7,3.7,7.9C379,310.4,375.8,312.5,371.2,312z"/>
	<path class="st5" d="M386.2,344.7c3.1-3.4,3.8-7.4,3.2-11.7c3.8,1.3,4.4,4.3,3,7.4C391.4,342.7,390.4,346.4,386.2,344.7z"/>
	<path class="st5" d="M363.2,333.8c3.1-3.9,4-8.1,2.2-12.8c3.9,1.1,4,4.2,3.9,7.4c-0.1,3.2-2.3,4.9-4.7,6.3
		C364,335.1,363.4,334.5,363.2,333.8z"/>
	<path class="st5" d="M389.4,332.9c-0.6-0.1-0.8-0.4-0.7-1C388.9,332.3,389.1,332.6,389.4,332.9z"/>
	<path class="st15" d="M197,393.8c-5.5,4.5-13.5,6.7-16,4.7c-2.3-1.8-5.5-12.8-4.4-14.7c1.3-2.2,10.9-5.6,13.6-4.8
		c6.9,2,9,4.9,8.2,11.6c2.7-1.9,4.6-5.4,8.3-3.6c2.8,1.3,6.4,1.4,8,4.5c1.5,2.9,2.5,6.1,3.7,9.2c0.1,0.1,0.1,0.3,0,0.5
		c-0.9,6.6-6.9,5.6-11,7.4c-3.1,1.4-6,0.6-7.1-3C199.2,401.9,196.9,398.5,197,393.8z M195.3,385.6c-1.9-1.6-4.5-4.1-7.5-3.4
		s-8.2,0.5-8.1,4.6c0,3.1,0.4,8.4,4.8,9.2C189.1,396.8,195.7,390.4,195.3,385.6z M215.1,401.7c-0.4-6.1-6.2-12.7-9.9-11.7
		c-3.2,0.9-4.6,4.6-4.2,7.1c0.5,3.1,0.5,8.4,4.8,8.5C208.9,405.7,212.9,404.3,215.1,401.7z"/>
	<path class="st15" d="M207.3,372.1c-1.8,0-1.8,1.7-2.4,2.8c-1.4,2.5-2.5,5.8-5.9,5c-3.7-0.9-8-1.5-10.1-5.5
		c-5.3-10.2-2-16,9.7-17.1c2.3-0.2,3.8,0.9,4.8,2.8c2,3.8,3.4,7.8,3.8,12.1C207.2,372.2,207.3,372.1,207.3,372.1z M199.3,360.5
		c-4.5,0.3-10.3,3.8-10.1,5.7c0.6,5.1,5.5,11,9.4,10.4c3.6-0.6,4.7-4.5,4.5-7.2C202.8,366.2,202,362.4,199.3,360.5z"/>
	<path class="st15" d="M225.4,371c0.1,0.6,0.1,1.3,0.3,1.9c3.2,9.5,3.2,9.5-5.4,14c-0.6,0.1-1.3,0.2-1.9,0.4c-0.9-0.3-1.6,0-2.2,0.6
		c-1.7-0.1-3.2-0.9-4.6-1.6c-7.1-3.6-7.3-4.1-4.6-11.4c0.3-0.9,0.9-1.8,0.4-2.8l-0.1,0.1c2.9-1.9,6.2-2.7,9.3-4.2
		C220.6,366,223.4,367.1,225.4,371z M224.8,380.6c0.2-2.4-3.7-10.3-4.8-10.4c-4-0.5-11.2,5.1-11.2,9.3c0,4,4.3,4.8,6.8,4.9
		C218.8,384.4,222.5,383,224.8,380.6z"/>
	<path class="st15" d="M211.2,340.6c5.4,1.1,9.2,6.2,9.2,12.5c-4,4-6.2,3.9-9.3-0.6c-1.2-1.8-2.4-3.5-3.2-5.5
		C206.6,343.8,208.2,341.7,211.2,340.6z M217.4,351.2c0.1-1.4-4-7.4-5.1-7.4c-0.9,0-1.5,0.5-1.6,1.5c-0.1,1.1,4.3,7.4,5.2,7.5
		C216.8,352.8,217.2,352.1,217.4,351.2z"/>
	<path class="st5" d="M216.1,387.9c0.6-0.6,1.3-0.9,2.2-0.6C217.8,388.1,217,388.2,216.1,387.9z"/>
	<path class="st5" d="M580.3,102.2c7.2-1.8,14.5-3.6,21.7-5.6c3.1-0.9,3.9,0.4,3.3,2.9c-3.2,13.2-5,26.6-8.9,39.6
		c-2.1-3.2-0.7-6.8-1-10.2c-0.7-8.6-2.3-16.8-9.4-22.7C584.1,104.7,582.2,103.5,580.3,102.2z"/>
	<path class="st5" d="M596.1,143c-0.2,0.4-0.5,0.8-0.7,1.1C595.6,143.7,595.8,143.4,596.1,143z"/>
	<path class="st15" d="M289.6,376.2c1.6,0.1,2.9,1.2,3.2,2.6c0.3,1.5-1.1,2.1-2.5,2.2c-1.5,0.1-2.6-0.5-2.8-2
		C287.2,377.4,288.2,376.6,289.6,376.2z"/>
	<path class="st0" d="M294.7,371.7c-0.3,1.3-1,2.1-2.4,2.2c-1.6,0.1-2.7-0.6-2.8-2.2c-0.1-1.5,0.8-2.6,2.4-2.5
		C293.3,369.4,294.1,370.6,294.7,371.7z"/>
	<path class="st0" d="M302.2,368.6c0.1,1.5-0.5,2.4-1.9,2.4c-1.5,0-2.6-0.7-2.6-2.2c0.1-1.1,0.7-2.3,2-2.4
		C301.4,366.1,301.9,367.3,302.2,368.6z"/>
	<path class="st0" d="M298,373.4c1.4,0.1,2,1,2.2,2.3c0.2,1.3-0.3,2.3-1.8,2.3c-1.3,0-2.4-0.4-2.6-1.8
		C295.5,374.6,296.7,373.9,298,373.4z"/>
	<path class="st0" d="M286.1,374.9c-0.2,1.4-1,2-2.3,2.1c-1.6,0.2-2.5-0.6-2.5-2.2c0-1.3,0.6-2.3,2-2.3
		C284.8,372.4,285.5,373.7,286.1,374.9z"/>
	<path class="st0" d="M306.9,375c-1.8-0.1-2.7-1-2.6-2.5c0.1-1.3,0.9-2.2,2.2-2.1c1.3,0.2,2.4,1.3,2.5,2.6
		C309.1,374.4,307.8,374.7,306.9,375z"/>
	<path class="st0" d="M311.1,365.8c-0.1,1.4-1,2-2.2,2.1c-1.6,0.1-2.5-0.7-2.6-2.2c0-1.2,0.6-2.3,2-2.3
		C309.8,363.4,310.4,364.7,311.1,365.8z"/>
	<path class="st0" d="M330.3,352.1c-1.1,2-3,3.2-5,4C325.7,353.2,327.5,352,330.3,352.1z"/>
	<path class="st0" d="M333.3,350.1c-0.5,1.5-1.6,2-3,2C330.7,350.5,331.8,350,333.3,350.1z"/>
	<path class="st0" d="M243.3,385.1c-0.3,1.1-1,1.7-2,2C241.1,385.6,241.9,385,243.3,385.1z"/>
	<path class="st0" d="M244.3,384c-0.3,0.3-0.7,0.7-1,1C243.3,384.4,243.7,384.1,244.3,384z"/>
	<path class="st0" d="M245.3,382.9c0,0.4,0,0.7,0,1.1c-0.3,0-0.7,0-1,0.1C244.6,383.7,244.9,383.3,245.3,382.9z"/>
	<path class="st0" d="M317.3,401.6c0.1,2.1-0.9,3.1-2.4,3.7c-3.9,1.5-7.7,2.8-11.6,4.3c-2.2,0.9-3.6-0.2-4.5-1.9
		c-1.1-1.9,0.2-3.4,1.7-4.1c4.2-1.9,8.5-3.5,12.9-5C315.9,397.8,316.8,399.8,317.3,401.6z M315.1,401.6c-4.9-0.2-9.1,2.1-13.4,3.7
		c-0.5,0.2-1.2,0.8-0.7,1.5c0.2,0.4,0.9,0.8,1.1,0.7C306.6,405.9,311.4,405,315.1,401.6z"/>
	<path class="st0" d="M261.1,427.2c-11.7,0-20.8-9.1-20.7-20.4c0.2-11.3,9.6-20.6,20.7-20.7c11.1-0.1,21,9.5,21,20.5
		C282.2,418,272.7,427.3,261.1,427.2z M250.3,417c5.6,5.4,12.4,6.5,18.4,2.8c5.8-3.5,8.7-10.4,7.1-16.6c-2-7.4-7.2-11.1-15.5-11.2
		c-6.5-0.2-10.7,3.4-13,9C244.9,406.8,245.4,412.4,250.3,417z"/>
	<path class="st0" d="M366.2,375.9c0.2,10.9-9.5,20.7-20.6,21c-10.8,0.3-20.8-9.5-21.1-20.5c-0.3-10.8,9.5-20.9,20.4-21.2
		C356,354.9,366,364.6,366.2,375.9z M344.3,361.1c-6.4,0-10.7,3.5-13,9.1c-2.4,5.8-1.6,11.4,3,16.1c6.4,5.5,12.7,6.4,19,2.4
		c5.7-3.6,8.3-10.4,6.4-16.8C357.5,364.6,352.6,361.2,344.3,361.1z"/>
	<path class="st5" d="M516.3,348.3c1-6.9,2-13.8,3.1-20.7c0.7-4.3,4-2.5,6.3-2.3c2.2,0.2,4.7,0.4,4.1,4.1
		c-1.2,6.7-2.3,13.4-3.1,20.2c-0.4,3.6-2.3,3.8-5.2,3.3C516.2,351.9,516.1,351.9,516.3,348.3z M527.3,330.3c0.8-1.9-0.8-2.2-2.6-2.7
		c-2.2-0.6-3,0.3-3.2,2.4c-0.8,5.7-1.6,11.5-2.6,17.2c-0.4,2.3,0.2,2.9,2.3,3.1c2,0.3,3,0,3.3-2.3
		C525.2,342.2,526.2,336.5,527.3,330.3z"/>
	<path class="st5" d="M521.3,371.9c-0.7,4.7-1.3,9.5-2.2,14.2c-0.3,1.9-1.6,3.4-3.8,3c-2.1-0.4-3.1-2-2.8-4
		c0.7-4.7,1.4-9.5,2.2-14.2c0.4-2.3,1.4-4.3,4.2-3.7C521.4,367.7,521.6,369.7,521.3,371.9z M519.3,372.4c-0.2-1.2,0.9-3.1-1.2-3.2
		c-1.4-0.1-1.4,1.5-1.6,2.7c-0.7,4.2-1.3,8.5-2,12.7c-0.1,1-0.2,2.1,1.1,2.3c1.4,0.2,1.5-0.9,1.7-1.9
		C518,380.8,518.6,376.5,519.3,372.4z"/>
	<path class="st8" d="M363.2,326.1c-0.1,3.6-3.3,6.7-6.8,6.4c-3.8-0.4-6.1-2.6-6.1-6.5c0.1-3.9,2.5-6.1,6.3-6.4
		C360.1,319.3,363.3,322.6,363.2,326.1z M360.4,325.8c-0.7-1.2-0.4-4-3.2-3.7c-1.9,0.2-4.8,0.4-4.4,3.5c0.2,1.7,0.4,4.5,3.2,4.2
		C357.9,329.7,360.6,329.5,360.4,325.8z"/>
	<path class="st8" d="M367,309.2c-3.3-0.3-5.6-2.2-5.9-6.2c-0.2-3.7,2.8-6.9,6.4-6.8c3.8,0.2,6.1,2.4,6.5,6.2
		C374.3,306,371.2,309.2,367,309.2z M365,303.3c-0.4,1.3-0.7,2.7,1,2.7c2,0,4.4-0.5,4.9-2.5c0.5-2.1-1.9-3-3.6-3.4
		C364.7,299.6,365.6,302.2,365,303.3z"/>
	<path class="st8" d="M390.4,320c-3.3-0.3-5.7-2.2-6-6.1c-0.4-3.7,2.6-6.9,6.3-6.9c3.9,0,6.2,2.2,6.6,6
		C397.6,316.7,394.5,319.9,390.4,320z M388.2,317.1c1.4,1.4,2.8,1.3,4.3,0.2c1.1-0.2,1.8-0.9,2.1-2c1-1.5,1.1-2.9-0.2-4.3
		c-0.3-0.3-0.7-0.7-1-1c-1.7-1.4-3.4-1.5-5.1,0c-0.3,0.3-0.7,0.7-1,1c-1.4,1.7-1.4,3.4,0,5.1C387.6,316.5,387.9,316.8,388.2,317.1z"
		/>
	<path class="st8" d="M386.5,336.7c-0.2,3.8-2.1,6.2-6,6.5c-3.7,0.3-6.8-2.6-6.9-6.2s3-6.9,6.6-6.7
		C383.8,330.5,386,332.7,386.5,336.7z M381.2,334c-1.1,1.3-3,0.8-4.3,1.6c1.1,2.7,2.2,5.1,5.8,3c-0.9-1.3-1.6-2.7-1.2-4.4
		c0.1-0.2,0.2-0.4,0.3-0.6C381.6,333.7,381.4,333.8,381.2,334z"/>
	<path class="st8" d="M345.2,302.3c0.1,1.7,0.1,3.8-1.4,3.2c-2.9-1.2-1.9-4.5-2.4-6.9c-0.3-1.1,0-3,1.2-2.6
		C345.9,296.9,344.3,300.4,345.2,302.3z"/>
	<path class="st8" d="M195.3,385.6c0.3,4.8-6.3,11.2-10.9,10.3c-4.4-0.8-4.8-6.1-4.8-9.2c0-4.1,5.2-3.8,8.1-4.6
		C190.8,381.5,193.4,384,195.3,385.6z"/>
	<path class="st8" d="M215.1,401.7c-2.1,2.6-6.2,4-9.4,3.9c-4.3-0.2-4.3-5.4-4.8-8.5c-0.4-2.5,1-6.2,4.2-7.1
		C208.9,389,214.7,395.7,215.1,401.7z"/>
	<path class="st8" d="M199.3,360.5c2.7,1.9,3.5,5.7,3.7,8.9c0.2,2.7-0.9,6.7-4.5,7.2c-3.9,0.6-8.8-5.3-9.4-10.4
		C189,364.3,194.8,360.7,199.3,360.5z"/>
	<path class="st8" d="M224.8,380.6c-2.3,2.4-6,3.8-9.2,3.7c-2.5-0.1-6.8-0.8-6.8-4.9c0-4.2,7.3-9.8,11.2-9.3
		C221.1,370.3,225,378.2,224.8,380.6z M219.1,378.9c1.1-0.1,1.8-0.8,2-1.8c0.1-1.3-0.9-1.6-1.9-1.7c-1-0.2-1.6,0.3-1.6,1.3
		C217.5,377.6,218,378.5,219.1,378.9z"/>
	<path class="st8" d="M217.4,351.2c-0.2,0.9-0.6,1.5-1.6,1.5c-0.9,0-5.3-6.4-5.2-7.5c0.1-0.9,0.7-1.5,1.6-1.5
		C213.4,343.8,217.5,349.9,217.4,351.2z"/>
	<path class="st9" d="M315.1,401.6c-3.7,3.4-8.5,4.3-13,6c-0.3,0.1-0.9-0.4-1.1-0.7c-0.5-0.8,0.2-1.4,0.7-1.5
		C306,403.7,310.1,401.3,315.1,401.6z"/>
	<path class="st10" d="M260.4,392.1c8.3,0,13.5,3.8,15.5,11.2c1.7,6.2-1.3,13.1-7.1,16.6c-6.1,3.7-12.9,2.6-18.4-2.8
		C245.5,405.3,249.9,396.7,260.4,392.1z M271.2,407c0-5-4.9-9.9-9.9-9.9c-5.3,0-9.8,4.5-9.9,9.8c-0.1,5,4.9,10.2,9.8,10
		C266.3,416.7,271.2,411.9,271.2,407z"/>
	<path class="st14" d="M260.4,392.1c-10.4,4.6-14.8,13.2-10.1,25c-4.9-4.6-5.4-10.2-3-16C249.6,395.4,253.8,391.9,260.4,392.1z"/>
	<path class="st10" d="M344.3,361.1c8.3,0.1,13.2,3.5,15.3,10.7c1.9,6.4-0.6,13.2-6.4,16.8c-6.3,4-12.6,3.2-19-2.4
		c-0.5-3.7-2.3-7.1-1.7-11.1C333.8,368,338.3,364,344.3,361.1z M345.4,366.1c-5,0-10.1,5-10,9.8c0.1,5.2,4.8,10,9.8,10
		c5.2,0.1,10.1-5,10-10.4C355.1,370.9,350.2,366.1,345.4,366.1z"/>
	<path class="st14" d="M344.3,361.1c-6,3-10.6,7-11.7,14.1c-0.6,4,1.2,7.4,1.7,11.1c-4.6-4.7-5.4-10.3-3-16.1
		C333.7,364.6,337.9,361.1,344.3,361.1z"/>
	<path class="st0" d="M527.3,330.3c-1,6.3-2,12-2.8,17.7c-0.3,2.3-1.3,2.5-3.3,2.3c-2.1-0.3-2.8-0.9-2.3-3.1
		c1.1-5.7,1.8-11.4,2.6-17.2c0.3-2,1-3,3.2-2.4C526.5,328,528.1,328.4,527.3,330.3z"/>
	<path class="st0" d="M519.3,372.4c-0.7,4.2-1.3,8.4-2,12.6c-0.2,1-0.3,2.1-1.7,1.9c-1.3-0.2-1.3-1.3-1.1-2.3
		c0.6-4.2,1.3-8.5,2-12.7c0.2-1.1,0.2-2.7,1.6-2.7C520.2,369.3,519.1,371.2,519.3,372.4z"/>
	<path class="st9" d="M360.4,325.8c0.2,3.7-2.5,3.8-4.4,4c-2.8,0.3-3-2.5-3.2-4.2c-0.4-3.1,2.4-3.3,4.4-3.5
		C360,321.9,359.7,324.6,360.4,325.8z M358.4,326.2c-0.1-1.1-0.3-2.1-1.6-2c-1.1,0-1.7,0.8-1.6,2c0.1,0.8,0.3,1.7,1.4,1.7
		C357.7,328,358.3,327.4,358.4,326.2z"/>
	<path class="st9" d="M365,303.3c0.6-1.2-0.3-3.8,2.4-3.2c1.7,0.3,4,1.3,3.6,3.4c-0.5,2-2.9,2.5-4.9,2.5
		C364.3,306,364.6,304.6,365,303.3z"/>
	<path class="st9" d="M387.2,316.1c-1.4-1.7-1.4-3.4,0-5.1l0.3,0.3c0,1.5,0,3.1,0,4.6C387.5,315.9,387.2,316.1,387.2,316.1z"/>
	<path class="st9" d="M388.2,310c1.7-1.5,3.4-1.4,5.1,0l-0.2,0.3c-1.5,0-3.1,0-4.6,0L388.2,310z"/>
	<path class="st9" d="M394.3,311c1.4,1.4,1.3,2.8,0.2,4.3c-0.2-0.1-0.3-0.3-0.5-0.4c0-1.2,0-2.5,0-3.7L394.3,311z"/>
	<path class="st9" d="M392.5,317.3c-1.5,1.1-2.9,1.2-4.3-0.2l0.2-0.3c1.2,0,2.5,0,3.7,0C392.3,317,392.4,317.2,392.5,317.3z"/>
	<path class="st9" d="M394.6,315.3c-0.2,1.1-0.9,1.8-2.1,2c-0.1-0.2-0.3-0.3-0.4-0.5c0.6-0.7,1.3-1.3,1.9-2
		C394.3,315,394.4,315.2,394.6,315.3z"/>
	<path class="st9" d="M388.2,317.1c-0.3-0.3-0.7-0.7-1-1l0.3-0.3c0.3,0.3,0.6,0.7,0.9,1L388.2,317.1z"/>
	<path class="st9" d="M393.4,310c0.3,0.3,0.7,0.7,1,1c0,0-0.3,0.2-0.2,0.2c-0.3-0.3-0.6-0.6-1-0.9L393.4,310z"/>
	<path class="st9" d="M387.2,311c0.3-0.3,0.7-0.7,1-1l0.3,0.3c-0.3,0.3-0.6,0.6-0.9,1L387.2,311z"/>
	<path class="st9" d="M381.4,334.2c-0.4,1.7,0.3,3.1,1.2,4.4c-3.5,2-4.7-0.4-5.8-3c1.3-0.8,3.2-0.3,4.3-1.6L381.4,334.2z"/>
	<path class="st9" d="M381.2,334c0.2-0.1,0.4-0.2,0.6-0.3c-0.1,0.2-0.2,0.4-0.3,0.6C381.4,334.2,381.2,334,381.2,334z"/>
	<path class="st9" d="M219.1,378.9c-1.1-0.4-1.5-1.3-1.6-2.3c0-1,0.6-1.5,1.6-1.3s2.1,0.5,1.9,1.7
		C220.9,378.1,220.2,378.8,219.1,378.9z"/>
	<path class="st0" d="M271.2,407c0,4.9-4.8,9.7-10.1,9.9c-4.8,0.1-9.9-5-9.8-10c0.1-5.3,4.7-9.7,9.9-9.8
		C266.3,397.1,271.2,401.9,271.2,407z M267.4,407.1c0.2-4.1-2.3-6.2-6-6.7c-3.4-0.5-6.2,2.6-6.2,6.3c0,3.7,1.9,5.9,5.7,6.3
		C264.5,413.4,267.3,410.8,267.4,407.1z"/>
	<path class="st0" d="M345.4,366.1c4.8,0,9.7,4.8,9.8,9.5c0.1,5.3-4.8,10.4-10,10.4c-5-0.1-9.7-4.8-9.8-10
		C335.3,371.1,340.4,366,345.4,366.1z M345.9,382.2c3.4-0.6,5.7-2.5,5.5-6.6c-0.2-4.1-2.6-5.9-6.5-5.7c-3.8,0.2-5.7,2.4-5.6,6.1
		C339.3,380.1,341.6,381.9,345.9,382.2z"/>
	<path class="st8" d="M358.4,326.2c-0.1,1.2-0.7,1.8-1.9,1.7c-1-0.1-1.3-0.9-1.4-1.7c-0.1-1.2,0.5-2,1.6-2
		C358.1,324.1,358.4,325.1,358.4,326.2z"/>
	<path class="st8" d="M387.5,311.3c0.3-0.3,0.6-0.6,0.9-1c1.5,0,3.1,0,4.6,0c0.3,0.3,0.6,0.6,1,0.9c0,1.2,0,2.5,0,3.7
		c-0.6,0.7-1.3,1.3-1.9,2c-1.2,0-2.5,0-3.7,0c-0.3-0.3-0.6-0.7-0.9-1C387.5,314.3,387.5,312.8,387.5,311.3z"/>
	<path class="st10" d="M267.4,407.1c-0.1,3.7-2.9,6.3-6.5,5.9c-3.7-0.3-5.7-2.5-5.7-6.3s2.8-6.8,6.2-6.3
		C265,401,267.5,403,267.4,407.1z"/>
	<path class="st10" d="M345.9,382.2c-4.2-0.3-6.6-2.1-6.7-6.2c-0.1-3.7,1.8-5.9,5.6-6.1c3.9-0.2,6.3,1.6,6.5,5.7
		C351.6,379.7,349.3,381.6,345.9,382.2z"/>
</g>
</svg>
