<?xml version="1.0" encoding="utf-8"?>
<!-- Generator: Adobe Illustrator 22.1.0, SVG Export Plug-In . SVG Version: 6.00 Build 0)  -->
<svg version="1.1" id="Layer_1" xmlns="http://www.w3.org/2000/svg" xmlns:xlink="http://www.w3.org/1999/xlink" x="0px" y="0px"
	 viewBox="0 0 595.3 841.9" style="enable-background:new 0 0 595.3 841.9;" xml:space="preserve">
<style type="text/css">
	.st0{fill:#2B3772;}
	.st1{fill:#5BC3B6;}
	.st2{fill:#FCB137;}
	.st3{fill:#5EB1E3;}
	.st4{fill:#FFFFFF;}
	.st5{fill:#B7BED4;}
	.st6{fill:#48545F;}
	.st7{fill:#475778;}
	.st8{fill:#EBECF2;}
	.st9{fill:#99A5D2;}
	.st10{fill:#5D6B7C;}
	.st11{fill:#667887;}
	.st12{fill:#374764;}
	.st13{fill:#546BB2;}
	.st14{fill:#A3AAB4;}
	.st15{fill:#34417B;}
</style>
<path class="st0" d="M297.9,163.1c5.3-24.9,23.4-40,42.2-54.4c18.8-14.4,39.9-24.6,61.9-33c8.2-3.1,14.9,1.4,15,10.2
	c0.1,9.3-0.1,18.7-0.3,28c-0.1,2.6,0.6,3.8,3.2,4.5c9.5,2.5,18.9,5.3,28.3,8c1.9,0.6,3.5,0.3,5.4-0.2c15.9-4.2,31.9-8.4,47.8-12.6
	c9.6-2.5,15.5,2.9,13.5,12.6c-10.4,49.3-20.9,98.7-31.3,148c-0.4,1.8-0.6,3.6-0.9,5.4c-1.4,6.3-2.9,12.6-4.2,18.9
	c-6.3,28.9-12.6,57.8-13.8,87.6c-0.9,23.1-3.5,46.2-5.5,69.2c-1,10.9-2.6,21.8-4,32.7c-2.7,16.8-5.4,33.5-8,50.3
	c-3.4,22-6.7,44.1-10.1,66.1c-0.9,5.6-4,8.7-9.6,9c-7.3,0.4-14.6,1-22,0.2c-1.2-0.1-2.2-0.4-3.3,0.5c-10.2,8.9-22,8.6-34.4,6.6
	c-35.8-5.8-71.7-11.3-107.6-16.7c-13-2-25-6.7-37.1-11.6c-6-2.4-8-9-5.1-15.2c2.3-5,4.8-9.9,7.3-14.7c0.8-1.5,1.3-2.8-0.8-3.6
	c-8.7-3.2-10.9-9.5-8.6-17.9c0.2-0.5,0.5-0.9,0.6-1.4c7.2-33,14.3-66,21.4-98.9c0.2-0.9,0.7-2-0.7-2.9
	c-20.7,7.7-41.6,15.3-62.4,23.2c-4.3,1.6-8.5,3.1-13.1,2.7c-3.5-0.4-5.6,1.1-7.5,3.8c-4.1,5.8-6.8,12.2-8.1,19.1
	c-3.6,13.8-4,28-4.1,42.1c-0.1,12.7-6.2,18.7-18.9,18.1c-11.8-0.6-20.7-6.8-28-15.5c-9.8-11.7-15.7-25.5-20-39.8
	c-9.4-31-11.9-62.7-10-94.8c0.1-2.1,0.3-4.4,1.2-6.4c2.5-5.7,4.2-11.2,0.7-17.3c-1.4-2.4,0.2-5.2,2-7.3
	c8.8-10.9,20.3-16.3,34.1-17.1c1.3,1,3.1,1.8,3.8,3.1c1.6,2.8,3.3,1.9,5.3,0.9c38-19.2,77.7-33.8,119.1-43.8c2.3-0.6,4-1.2,3.5-4.2
	c-0.5-3.6,1.4-6,4.5-7.6c8.2-4.4,16.8-7.6,26.2-6.9c4.5,0.3,5.6-1.4,6.4-5.2c3.8-18.4,7.9-36.7,11.9-55.1
	C288.5,207.7,293.2,185.4,297.9,163.1z M74,368.2c-2.9,2.1-2.9,4.9-0.8,7.1c1.3,1.3,2.1-1.1,2.9-2.1c7.6-5.7,16.1-10,24.4-14.5
	c1.1-0.6,2.8-0.9,2.2-2.8c-0.5-1.8-2.1-2.1-3.7-1.7C89.5,356.5,80.4,359.9,74,368.2z M243.2,306c9.7-1.8,19.3-4.7,29.3-4.9
	c1,0,2.1,0.1,2.4-1.2c0.2-1.1-0.3-1.9-1.1-2.6c-0.9-0.9-2-1-3.1-1.3c-10-2.3-18.9,1-27.7,5.3c-2.3,0.7-3.8,2-2.9,4.5
	C240.7,307.8,242.1,306.1,243.2,306z M467,146C467,146,467.1,146.1,467,146c-1.1-6.7-6.5-9.8-11.8-11.7
	c-11.9-4.1-24.2-7.3-36.3-10.9c-2.6-0.8-2.8,0.7-2.8,2.6c-0.3,5-0.7,9.9-1,14.9c-1.1,15.9-2,31.8-3.2,47.7
	c-1.4,18.2-3.1,36.3-4.7,54.5c-1.6,17.8-3.5,35.6-4.7,53.5c-0.4,5.2-2.3,10.4-0.4,15.6c-2.3,14.8-3.5,29.8-4.1,44.8
	c-3,18.5-3.9,37.2-5.8,55.8c-1.3,12-2.1,24.1-3.3,36.1c-1.5,16-3.2,32-4.8,47.9c-1.2,12-2.6,24-3.7,36.1
	c-1.2,12.7-2.2,25.4-3.2,38.1c-0.7,6.7-1.4,13.5-2.1,20.2c-0.2,2.2,0.2,4.2,2.7,4.6c5.5,0.9,11.1,1.5,16.7,2.3
	c2.5,0.4,3.8-0.8,4.2-3.1c1.2-7,3.2-13.8,3.4-21c0.7-2.4,1.5-4.7,2-7.1c8.5-45.9,16.8-91.9,25.3-137.8c6.2-33.4,12.7-66.6,18.7-100
	c8.1-45.5,17.8-90.7,24.6-136.4c1.4-9.5,1.3-19.2-0.1-28.8c-0.1-1.6-0.3-3.2-0.4-4.7c-0.1-3.3-1.2-6.3-2.2-9.3
	C468.9,148.4,469.7,146,467,146z M148,391.9l0.1,0.1c3,2.8,6.3,2.3,9.8,1c21.1-7.8,42.1-15.5,63.2-23.2c8.6-3.2,10.8-6.7,9.6-15.9
	c-1.2-9.4-2.6-18.8-4-28.2c-0.5-3.3-1.4-6.6-4.8-8.3c-1.5-0.8-2.9,0-4.3,0.4c-7.3,2.1-14.7,4.1-21.9,6.4
	c-22.2,7.2-44.2,15.1-65.1,25.6c-6.7,1.1-6.9,5.9-4.2,10.4c5.5,9.3,10.9,18.6,17.4,27.2c0.7,1.5,1.8,2.8,3.3,3.5
	C147.1,391.6,147.4,391.9,148,391.9z M128.1,519c-0.6,7.6,1.2,15.4-2.9,23c9-1.8,11.8-4.8,11.7-12.9c-0.2-16.2,0.9-32.3,4.9-48.1
	c1.1-5.5,4-10.2,7.1-14.6c2.2-3.1,2-4.6-1.6-6.2c-2.2-1-4.1-2.7-6.1-4.3c-3.6-2.9-5.2-7.3-8.2-11.4C130,469.7,128.3,494.3,128.1,519
	z M325,442c-14.7-16.7-30.4-32.2-46.4-47.7c-0.7-0.7-1.7-1-2.5-1.5c-0.2-0.1-0.4-0.3-0.6-0.4c0.1,0.2,0.2,0.4,0.3,0.7
	c1.9,8.3,1.5,16.5-2.7,24.6c5.7,1.2,10.8,3.2,15.8,5.3c7.4,5.8,15.3,11,21.8,18.1c6.2,6.8,12.5,13.4,18.8,19.9
	c3.6,3.7,9.2,4.1,12.7,1.4c1.3-1,2-1.7,0.1-2.8C335,455.4,330.9,447.8,325,442z M157,405.4c0-0.4,0-0.8,0-1.3
	c7.6-0.6,15-0.5,21.7,3.8c4.6,2.9,7.7,7.3,11.2,11.2c1.8,5.5,3.6,10.9,3.1,16.9c-0.4,4.5-2.5,8.5-3.2,12.9c-0.4,0.2-0.8,0.4-1.2,0.6
	c0.1,0.1,0.3,0.3,0.3,0.3c0.4-0.2,0.8-0.4,1.1-0.6c10.1-2.3,19.4-6.8,29.1-10.2c5.8-2,11.5-4.2,18.1-6.7
	c-11.4-4.4-17.7-12.1-21.3-22.2c0-3.1-0.4-6.3,0.1-9.4c1-7.4,2.7-14.5,10-18.6c0.1,1.3-0.9,2.1-1.6,3c-4.3,6.3-6.1,13-4.6,20.7
	c2,10.5,12.2,22.6,28.2,21.5c12-0.9,22.6-10.8,23.9-23.4c1.3-13-7.4-25.2-19.8-28.7c-6.3-1.8-12.1,0.4-18.1,1
	c5-4.4,11.4-2.5,18.6-3.5c-7.1-4-12.5-8.1-15.6-14.4c-1.5-14.7-6.2-29.1-4.6-44.1c-5.7,0.4-6.8,1.1-5.3,3.3c3.1,4.7,3.1,10,3.9,15.2
	c1.4,8.6,2.7,17.3,4,25.9c-0.8,6.2-2.9,11.5-9.5,13.9c-20.8,7.5-41.7,14.8-62.2,23c-8.1,3.2-14.6,3.3-21-2.6
	c-4.7-7.6-9.4-15.2-14-22.9c-2.6-4.4-6.3-8.2-6.4-13.8c0-2-1.3-2.1-2.7-1.3c-1.2,0.7-2.9,0.8-3.7,2.6c4.8,3.2,8,7.8,10.9,12.7
	c4.7,7.8,9.7,15.5,14.6,23.2c1.4,6,1.1,11.8-1.2,17.5c-1.4,3.4,0.9,2.4,2.4,2.3c-6.4,8.8-9.1,18.3-4.9,28.9
	c4.9,12.4,19.2,19.2,32,15.2c13.4-4.1,21.1-17.3,18-30.7C183.9,412.6,172.2,404.4,157,405.4z M434.7,584c0.4-1.9,1-3.9,1.3-5.8
	c2.5-16.3,4.9-32.6,7.5-48.8c6.7-40.7,12.4-81.6,14.6-122.8c0.1-2.3,0.3-4.5-0.4-7.1c-1.5,2.4-1.5,4.9-2,7.2
	c-4.8,22.4-9.6,44.9-14.3,67.3c-0.5,2.4-1.7,5,2.9,4.7c3.1-0.2,1.6,2.2,1.3,3.5c-5.4,29.4-11,58.8-16.3,88.3c-0.5,2.6-1.7,3.6-4,4.3
	c-6.1,1.7-7.1,3.3-7,10.2c-1.6,7.1-3.1,14.3-4.7,21.4c-0.4,1.6-0.3,2.6,1.7,2.5c4.1-0.2,8.3-0.2,12.4-0.6c2.5-0.2,3.9-1.9,4.2-4.2
	C432.8,597.4,433.7,590.7,434.7,584z M313,595c-2.6-1.6-5.6-2-8.3-3c-11.5-4.5-23.9-6.6-34.2-13.9c-9.1-9.3-19.3-17.2-29-25.9
	c-2.5-2.3-4.4-1.6-5.9,1.3c-4.4,8.8-8.9,17.5-13,26.4c-1.7,3.5-1.3,6.9,3.3,8.2c22.5,10.7,46.8,13.3,71,16.1c5,1.8,10.3,2,15.4,2.9
	c19,3.1,38.2,5.8,57.2,8.9c8.7,1.4,17.1,2.4,25-2.6c1.6-1,3.4-1.8,1.3-4.1c-5.6-6.2-13-7.4-20.7-8c-1.5-0.1-2.6,0.6-3.2,1.9
	c-1,1.9-2.7,2.9-4.5,3.8c-4.8,2.6-9.4,0.9-14-0.4C340.1,602.6,326.6,598.8,313,595z M472.8,126.8c-3.5,0.8-7.1,1.6-10.6,2.4
	c-0.7,0.2-1.9,0.2-1.7,1.3c0.2,1,1.3,1.3,2.3,1.6c8.3,5.8,12.5,14,14.3,23.7c2.5,13.7,2.5,27.6,0.3,41.2
	c-3.8,24.1-8.5,48.1-12.8,72.1c-3.2,18-6.5,36-9.7,54c-0.6,2.6-1.3,5.2-1.8,7.8c-16.3,88-32.6,176.1-48.9,264.1
	c-0.4,2.3-0.4,5-2.4,6.4c-5.2,3.7-0.6,4.8,1.6,6.1c1.5,0.9,3.9,3.1,4.7-1.1c1.9-9.8,3.9-19.6,5.9-29.3c0.2-0.4,0.6-0.8,0.7-1.3
	c8.4-39.7,16.8-79.5,25.2-119.2c19.5-92.3,39-184.6,58.5-276.9c3.8-17.9,7.6-35.8,11.4-53.7c1.3-6.1-0.8-9-5.8-7.7
	C493.6,120.9,483.2,123.9,472.8,126.8z M70.4,433c-0.3,1.7-0.6,3.5,0.5,5.1c0.1,1,0.2,1.9,0.2,2.9c-0.5,6.4,0.9,12.6,1.9,18.8
	c3.3,20.5,8.4,40.4,19,58.5c4.8,8.1,10.6,15.4,19,20.1c8,4.5,11.9,2.3,12.3-6.8c0.5-14,0.8-28,1.6-42c1.5-28.3,4-56.4,11.7-83.9
	c1.3-4.8,1.2-9.7-1.4-14.1c-5.2-8.7-10.6-17.3-16.2-25.8c-1.6-2.4-3.4-5.1-7.1-4.6c-2.2-0.8-4.2-0.5-6.2,0.7
	c-7.1,4-14.4,7.7-21.3,11.9c-8.6,5.3-13.4,13.4-14.2,23.4C69.2,409.1,69.3,421.1,70.4,433z M238.9,314c-3.6,2.2-3.7,5.8-3.3,9.3
	c1.3,9.6,2.8,19.1,4.2,28.6c0.8,5.4,3.6,9.7,8,12.7c18.8,12.8,35.6,27.9,51.4,44.1c11.4,11.6,22.4,23.6,33.6,35.4
	c1.9,2.3,3.8,4.6,5.8,6.8c2.4,2.6,4.5,6.3,8.9,5.3c4.2-1,4.6-5.3,6-8.5c0.5-1.1,0.7-2.2,0.9-3.4c2.1-10.7,0.9-21.3-2.1-31.6
	c-11.2-38.4-33.6-69.9-61-98.2c-3.9-4-9-6.4-14.5-7.3c-12.7-1.9-24.6,2.5-36.7,5.4C239.7,312.7,239.3,313.5,238.9,314z M339,470.1
	c-6.6,0.1-11.6-2.7-15.9-7.8c-9.1-10.9-18.8-21.2-30.3-29.6c-5.7-4.2-11.8-7.6-18.7-9.1c-2-0.4-4.3-1.4-6.1,0.5
	c-5.1,5.5-12,7.7-18.8,9.7c-3.7,1.1-5.2,3.1-6,6.8c-5.5,25.9-11.1,51.7-16.7,77.6c-2,9.3-4,18.5-6,27.8c-1.2,5.3,2.6,7,6.3,8.7
	c3.8,1.7,3.4-2.2,4.3-3.8c3.5-6.1,8.6-7.1,14-2.6c7.9,6.6,15.2,14,23.6,20.1c0.7,1.2,1.5,2.2,2.8,2.8c3.3,3.9,7.5,6.3,12.3,8.1
	c24.2,8.8,48.9,16.2,73.9,22.7c8,2.1,11.1,0,11.9-8.4c2.9-29.3,5.6-58.6,8.4-88c3.2-33.3,6.3-66.6,9.5-99.9
	c3.5-37.6,7.1-75.2,10.5-112.8c3-33.1,5.9-66.3,8.6-99.5c1.3-16.1,2.2-32.2,3.3-48.3c1.6-19.4,2.7-38.9,2.3-58.4
	c-0.1-6-3.2-8.1-8.8-5.9c-4.5,1.7-9,3.5-13.4,5.5c-27.8,12.4-53.3,28-73.6,51.2c-5.8,6.6-10.2,14.1-12.1,22.7
	c-9.4,42.7-18.6,85.5-27.9,128.2c-0.3,1.4-1.2,3,0.5,4.1c2.7,1.9,3.4,4.9,4.1,7.7c0.5,1.7,1.1,3,2.9,3.6c6.8,2.4,11.9,7.2,16.7,12.3
	c20.4,22,37.2,46.5,49.6,73.8c0.2,0.6,0.3,1.3,0.6,1.9c6.1,14.2,10.5,28.8,10.1,44.4C360.3,453.2,352.4,465.2,339,470.1z"/>
<path class="st1" d="M297.9,163.1c-4.7,22.3-9.4,44.5-14.2,66.8c-3.9,18.4-8,36.7-11.9,55.1c-0.8,3.8-1.9,5.5-6.4,5.2
	c-9.4-0.7-18,2.5-26.2,6.9c-3.1,1.6-5,4.1-4.5,7.6c0.4,3-1.2,3.6-3.5,4.2c-41.4,10-81.1,24.6-119.1,43.8c-2.1,1-3.7,1.9-5.3-0.9
	c-0.8-1.3-2.5-2.1-3.8-3.1c3.3-41.1,17-78.2,42.9-110.4c31.7-39.5,72.7-63.8,122.7-72.5C278.3,164.3,288.1,163.3,297.9,163.1z"/>
<path class="st1" d="M146.1,486.8c1.3-7,4-13.3,8.1-19.1c1.8-2.6,3.9-4.1,7.5-3.8c4.5,0.5,8.8-1.1,13.1-2.7
	c20.8-7.8,41.7-15.5,62.4-23.2c1.5,0.9,0.9,2,0.7,2.9c-7.1,33-14.3,66-21.4,98.9c-0.1,0.5-0.4,0.9-0.6,1.4
	c-24.8-11.5-45.9-28-64-48.4C150.1,490.8,148.5,488.4,146.1,486.8z"/>
<path class="st1" d="M455.1,488.2c1.3-10.9,3-21.7,4-32.7c2.1-23,4.6-46.1,5.5-69.2c1.2-29.8,7.5-58.7,13.8-87.6
	c1.4-6.3,2.8-12.6,4.2-18.9c8.4,17.4,13.5,35.7,16.1,54.8c4.9,36.2,0.5,71.3-13.8,104.9C477.4,457.1,467.8,473.6,455.1,488.2z"/>
<path class="st2" d="M119.9,230.1c-17-2.4-33.5-4.8-50-7.1c-2.6-0.4-2.8-1.5-2.5-3.7c2.4-16.1,4.7-32.3,6.9-48.4
	c0.4-3.2,1.7-4.1,4.8-3.6c16,2.4,31.9,4.7,47.9,6.9c2.6,0.4,3.7,1,3.2,4.1c-2.4,16-4.6,32-6.9,47.9
	C123.1,228.6,122.9,231.1,119.9,230.1z M116,188.3c0.6-2.3-0.7-3-3.2-3.4c-7.9-1-15.8-2.1-23.7-3.4c-2.7-0.5-3.6,0.3-4,2.8
	c-1,7.7-2.1,15.5-3.3,23.2c-0.5,3,0,4.4,3.5,4.8c7.8,0.8,15.5,2.1,23.2,3.4c2.7,0.5,3.5-0.5,3.9-2.9
	C113.6,204.8,114.8,196.7,116,188.3z"/>
<path class="st2" d="M503.7,460.6c18.7-15.3,36.5-29.9,54.8-44.8c1.9,5.1,2.1,10.1,2.9,14.8c2.9,16.9,5.6,33.8,8.3,50.7
	c0.3,2,1.3,4.8-2.8,3.2C546.2,476.7,525.5,468.9,503.7,460.6z M550.1,438.6c-7.7,6.3-14.4,11.8-21.9,17.9c8.4,3.2,15.9,6,23.4,8.9
	c2.1,0.8,2.8,0.2,2.4-1.9C552.8,455.5,551.5,447.5,550.1,438.6z"/>
<path class="st3" d="M79.2,270c0,12.7-9.4,22.1-22,22.1c-12.7,0-22.3-9.7-22.2-22.5c0.1-12.1,10.5-22.5,22.3-22.2
	C69.5,247.7,79.2,257.7,79.2,270z M57,282.2c6.9,0,12.6-5.4,12.6-12.2c0-6.6-5.7-12.4-12.4-12.6c-6.7-0.1-12.3,5.5-12.3,12.3
	C44.9,277,49.9,282.1,57,282.2z"/>
<path class="st3" d="M550.6,363.4c0.1-1.7-1-2-1.8-2.6c-1.6-1.2-3.1-2.6-4.9-3.4c-4.1-2-4-4-1.5-7.6c2.4-3.5,4-3.2,7-1
	c7.4,5.3,7.5,5.1,12.8-2.1c2.8-3.8,8.1-3.2,10.4,1c0.7,1.4-0.3,2.1-0.9,3.1c-5.9,9.1-6,9.3,2.6,15.1c3.8,2.6,1.3,4.3,0,6.3
	c-1.4,2-2,4.9-5.9,2.2c-8.3-5.8-8.7-5.7-14.8,2.7c-3.2,4.4-4.9,0.5-7.1-0.5c-2.8-1.3-3.3-3.2-1.1-5.8
	C547.3,368.3,549,365.6,550.6,363.4z"/>
<path class="st4" d="M350,390c-12.4-27.4-29.2-51.8-49.6-73.8c-4.8-5.2-9.8-10-16.7-12.3c-1.8-0.6-2.5-1.9-2.9-3.6
	c-0.8-2.9-1.4-5.9-4.1-7.7c-1.6-1.1-0.8-2.8-0.5-4.1c9.3-42.7,18.5-85.5,27.9-128.2c1.9-8.6,6.3-16,12.1-22.7
	c20.3-23.2,45.8-38.8,73.6-51.2c4.4-2,8.9-3.8,13.4-5.5c5.7-2.2,8.7-0.1,8.8,5.9c0.4,19.5-0.7,38.9-2.3,58.4c-1.5,0-3,0-4.5,0
	c0-4.9-0.8-10,0.1-14.7c2.7-13.7,0.9-27.5,2.6-41.2c0.5-3.6-1.5-5-4.9-3.5c-9.8,4.4-20,8.3-29.2,13.9c-1.7,1.1-2.6,2.2-2.7,4.3
	c-0.6,12.9-1.4,25.9-1.9,38.8c-0.7,17.9-2,35.8-2.8,53.7c-1.1,23.7-2.5,47.4-4.2,71.1c-1.1,15.6-1.9,31.1-3.2,46.7
	c-1.8,21-3.7,41.9-6.1,62.8C352.3,381.2,353.7,386.2,350,390z"/>
<path class="st5" d="M350,390c3.6-3.8,2.2-8.8,2.7-13.1c2.4-20.9,4.3-41.9,6.1-62.8c1.3-15.5,2.1-31.1,3.2-46.7
	c1.7-23.7,3.1-47.3,4.2-71.1c0.8-17.9,2.1-35.8,2.8-53.7c0.5-12.9,1.4-25.9,1.9-38.8c0.1-2.1,1-3.2,2.7-4.3
	c9.3-5.6,19.4-9.5,29.2-13.9c3.4-1.5,5.4-0.1,4.9,3.5c-1.7,13.7,0.1,27.5-2.6,41.2c-0.9,4.7-0.1,9.8-0.1,14.7
	c-0.3,0.1-0.6,0.1-0.9,0c-2-0.2-3.3,0.5-4.5,2.3c-4.9,7.2-8.7,14.8-10.9,23.3c-3.8,14.4-5.1,29.2-7.1,43.9
	c-2.7,19.4-3.1,38.9-4.5,58.3c-1.3,17.3-0.6,34.8,2.9,52c1.2,5.6,1.9,11.8,7.8,15.2c-0.2,12.3-2.5,24.3-3.2,36.6
	c-1,15.5-3.2,30.9-4.7,46.4c-1.5,15.7-2.6,31.4-4.2,47c-2.2,22.2-4.7,44.4-6.8,66.7c-1.6,16.3-2.7,32.7-4.2,49
	c-0.7,7.6-6,11.3-13.5,9.4c-23.9-5.9-47.3-13.2-70.5-21.2c-3.1-1.1-6-2.9-9.5-2.8c-1.3-0.6-2.2-1.5-2.8-2.8c1.3-0.4,2.6-0.3,3.9,0
	c12,2.6,22.3-0.4,30.9-9.3c9.2-9.5,14.9-21.1,19.7-33.1c7.2-18.1,11.9-36.9,15.9-55.9c13.5-4.9,21.3-16.9,21.8-33.8
	c0.4-15.6-4-30.2-10.1-44.4C350.4,391.3,350.2,390.6,350,390z"/>
<path class="st4" d="M339,470.1c-4,19-8.7,37.8-15.9,55.9c-4.8,12.1-10.5,23.6-19.7,33.1c-8.6,8.8-18.9,11.9-30.9,9.3
	c-1.3-0.3-2.6-0.4-3.9,0c-8.3-6.1-15.6-13.5-23.6-20.1c-5.4-4.5-10.5-3.5-14,2.6c-0.9,1.6-0.5,5.5-4.3,3.8c-3.7-1.7-7.5-3.3-6.3-8.7
	c2-9.3,4-18.5,6-27.8c5.6-25.9,11.3-51.7,16.7-77.6c0.8-3.7,2.2-5.7,6-6.8c6.9-2,13.7-4.2,18.8-9.7c1.8-1.9,4.1-1,6.1-0.5
	c7,1.5,13,5,18.7,9.1c11.5,8.4,21.3,18.7,30.3,29.6C327.4,467.4,332.3,470.2,339,470.1z"/>
<path class="st6" d="M377.1,571c1.1-12.7,2-25.4,3.2-38.1c1.1-12,2.5-24,3.7-36.1c1.6-16,3.2-32,4.8-47.9c1.2-12,2-24.1,3.3-36.1
	c2-18.6,2.9-37.3,5.9-55.8c2.2,0.2,4.2-0.2,6.3-0.9c11.6-4.1,16.9-13.8,21.8-23.8c7.3-15,11-31.1,14.3-47.4c5-24.4,7.5-49,7.7-73.8
	c0.1-9-0.6-17.9-1-26.8c13.8-0.3,21.6-6.5,25.3-20.4c1.4,9.6,1.5,19.3,0.1,28.8c-6.8,45.7-16.5,90.9-24.6,136.4
	c-6,33.4-12.5,66.7-18.7,100c-8.5,45.9-16.8,91.9-25.3,137.8c-0.4,2.4-1.3,4.8-2,7.1C393.5,574.2,385.4,571.3,377.1,571z
	 M424.3,394.5c-1.4-3-3.8-4.1-6.9-3.4c-2.5,0.6-3.9,2.4-4.3,4.9c-0.7,4.4-1.4,8.7-2,13.1c-0.4,3.1-0.1,6,2.8,7.9
	c4.3,2.8,7.9,1.9,9-2.9c1.3-5.5,1.9-11.1,2.8-16.6C425.9,396.3,425.2,395.3,424.3,394.5z M433.1,352.1c-1.6-4.1-5.6-2.8-8.6-3.7
	c-3.9-1.1-7.1,0.9-7.3,5.1c-0.3,7.3-1.9,14.4-2.9,21.6c-0.3,2.4,0.4,4.3,2.9,5.1c3.1,3.4,7.2,3.1,10.9,2.4c3.5-0.7,3-4.4,3.5-7
	c1.1-6.3,1.9-12.7,3-19.1C434.7,354.8,434.7,353.3,433.1,352.1z M400.2,521.3c-0.6-1.9,1.2-4.7-1.9-5c-2.5-0.2-2.2,2.4-2.5,4.1
	c-0.8,5.1-1.7,10.1-2.6,15.2c-0.3,1.5,0.1,2.8,1.6,3.2c1.9,0.5,2.8-0.7,3-2.4C398.7,531.4,399.5,526.3,400.2,521.3z M398.2,503.8
	c-0.2,1.5-0.4,3.1,1.8,3.3c1.8,0.1,2.7-1,2.9-2.7c0.6-4.1,1.2-8.1,1.9-12.2c0.2-1.5-0.2-2.7-1.7-3.1c-1.9-0.4-2.7,0.8-3,2.5
	C399.4,495.7,398.9,499.7,398.2,503.8z"/>
<path class="st4" d="M332.9,444.1c-11.2-11.8-22.3-23.8-33.6-35.4c-15.8-16.2-32.6-31.4-51.4-44.1c-4.5-3-7.2-7.3-8-12.7
	c-1.4-9.5-2.9-19.1-4.2-28.6c-0.5-3.5-0.4-7.1,3.3-9.3c6.6-0.4,13-2.2,19.5-3.6c13.1-2.8,24.2,0.3,33.6,9.9
	c6,6.2,11.8,12.6,17.2,19.4c13.7,17.1,25.7,35.1,31.1,56.7c2.7,10.7,5.1,21.3,2.7,32.3C341.5,435,340.5,441.8,332.9,444.1z
	 M290.1,358.9c-0.2-0.3-0.4-0.6-0.7-1c-1.4-1.2-2.6-2.6-4.1-3.5c-3.5-2-7-1.8-10.2,0.6c-3.4,2.5-4.8,5.9-3.7,10
	c1,3.8,3.5,6.4,7.4,7.1c2.8,0.5,5.6,0,8.1-1.4c4.2,1.6,5.2-2,6.2-4.4C294.5,363.3,293.9,360.3,290.1,358.9L290.1,358.9z M271.9,338
	c4.7,0.5,7.8-1.6,8.9-6c0.8-3.2,0.6-6.7-3.7-7.9c-1.2-1.1-2.4-2.4-3.7-3.3c-4-2.5-8-2.2-11.5,0.9c-3.5,3.1-4.2,7.2-2.2,11.3
	C262.1,338.2,266.7,338.9,271.9,338z M263.9,359.8c0.2,0.7,0.7,1.3,1.4,0.9c2.4-1.4,4.7-3.1,4.7-6.3c0.1-3.2,0-6.3-3.9-7.4
	c-0.7-0.7-1.4-1.4-2.2-2c-3.9-3.2-8.6-3.4-12.3-0.6c-3.6,2.7-4.8,7.5-2.9,11.6c2,4.3,6.2,6.3,11.1,5.3
	C261.2,361,262.5,360.3,263.9,359.8z M301.3,339.6c0-5.3-4.5-9.7-10-9.7c-5.3,0.1-9.5,4.3-9.5,9.6c0,5.3,4.1,9.5,9.5,9.6
	C297.1,349.2,301.3,345.3,301.3,339.6z M249.1,328.6c-0.3-1.8-0.5-4.3-1.1-6.6c-0.7-2.6-2.7-3.7-5.3-3.3c-2.4,0.4-3.9,2-3.7,4.5
	c0.1,2.5,0.6,4.9,0.9,7.4c0.4,2.9,2.2,4.6,5.1,4.3C248,334.6,249.4,332.4,249.1,328.6z"/>
<path class="st7" d="M447,184.2c0.4,8.9,1.1,17.8,1,26.8c-0.2,24.9-2.8,49.4-7.7,73.8c-3.3,16.3-7,32.4-14.3,47.4
	c-4.9,10-10.3,19.7-21.8,23.8c-2.1,0.7-4.1,1.1-6.3,0.9c0.6-15,1.9-29.9,4.1-44.8c7.4-50.8,14.8-101.6,16.2-153.1
	c0.5,0.8,1,1.7,1.6,2.5C426.5,172,434,181.4,447,184.2z"/>
<path class="st4" d="M71.2,441c-0.1-1-0.2-1.9-0.2-2.9c1.7-1.9,0-3.4-0.5-5.1c-1.1-11.9-1.2-23.9-0.2-35.8
	c0.8-10,5.6-18.1,14.2-23.4c6.9-4.3,14.2-7.9,21.3-11.9c2-1.1,4-1.4,6.2-0.7c-0.5,1.8,3.3,3.5,0,5.3c-3.1,1.1-4.6,3.2-3.3,6.4
	c0.8,1.9,2,3.7,3.2,5.5c3,4.5,5.3,4.6,9.3,0.6c5.6,5.4,10,11.5,10.8,19.4c0.2,1.9,0.7,4-0.6,5.9c-2.7-2.2-1-6.9-5.3-7.4
	c-2-3.9-4.8-5-8.9-3c-3.1,1.5-6.4,2.3-9.3,4.2c-0.3-4.3-1.8-8.3-3.8-12.1c-1-2-2.5-3-4.8-2.8c-11.7,1.1-15,6.9-9.7,17.1
	c2.1,4,6.4,4.6,10.1,5.5c3.4,0.8,4.6-2.5,5.9-5c0.6-1,0.5-2.8,2.4-2.8c0.6,1,0,1.9-0.4,2.8c-2.7,7.3-2.5,7.8,4.6,11.4
	c1.5,0.8,2.9,1.6,4.6,1.6c0.9,0.3,1.6,0.1,2.2-0.6c0.6-0.1,1.3-0.2,1.9-0.4c1.8,1.9,3.3-0.3,4.9-0.4c1.2-0.1,2.3-1.8,3.6-0.7
	c1,0.9-0.1,2.2-0.3,3.2c-3.9,17.8-6.6,35.9-7.9,54c-1.1,16-2.5,32.1-2.3,48.2c0.1,4.8-1.5,5.7-5.8,3.7c-7.2-3.5-12.7-9.1-17.3-15.5
	c-11.2-15.3-16.4-33.2-20.9-51.3C73.8,449.8,74.6,444.8,71.2,441z M97.7,419.8c-0.1,4.6,2.2,8,3.4,11.8c1.1,3.7,4,4.4,7.1,3
	c4.1-1.8,10.1-0.9,11-7.4c0-0.2,0-0.3,0-0.5c-1.2-3.1-2.2-6.3-3.7-9.2c-1.6-3.1-5.2-3.2-8-4.5c-3.7-1.7-5.6,1.8-8.3,3.6
	c0.8-6.7-1.3-9.6-8.2-11.6c-2.7-0.8-12.4,2.6-13.6,4.8c-1.2,2,2.1,13,4.4,14.7C84.2,426.5,92.2,424.3,97.7,419.8z"/>
<path class="st4" d="M147,391.1c-1.5-0.8-2.5-2-3.3-3.5c3.8-2.4,5.2-6,5.3-10.4c0.2-13.1-5.8-22.1-18.5-27.3
	c20.9-10.5,42.9-18.4,65.1-25.6c7.2-2.4,14.6-4.3,21.9-6.4c1.4-0.4,2.8-1.2,4.3-0.4c1.6,11,3.1,22,4.8,32.9
	c1.1,6.8-1.6,13.6-6.9,15.6c-23.8,8.8-47.7,17.4-71.6,26c0,0-0.1-0.1-0.1-0.1C147.7,391.6,147.4,391.3,147,391.1z"/>
<path class="st8" d="M271.4,571.1c3.5-0.2,6.4,1.7,9.5,2.8c23.2,8,46.7,15.3,70.5,21.2c7.6,1.9,12.9-1.8,13.5-9.4
	c1.4-16.3,2.6-32.7,4.2-49c2.1-22.2,4.6-44.4,6.8-66.7c1.5-15.7,2.7-31.3,4.2-47c1.5-15.5,3.7-30.9,4.7-46.4
	c0.8-12.2,3-24.3,3.2-36.6c1-10,2.1-20,3-30c1.5-16,2.7-32,4.2-48c1.9-20.9,4.1-41.9,5.7-62.8c1.4-18,2.3-36.1,3.4-54.1
	c0.3,0,0.6,0,0.9,0c1.5,0,3,0,4.5,0c-1.1,16.1-1.9,32.2-3.3,48.3c-2.7,33.2-5.6,66.3-8.6,99.5c-3.4,37.6-7,75.2-10.5,112.8
	c-3.1,33.3-6.3,66.6-9.5,99.9c-2.8,29.3-5.5,58.7-8.4,88c-0.8,8.4-3.9,10.5-11.9,8.4c-24.9-6.5-49.6-13.9-73.9-22.7
	C278.9,577.4,274.7,575,271.4,571.1z"/>
<path class="st9" d="M454.8,323.1c3.2-18,6.5-36,9.7-54c4.3-24,9-48,12.8-72.1c2.2-13.6,2.2-27.5-0.3-41.2
	c-1.8-9.7-6-17.9-14.3-23.7c4.7-0.2,9.3-1.1,13.3-3.8c1.6,0,3.3-0.1,4.9-0.1c1.9,1.3,3.9,2.5,5.6,4c7.1,5.9,8.7,14.1,9.4,22.7
	c0.3,3.4-1.1,6.9,1,10.2c-0.1,1.3-0.2,2.6-0.3,3.9c-0.2,0.4-0.5,0.8-0.7,1.1c-1.9,9.7-3.6,19.5-5.7,29.2c-3.4,16.2-7,32.4-10.5,48.6
	c-2,0.2-2,2.1-2.4,3.4c-5.6,18.7-11,37.5-16.8,56.1C459,312.8,457.9,318.3,454.8,323.1z"/>
<path class="st5" d="M454.8,323.1c3.1-4.8,4.2-10.4,5.8-15.7c5.8-18.6,11.2-37.4,16.8-56.1c0.4-1.3,0.4-3.1,2.4-3.4
	c-0.8,4.1-1.5,8.1-2.4,12.2c-6.1,28.9-12.3,57.7-18.4,86.5c-6.9,32.6-13.5,65.2-20.4,97.8c-8.1,38.4-16.4,76.8-24.6,115.2
	c-1.2,5.8-3,11.6-0.1,17.4c-2,9.8-4.1,19.5-5.9,29.3c-0.8,4.2-3.2,2-4.7,1.1c-2.2-1.3-6.9-2.4-1.6-6.1c2-1.4,1.9-4.1,2.4-6.4
	c16.3-88,32.6-176.1,48.9-264.1C453.5,328.3,454.2,325.7,454.8,323.1z"/>
<path class="st8" d="M414,577.1c-2.9-5.8-1.2-11.7,0.1-17.4c8.2-38.4,16.4-76.8,24.6-115.2c6.9-32.6,13.6-65.2,20.4-97.8
	c6.1-28.9,12.3-57.7,18.4-86.5c0.9-4,1.6-8.1,2.4-12.2c3.5-16.2,7.1-32.4,10.5-48.6c2-9.7,3.8-19.5,5.7-29.2
	c0.2-0.4,0.5-0.8,0.7-1.1c0.1-1.3,0.2-2.6,0.3-3.9c3.9-13,5.7-26.5,8.9-39.6c0.6-2.5-0.2-3.7-3.3-2.9c-7.2,2-14.4,3.8-21.7,5.6
	c-1.6,0-3.3,0.1-4.9,0.1c-1.2-0.3-2.6,0-3.2-1.5c10.4-2.9,20.7-5.9,31.2-8.6c5-1.3,7.1,1.6,5.8,7.7c-3.8,17.9-7.6,35.8-11.4,53.7
	c-19.5,92.3-39,184.6-58.5,276.9c-8.4,39.7-16.8,79.5-25.2,119.2C414.6,576.3,414.3,576.7,414,577.1z"/>
<path class="st10" d="M142.2,392.7c6.4,5.9,13,5.8,21,2.6c20.5-8.2,41.4-15.5,62.2-23c6.6-2.4,8.7-7.7,9.5-13.9
	c0.7-0.1,1.4-0.2,2-0.3c3.1,6.3,8.4,10.4,15.6,14.4c-7.2,1-13.6-0.9-18.6,3.5l0,0c-1.5-0.1-2.6,0.4-3,2l0,0c-2.8-0.1-4.6,1.1-5,4
	l0,0c-7.3,4-9,11.2-10,18.6c-0.4,3.1-0.1,6.3-0.1,9.4c-9.1,1.9-17.6,5.3-26.1,9.1c-3.6-3.9-6.6-8.3-11.2-11.2
	c-6.7-4.3-14.1-4.4-21.7-3.8c-4.1,0.5-8,1.8-11.1,4.8c-0.3,0.4-0.6,0.8-1,1.2l0,0c-0.6,0.1-1,0.4-1,1l0,0c-1.4-0.1-2.2,0.5-2,2l0,0
	c-1.6,0.1-3.8,1.1-2.4-2.3c2.3-5.7,2.6-11.5,1.2-17.5C141.3,393.1,141.7,392.9,142.2,392.7z M190.3,402.2c-1.4,0.4-2.4,1.2-2.2,2.8
	c0.2,1.6,1.4,2.1,2.8,2c1.4-0.1,2.9-0.7,2.5-2.2C193.2,403.5,192,402.4,190.3,402.2z M195.4,397.7c-0.6-1.2-1.3-2.3-2.8-2.4
	c-1.6-0.1-2.5,1-2.4,2.5c0.1,1.6,1.2,2.2,2.8,2.2C194.3,399.9,195,399.1,195.4,397.7z M202.9,394.6c-0.3-1.2-0.8-2.4-2.4-2.3
	c-1.3,0.1-2,1.3-2,2.4c-0.1,1.6,1,2.3,2.6,2.2C202.4,396.9,202.9,396.1,202.9,394.6z M198.7,399.4c-1.3,0.6-2.5,1.3-2.2,2.9
	c0.2,1.3,1.3,1.8,2.6,1.8c1.5-0.1,2-1,1.8-2.3C200.7,400.4,200.1,399.5,198.7,399.4z M186.8,400.9c-0.6-1.2-1.3-2.4-2.8-2.4
	c-1.4,0-2,1.1-2,2.3c0,1.6,0.9,2.4,2.5,2.2C185.7,402.8,186.6,402.2,186.8,400.9z M207.6,401c0.8-0.3,2.2-0.5,2-2
	c-0.1-1.3-1.1-2.4-2.5-2.6c-1.3-0.2-2.1,0.8-2.2,2.1C205,400,205.8,400.8,207.6,401z M211.8,391.8c-0.7-1.1-1.3-2.4-2.8-2.4
	c-1.4,0-2,1-2,2.3c0.1,1.5,1,2.4,2.6,2.2C210.8,393.8,211.7,393.2,211.8,391.8z"/>
<path class="st6" d="M270.5,578.1c10.3,7.3,22.8,9.4,34.2,13.9c2.7,1.1,5.8,1.4,8.3,3c-0.8,1.6-2.3,2.3-3.5,3.4
	c-3.6,3.2-8.7,3-12.5,5.7c-24.3-2.7-48.6-5.4-71-16.1c-0.6-2.1-1.7-4.2-0.7-6.3c3.9-8.3,8-16.5,12.3-25.3
	C246.8,567.4,257,575.2,270.5,578.1z"/>
<path class="st5" d="M71.2,441c3.4,3.8,2.6,8.9,3.7,13.3c4.5,18.1,9.7,36,20.9,51.3c4.6,6.3,10.1,12,17.3,15.5
	c4.3,2,5.9,1.1,5.8-3.7c-0.2-16.1,1.2-32.2,2.3-48.2c1.3-18.2,4-36.2,7.9-54c0.2-1.1,1.4-2.3,0.3-3.2c-1.3-1.1-2.4,0.6-3.6,0.7
	c-1.6,0.2-3.1,2.3-4.9,0.4c8.6-4.6,8.6-4.6,5.4-14c-0.2-0.6-0.2-1.3-0.3-1.9c4.3,0.6,2.6,5.3,5.3,7.4c1.3-1.9,0.8-4,0.6-5.9
	c-0.8-8-5.2-14.1-10.8-19.4c0-6.3-3.7-11.5-9.2-12.5c3.3-1.8-0.6-3.5,0-5.3c3.7-0.5,5.5,2.2,7.1,4.6c5.5,8.5,10.9,17.1,16.2,25.8
	c2.6,4.4,2.7,9.3,1.4,14.1c-7.6,27.4-10.2,55.6-11.7,83.9c-0.7,14-1,28-1.6,42c-0.3,9.1-4.3,11.3-12.3,6.8
	c-8.4-4.7-14.2-11.9-19-20.1c-10.6-18.1-15.7-38.1-19-58.5C72.1,453.6,70.6,447.4,71.2,441z"/>
<path class="st11" d="M447,184.2c-13-2.8-20.5-12.2-27.2-22.6c-0.5-0.8-1-1.7-1.6-2.5c-0.2-5.1-0.5-10.2,0.1-15.3
	c17.9,5.1,35.7,10.2,53.6,15.3c0.1,1.6,0.3,3.2,0.4,4.7C468.6,177.7,460.9,183.9,447,184.2z"/>
<path class="st8" d="M418.2,585c-0.1-6.9,0.9-8.5,7-10.2c2.3-0.7,3.5-1.6,4-4.3c5.4-29.4,10.9-58.8,16.3-88.3
	c0.2-1.3,1.8-3.8-1.3-3.5c-4.5,0.3-3.4-2.3-2.9-4.7c4.7-22.4,9.5-44.9,14.3-67.3c0.5-2.3,0.5-4.9,2-7.2c0.7,2.5,0.5,4.8,0.4,7.1
	c-2.2,41.3-7.8,82.1-14.6,122.8c-2.7,16.2-5,32.5-7.5,48.8c-0.3,2-0.8,3.9-1.3,5.8C429.2,584.3,423.7,584.7,418.2,585z"/>
<path class="st5" d="M332.9,444.1c7.6-2.3,8.6-9.1,10-15.3c2.4-11,0-21.7-2.7-32.3c-5.5-21.6-17.4-39.7-31.1-56.7
	c-5.4-6.7-11.1-13.2-17.2-19.4c-9.4-9.7-20.5-12.7-33.6-9.9c-6.5,1.4-12.8,3.2-19.5,3.6c0.4-0.5,0.8-1.3,1.3-1.4
	c12.1-2.9,24-7.3,36.7-5.4c5.5,0.8,10.6,3.2,14.5,7.3c27.4,28.3,49.7,59.9,61,98.2c3,10.3,4.2,20.9,2.1,31.6
	c-0.2,1.1-0.4,2.3-0.9,3.4c-1.4,3.3-1.8,7.5-6,8.5c-4.4,1-6.4-2.7-8.9-5.3C336.7,448.7,334.9,446.4,332.9,444.1z"/>
<path class="st12" d="M297,604.1c3.8-2.7,8.9-2.5,12.5-5.7c1.2-1.1,2.8-1.8,3.5-3.4c13.5,3.8,27.1,7.6,40.6,11.4
	c4.6,1.3,9.2,3,14,0.4c1.8-1,3.5-2,4.5-3.8c0.7-1.3,1.8-2,3.2-1.9c7.7,0.6,15.1,1.8,20.7,8c2,2.3,0.3,3.1-1.3,4.1
	c-7.9,5-16.4,4-25,2.6c-19.1-3.1-38.2-5.8-57.2-8.9C307.3,606.1,302,605.9,297,604.1z"/>
<path class="st7" d="M189.9,419.2c8.4-3.8,17-7.2,26.1-9.1c3.6,10.2,9.9,17.8,21.3,22.2c-6.6,2.4-12.3,4.7-18.1,6.7
	c-9.7,3.4-19,7.9-29.1,10.2l-0.2-0.3c0.6-4.4,2.8-8.4,3.2-12.9C193.5,430.1,191.7,424.6,189.9,419.2z M218,427.6
	c-0.5-1.7-1.4-3.7-3.9-2.9c-4.4,1.4-8.7,3.1-12.9,5c-1.5,0.7-2.7,2.2-1.7,4.1c0.9,1.7,2.3,2.8,4.5,1.9c3.8-1.5,7.7-2.9,11.6-4.3
	C217.1,430.7,218.1,429.7,218,427.6z"/>
<path class="st11" d="M157,405.4c15.1-1,26.9,7.3,30,21.1c3.1,13.5-4.6,26.7-18,30.7c-12.8,3.9-27.1-2.9-32-15.2
	c-4.2-10.6-1.4-20.1,4.9-28.9c0,0,0,0,0,0c1-0.3,1.7-1,2-2c0,0,0,0,0,0c0.3-0.3,0.7-0.7,1-1c0,0,0,0,0,0c0.3,0,0.7,0,1-0.1
	C149.7,408.5,153.4,406.9,157,405.4z M161.8,453.2c11.7,0,21.1-9.2,21.1-20.7c0-11-9.9-20.6-21-20.5c-11.2,0.1-20.6,9.5-20.7,20.7
	C140.9,444.1,150.1,453.2,161.8,453.2z"/>
<path class="st11" d="M234,376.1c6-0.6,11.8-2.8,18.1-1c12.4,3.6,21.1,15.8,19.8,28.7c-1.3,12.6-11.8,22.6-23.9,23.4
	c-16,1.1-26.2-11-28.2-21.5c-1.5-7.7,0.4-14.4,4.6-20.7c0.6-0.9,1.6-1.7,1.6-3c0,0,0,0,0,0c2.1-0.9,3.9-2,5-4c0,0,0,0,0,0
	C232.4,378,233.6,377.6,234,376.1L234,376.1z M266.9,401.9c-0.2-11.3-10.2-21-21.4-20.7c-10.9,0.3-20.7,10.4-20.4,21.2
	c0.3,11,10.3,20.8,21.1,20.5C257.3,422.6,267,412.7,266.9,401.9z"/>
<path class="st6" d="M471.9,159.1c-17.9-5.1-35.7-10.2-53.6-15.3c-0.7-5,0.2-10.1-1-15c6,1.5,12.1,2.6,17.9,4.6
	c10.8,3.8,22.9,4.2,31.9,12.6c0,0-0.1-0.1-0.1-0.1c0.3,1.7,1.5,2.8,2.7,3.8C470.7,152.8,471.8,155.8,471.9,159.1z"/>
<path class="st13" d="M417.3,128.8c1.2,5,0.4,10,1,15c-0.6,5.1-0.3,10.2-0.1,15.3c-1.4,51.5-8.8,102.3-16.2,153.1
	c-1.9-5.2,0.1-10.5,0.4-15.6c1.2-17.9,3.1-35.7,4.7-53.5c1.6-18.2,3.3-36.3,4.7-54.5c1.2-15.9,2.2-31.8,3.2-47.7
	c0.3-5,0.7-9.9,1-14.9C416.5,126.9,416.9,127.9,417.3,128.8z"/>
<path class="st10" d="M276.1,392.9c0.8,0.5,1.8,0.8,2.5,1.5c15.9,15.4,31.7,31,46.4,47.7c-4.5,2.4-7.9-0.2-11.1-2.7
	c-3.1-2.4-5.8-5.5-9-7.8c-4.9-3.5-9.5-7.8-16-8.5c-5-2.1-10.1-4.1-15.8-5.3c4.2-8.1,4.6-16.2,2.7-24.6L276.1,392.9z"/>
<path class="st10" d="M128.1,519c0.2-24.7,1.9-49.3,5-74.5c3,4.1,4.6,8.5,8.2,11.4c1.9,1.5,3.8,3.3,6.1,4.3c3.6,1.5,3.8,3.1,1.6,6.2
	c-3.1,4.4-6,9.1-7.1,14.6c-2.2,0.5-2.3,2.5-3,4.2c-3.9,9.7-5.8,19.8-6.8,30.1C131.8,517.9,130.9,519.3,128.1,519z"/>
<path class="st12" d="M377.1,571c8.4,0.3,16.4,3.2,24.9,3c-0.2,7.1-2.2,14-3.4,21c-0.4,2.3-1.7,3.4-4.2,3.1
	c-5.6-0.8-11.1-1.4-16.7-2.3c-2.5-0.4-2.9-2.4-2.7-4.6C375.7,584.5,376.4,577.7,377.1,571z"/>
<path class="st5" d="M148.1,392c23.9-8.7,47.8-17.3,71.6-26c5.4-2,8-8.8,6.9-15.6c-1.7-11-3.2-21.9-4.8-32.9c3.4,1.7,4.3,5,4.8,8.3
	c1.5,9.4,2.8,18.8,4,28.2c1.2,9.2-1,12.7-9.6,15.9c-21.1,7.7-42.2,15.4-63.2,23.2C154.4,394.3,151.1,394.8,148.1,392z"/>
<path class="st8" d="M130.5,349.9c12.7,5.2,18.7,14.1,18.5,27.3c-0.1,4.4-1.5,8-5.3,10.4c-6.5-8.6-11.9-18-17.4-27.2
	C123.7,355.7,123.8,351,130.5,349.9z"/>
<path class="st5" d="M418.2,585c5.5-0.3,11-0.7,16.5-1c-0.9,6.7-1.8,13.5-2.8,20.2c-0.4,2.4-1.8,4-4.2,4.2
	c-4.1,0.3-8.3,0.4-12.4,0.6c-2,0.1-2.1-1-1.7-2.5C415,599.3,416.6,592.1,418.2,585z"/>
<path class="st7" d="M288.9,423.1c6.5,0.7,11.1,4.9,16,8.5c3.2,2.3,5.8,5.4,9,7.8c3.2,2.5,6.6,5.1,11.1,2.7
	c5.9,5.8,10,13.3,17.3,17.7c1.9,1.1,1.2,1.8-0.1,2.8c-3.4,2.7-9.1,2.3-12.7-1.4c-6.4-6.5-12.7-13.2-18.8-19.9
	C304.3,434.1,296.3,429,288.9,423.1z"/>
<path class="st14" d="M270.5,578.1c-13.5-2.8-23.7-10.7-32.9-21.7c-4.3,8.8-8.4,17-12.3,25.3c-1,2.1,0.1,4.2,0.7,6.3
	c-4.6-1.3-5-4.7-3.3-8.2c4.2-8.9,8.7-17.6,13-26.4c1.4-2.9,3.4-3.6,5.9-1.3C251.2,560.8,261.4,568.8,270.5,578.1z"/>
<path class="st7" d="M128.1,519c2.8,0.3,3.7-1.1,4-3.7c0.9-10.3,2.9-20.4,6.8-30.1c0.7-1.7,0.8-3.6,3-4.2c-4,15.8-5.1,31.9-4.9,48.1
	c0.1,8.1-2.6,11.1-11.7,12.9C129.3,534.4,127.5,526.6,128.1,519z"/>
<path class="st14" d="M417.3,128.8c-0.4-0.9-0.8-1.9-1.3-2.8c0-1.8,0.2-3.4,2.8-2.6c12.1,3.6,24.4,6.7,36.3,10.9
	c5.4,1.9,10.7,5,11.9,11.8c-8.9-8.4-21.1-8.8-31.9-12.6C429.4,131.4,423.3,130.3,417.3,128.8z"/>
<path class="st10" d="M243,301.2c8.7-4.3,17.7-7.6,27.7-5.3c1.1,0.3,2.3,0.4,3.1,1.3c0.7,0.7,1.3,1.6,1.1,2.6
	c-0.3,1.3-1.4,1.2-2.4,1.2c-10,0.2-19.5,3.1-29.3,4.9C243.1,304.4,243,302.8,243,301.2z"/>
<path class="st10" d="M74,368.2c6.4-8.3,15.5-11.7,25.2-13.9c1.6-0.4,3.1-0.1,3.7,1.7c0.6,1.8-1.1,2.2-2.2,2.8
	c-8.3,4.5-16.8,8.8-24.4,14.5C75.5,371.5,74.7,369.8,74,368.2z"/>
<path class="st13" d="M237,358.2c-0.7,0.1-1.4,0.2-2,0.3c-1.3-8.6-2.6-17.3-4-25.9c-0.8-5.2-0.8-10.5-3.9-15.2
	c-1.4-2.2-0.3-2.9,5.3-3.3C230.9,329.1,235.5,343.5,237,358.2z"/>
<path class="st13" d="M142.2,392.7c-0.5,0.2-0.9,0.3-1.4,0.5c-4.9-7.7-9.9-15.4-14.6-23.2c-2.9-4.9-6-9.5-10.9-12.7
	c0.8-1.8,2.4-1.9,3.7-2.6c1.5-0.8,2.7-0.7,2.7,1.3c0.1,5.6,3.8,9.5,6.4,13.8C132.8,377.5,137.5,385.1,142.2,392.7z"/>
<path class="st5" d="M472.8,126.8c0.6,1.5,2.1,1.2,3.2,1.5c-4,2.7-8.6,3.6-13.3,3.8c-1-0.3-2.1-0.6-2.3-1.6c-0.2-1,1-1.1,1.7-1.3
	C465.7,128.4,469.3,127.6,472.8,126.8z"/>
<path class="st15" d="M157,405.4c-3.7,1.5-7.4,3.1-11.1,4.6c0-0.4,0-0.7,0-1.1c3.1-3.1,6.9-4.3,11.1-4.8
	C157,404.5,157,405,157,405.4z"/>
<path class="st14" d="M74,368.2c0.7,1.7,1.4,3.3,2.2,5c-0.8,1-1.6,3.4-2.9,2.1C71.1,373,71.1,370.2,74,368.2z"/>
<path class="st14" d="M243,301.2c0.1,1.6,0.1,3.2,0.2,4.8c-1.1,0.1-2.5,1.8-3.2-0.3C239.2,303.2,240.7,301.9,243,301.2z"/>
<path class="st5" d="M70.4,433c0.6,1.7,2.2,3.2,0.5,5.1C69.8,436.5,70.1,434.8,70.4,433z"/>
<path class="st14" d="M469.7,149.8c-1.2-1-2.4-2.1-2.7-3.8C469.7,146,468.9,148.4,469.7,149.8z"/>
<path class="st7" d="M190.1,449.2c-0.4,0.2-0.7,0.5-1.1,0.6c0,0-0.2-0.2-0.3-0.3c0.4-0.2,0.8-0.4,1.2-0.6
	C189.9,448.9,190.1,449.2,190.1,449.2z"/>
<path class="st8" d="M147,391.1c0.3,0.3,0.7,0.5,1,0.8C147.4,391.9,147.1,391.6,147,391.1z"/>
<path class="st10" d="M275.8,393.2c-0.1-0.2-0.2-0.4-0.3-0.7c0.2,0.1,0.4,0.3,0.6,0.4C276.1,392.9,275.8,393.2,275.8,393.2z"/>
<path class="st9" d="M404.3,145.1c-1.1,18-2,36.1-3.4,54.1c-1.7,21-3.9,41.9-5.7,62.8c-1.4,16-2.7,32-4.2,48c-0.9,10-2,20-3,30
	c-5.9-3.4-6.7-9.6-7.8-15.2c-3.5-17.1-4.2-34.6-2.9-52c1.4-19.4,1.8-38.9,4.5-58.3c2-14.7,3.3-29.5,7.1-43.9
	c2.2-8.5,6-16.1,10.9-23.3C401,145.6,402.3,144.9,404.3,145.1z"/>
<path class="st0" d="M417.1,380.3c-2.5-0.9-3.2-2.8-2.9-5.1c1-7.2,2.6-14.3,2.9-21.6c0.2-4.1,3.4-6.2,7.3-5.1c3,0.9,7-0.4,8.6,3.7
	c-1,6.2-2,12.4-2.9,18.6C428.8,380.9,430.9,382.8,417.1,380.3z M417,374.3c-0.2,3.6-0.1,3.6,5.3,4.6c2.9,0.5,4.7,0.3,5.2-3.3
	c0.8-6.7,1.8-13.5,3.1-20.2c0.7-3.7-1.8-3.9-4.1-4.1c-2.3-0.2-5.6-2-6.3,2.3C419,360.5,418,367.4,417,374.3z"/>
<path class="st0" d="M413.9,417c-2.9-1.9-3.2-4.8-2.8-7.9c0.6-4.4,1.3-8.8,2-13.1c0.4-2.5,1.9-4.3,4.3-4.9c3.1-0.7,5.5,0.4,6.9,3.4
	c-0.7,5.3-1.5,10.5-2.2,15.8C421.3,416.1,420,417.1,413.9,417z M422,397.9c0.2-2.1,0.1-4.2-2.4-4.7c-2.8-0.6-3.8,1.4-4.2,3.7
	c-0.8,4.7-1.6,9.4-2.2,14.2c-0.3,2.1,0.7,3.6,2.8,4c2.2,0.4,3.5-1,3.8-3C420.7,407.3,421.3,402.6,422,397.9z"/>
<path class="st11" d="M400.2,521.3c-0.7,4.9-1.5,10-2.3,15.1c-0.3,1.7-1.2,2.9-3,2.4c-1.5-0.4-1.9-1.6-1.6-3.2
	c0.9-5,1.7-10.1,2.6-15.2c0.3-1.8,0-4.3,2.5-4.1C401.4,516.6,399.6,519.5,400.2,521.3z"/>
<path class="st14" d="M417.1,380.3c13.8,2.5,11.7,0.6,13.2-9.6c0.9-6.2,1.9-12.4,2.9-18.6c1.6,1.1,1.6,2.6,1.3,4.4
	c-1,6.4-1.8,12.8-3,19.1c-0.5,2.6,0,6.4-3.5,7C424.3,383.4,420.1,383.7,417.1,380.3z"/>
<path class="st11" d="M398.2,503.8c0.6-4.1,1.2-8.1,1.8-12.2c0.3-1.6,1.1-2.9,3-2.5c1.5,0.3,2,1.6,1.7,3.1
	c-0.6,4.1-1.2,8.1-1.9,12.2c-0.3,1.6-1.1,2.8-2.9,2.7C397.9,506.9,398,505.3,398.2,503.8z"/>
<path class="st14" d="M413.9,417c6.1,0.1,7.4-1,8.2-6.7c0.7-5.3,1.5-10.5,2.2-15.8c0.9,0.8,1.6,1.8,1.4,3
	c-0.9,5.6-1.5,11.2-2.8,16.6C421.8,418.9,418.3,419.9,413.9,417z"/>
<path class="st15" d="M263.9,359.8c-1.4,0.5-2.7,1.2-4.2,1.5c-4.9,1.1-9.1-1-11.1-5.3c-1.9-4.1-0.7-8.8,2.9-11.6
	c3.7-2.8,8.4-2.6,12.3,0.6c0.8,0.6,1.5,1.3,2.2,2C268,351.7,267,355.9,263.9,359.8z M263.9,352.1c0.1-3.6-3.1-6.8-6.6-6.6
	c-3.8,0.3-6.2,2.4-6.3,6.4c-0.1,3.9,2.3,6.1,6.1,6.5C260.6,358.9,263.9,355.7,263.9,352.1z"/>
<path class="st15" d="M271.9,338c-5.2,0.9-9.8,0.2-12.3-5c-2-4.2-1.3-8.2,2.2-11.3c3.5-3.1,7.5-3.4,11.5-0.9
	c1.4,0.9,2.5,2.2,3.7,3.3C278.9,330,277.5,334.8,271.9,338z M267.7,335.2c4.2,0,7.4-3.2,7-6.7c-0.4-3.8-2.7-6-6.5-6.2
	c-3.6-0.2-6.6,3.1-6.4,6.8C262,333,264.4,334.9,267.7,335.2z"/>
<path class="st15" d="M301.3,339.6c0,5.7-4.2,9.6-10,9.5c-5.3-0.1-9.5-4.3-9.5-9.6c0-5.3,4.2-9.5,9.5-9.6
	C296.8,329.9,301.3,334.3,301.3,339.6z M291.1,346c4.2-0.1,7.2-3.3,6.8-6.9c-0.4-3.8-2.7-6-6.6-6c-3.7,0-6.6,3.2-6.3,6.9
	C285.4,343.8,287.8,345.7,291.1,346z"/>
<path class="st15" d="M286.9,370.7c-2.5,1.4-5.3,2-8.1,1.4c-4-0.7-6.5-3.3-7.4-7.1c-1-4.1,0.4-7.5,3.7-10c3.2-2.4,6.8-2.6,10.2-0.6
	c1.5,0.9,2.7,2.3,4.1,3.5c-0.1,0.5,0.1,0.9,0.7,1c0,0,0,0.1,0,0.1C290.7,363.4,290,367.4,286.9,370.7z M287.2,362.7
	c-0.4-4-2.6-6.1-6.4-6.4c-3.5-0.2-6.7,3.1-6.6,6.7c0.1,3.6,3.3,6.6,6.9,6.2C285,368.8,286.9,366.4,287.2,362.7z"/>
<path class="st15" d="M249.1,328.6c0.3,3.8-1.1,6-4.2,6.3c-2.9,0.3-4.6-1.5-5.1-4.3c-0.4-2.4-0.8-4.9-0.9-7.4
	c-0.1-2.5,1.3-4.1,3.7-4.5c2.7-0.5,4.6,0.7,5.3,3.3C248.6,324.3,248.8,326.8,249.1,328.6z M245.9,328.3c-0.9-1.9,0.7-5.4-2.6-6.4
	c-1.3-0.4-1.5,1.5-1.2,2.6c0.6,2.4-0.5,5.8,2.4,6.9C246,332.1,246,329.9,245.9,328.3z"/>
<path class="st5" d="M271.9,338c5.6-3.2,7.1-8,5.2-13.9c4.3,1.2,4.5,4.7,3.7,7.9C279.7,336.4,276.5,338.5,271.9,338z"/>
<path class="st5" d="M286.9,370.7c3.1-3.4,3.8-7.4,3.2-11.7c3.8,1.3,4.4,4.3,3,7.4C292.1,368.7,291.1,372.4,286.9,370.7z"/>
<path class="st5" d="M263.9,359.8c3.1-3.9,4-8.1,2.2-12.8c3.9,1.1,4,4.2,3.9,7.4c-0.1,3.2-2.3,4.9-4.7,6.3
	C264.7,361.1,264.1,360.5,263.9,359.8z"/>
<path class="st5" d="M290.1,358.9c-0.6-0.1-0.8-0.4-0.7-1C289.6,358.3,289.8,358.6,290.1,358.9z"/>
<path class="st15" d="M97.7,419.8c-5.5,4.5-13.5,6.7-16,4.7c-2.3-1.8-5.5-12.8-4.4-14.7c1.3-2.2,10.9-5.6,13.6-4.8
	c6.9,2,9,4.9,8.2,11.6c2.7-1.9,4.6-5.4,8.3-3.6c2.8,1.3,6.4,1.4,8,4.5c1.5,2.9,2.5,6.1,3.7,9.2c0.1,0.1,0.1,0.3,0,0.5
	c-0.9,6.6-6.9,5.6-11,7.4c-3.1,1.4-6,0.6-7.1-3C99.9,427.9,97.6,424.5,97.7,419.8z M96,411.6c-1.9-1.6-4.5-4.1-7.5-3.4
	c-3,0.7-8.2,0.5-8.1,4.6c0,3.1,0.4,8.4,4.8,9.2C89.8,422.8,96.4,416.4,96,411.6z M115.8,427.7c-0.4-6.1-6.2-12.7-9.9-11.7
	c-3.2,0.9-4.6,4.6-4.2,7.1c0.5,3.1,0.5,8.4,4.8,8.5C109.6,431.7,113.6,430.3,115.8,427.7z"/>
<path class="st15" d="M108,398.1c-1.8,0-1.8,1.7-2.4,2.8c-1.4,2.5-2.5,5.8-5.9,5c-3.7-0.9-8-1.5-10.1-5.5c-5.3-10.2-2-16,9.7-17.1
	c2.3-0.2,3.8,0.9,4.8,2.8c2,3.8,3.4,7.8,3.8,12.1C107.9,398.2,108,398.1,108,398.1z M100,386.5c-4.5,0.3-10.3,3.8-10.1,5.7
	c0.6,5.1,5.5,11,9.4,10.4c3.6-0.6,4.7-4.5,4.5-7.2C103.5,392.2,102.7,388.4,100,386.5z"/>
<path class="st15" d="M126.1,397c0.1,0.6,0.1,1.3,0.3,1.9c3.2,9.5,3.2,9.5-5.4,14c-0.6,0.1-1.3,0.2-1.9,0.4c-0.9-0.3-1.6,0-2.2,0.6
	c-1.7-0.1-3.2-0.9-4.6-1.6c-7.1-3.6-7.3-4.1-4.6-11.4c0.3-0.9,0.9-1.8,0.4-2.8c0,0-0.1,0.1-0.1,0.1c2.9-1.9,6.2-2.7,9.3-4.2
	C121.3,392,124.1,393.1,126.1,397z M125.5,406.6c0.2-2.4-3.7-10.3-4.8-10.4c-4-0.5-11.2,5.1-11.2,9.3c0,4,4.3,4.8,6.8,4.9
	C119.5,410.4,123.2,409,125.5,406.6z"/>
<path class="st15" d="M111.9,366.6c5.4,1.1,9.2,6.2,9.2,12.5c-4,4-6.2,3.9-9.3-0.6c-1.2-1.8-2.4-3.5-3.2-5.5
	C107.3,369.8,108.9,367.7,111.9,366.6z M118.1,377.2c0.1-1.4-4-7.4-5.1-7.4c-0.9,0-1.5,0.5-1.6,1.5c-0.1,1.1,4.3,7.4,5.2,7.5
	C117.5,378.8,117.9,378.1,118.1,377.2z"/>
<path class="st5" d="M116.8,413.9c0.6-0.6,1.3-0.9,2.2-0.6C118.5,414.1,117.7,414.2,116.8,413.9z"/>
<path class="st5" d="M481,128.2c7.2-1.8,14.5-3.6,21.7-5.6c3.1-0.9,3.9,0.4,3.3,2.9c-3.2,13.2-5,26.6-8.9,39.6
	c-2.1-3.2-0.7-6.8-1-10.2c-0.7-8.6-2.3-16.8-9.4-22.7C484.8,130.7,482.9,129.5,481,128.2z"/>
<path class="st5" d="M496.8,169c-0.2,0.4-0.5,0.8-0.7,1.1C496.3,169.7,496.5,169.4,496.8,169z"/>
<path class="st15" d="M190.3,402.2c1.6,0.1,2.9,1.2,3.2,2.6c0.3,1.5-1.1,2.1-2.5,2.2c-1.5,0.1-2.6-0.5-2.8-2
	C187.9,403.4,188.9,402.6,190.3,402.2z"/>
<path class="st0" d="M195.4,397.7c-0.3,1.3-1,2.1-2.4,2.2c-1.6,0.1-2.7-0.6-2.8-2.2c-0.1-1.5,0.8-2.6,2.4-2.5
	C194,395.4,194.8,396.6,195.4,397.7z"/>
<path class="st0" d="M202.9,394.6c0.1,1.5-0.5,2.4-1.9,2.4c-1.5,0-2.6-0.7-2.6-2.2c0.1-1.1,0.7-2.3,2-2.4
	C202.1,392.1,202.6,393.3,202.9,394.6z"/>
<path class="st0" d="M198.7,399.4c1.4,0.1,2,1,2.2,2.3c0.2,1.3-0.3,2.3-1.8,2.3c-1.3,0-2.4-0.4-2.6-1.8
	C196.2,400.6,197.4,399.9,198.7,399.4z"/>
<path class="st0" d="M186.8,400.9c-0.2,1.4-1,2-2.3,2.1c-1.6,0.2-2.5-0.6-2.5-2.2c0-1.3,0.6-2.3,2-2.3
	C185.5,398.4,186.2,399.7,186.8,400.9z"/>
<path class="st0" d="M207.6,401c-1.8-0.1-2.7-1-2.6-2.5c0.1-1.3,0.9-2.2,2.2-2.1c1.3,0.2,2.4,1.3,2.5,2.6
	C209.8,400.4,208.5,400.7,207.6,401z"/>
<path class="st0" d="M211.8,391.8c-0.1,1.4-1,2-2.2,2.1c-1.6,0.1-2.5-0.7-2.6-2.2c0-1.2,0.6-2.3,2-2.3
	C210.5,389.4,211.1,390.7,211.8,391.8z"/>
<path class="st0" d="M231,378.1c-1.1,2-3,3.2-5,4C226.4,379.2,228.2,378,231,378.1z"/>
<path class="st0" d="M234,376.1c-0.5,1.5-1.6,2-3,2C231.4,376.5,232.5,376,234,376.1z"/>
<path class="st0" d="M144,411.1c-0.3,1.1-1,1.7-2,2C141.8,411.6,142.6,411,144,411.1z"/>
<path class="st0" d="M145,410c-0.3,0.3-0.7,0.7-1,1C144,410.4,144.4,410.1,145,410z"/>
<path class="st0" d="M146,408.9c0,0.4,0,0.7,0,1.1c-0.3,0-0.7,0-1,0.1C145.3,409.7,145.6,409.3,146,408.9z"/>
<path class="st0" d="M218,427.6c0.1,2.1-0.9,3.1-2.4,3.7c-3.9,1.5-7.7,2.8-11.6,4.3c-2.2,0.9-3.6-0.2-4.5-1.9
	c-1.1-1.9,0.2-3.4,1.7-4.1c4.2-1.9,8.5-3.5,12.9-5C216.6,423.8,217.5,425.8,218,427.6z M215.8,427.6c-4.9-0.2-9.1,2.1-13.4,3.7
	c-0.5,0.2-1.2,0.8-0.7,1.5c0.2,0.4,0.9,0.8,1.1,0.7C207.3,431.9,212.1,431,215.8,427.6z"/>
<path class="st0" d="M161.8,453.2c-11.7,0-20.8-9.1-20.7-20.4c0.2-11.3,9.6-20.6,20.7-20.7c11.1-0.1,21,9.5,21,20.5
	C182.9,444,173.4,453.3,161.8,453.2z M151,443c5.6,5.4,12.4,6.5,18.4,2.8c5.8-3.5,8.7-10.4,7.1-16.6c-2-7.4-7.2-11.1-15.5-11.2
	c-6.5-0.2-10.7,3.4-13,9C145.6,432.8,146.1,438.4,151,443z"/>
<path class="st0" d="M266.9,401.9c0.2,10.9-9.5,20.7-20.6,21c-10.8,0.3-20.8-9.5-21.1-20.5c-0.3-10.8,9.5-20.9,20.4-21.2
	C256.7,380.9,266.7,390.6,266.9,401.9z M245,387.1c-6.4,0-10.7,3.5-13,9.1c-2.4,5.8-1.6,11.4,3,16.1c6.4,5.5,12.7,6.4,19,2.4
	c5.7-3.6,8.3-10.4,6.4-16.8C258.2,390.6,253.3,387.2,245,387.1z"/>
<path class="st5" d="M417,374.3c1-6.9,2-13.8,3.1-20.7c0.7-4.3,4-2.5,6.3-2.3c2.2,0.2,4.7,0.4,4.1,4.1c-1.2,6.7-2.3,13.4-3.1,20.2
	c-0.4,3.6-2.3,3.8-5.2,3.3C416.9,377.9,416.8,377.9,417,374.3z M428,356.3c0.8-1.9-0.8-2.2-2.6-2.7c-2.2-0.6-3,0.3-3.2,2.4
	c-0.8,5.7-1.6,11.5-2.6,17.2c-0.4,2.3,0.2,2.9,2.3,3.1c2,0.3,3,0,3.3-2.3C425.9,368.2,426.9,362.5,428,356.3z"/>
<path class="st5" d="M422,397.9c-0.7,4.7-1.3,9.5-2.2,14.2c-0.3,1.9-1.6,3.4-3.8,3c-2.1-0.4-3.1-2-2.8-4c0.7-4.7,1.4-9.5,2.2-14.2
	c0.4-2.3,1.4-4.3,4.2-3.7C422.1,393.7,422.3,395.7,422,397.9z M420,398.4c-0.2-1.2,0.9-3.1-1.2-3.2c-1.4-0.1-1.4,1.5-1.6,2.7
	c-0.7,4.2-1.3,8.5-2,12.7c-0.1,1-0.2,2.1,1.1,2.3c1.4,0.2,1.5-0.9,1.7-1.9C418.7,406.8,419.3,402.5,420,398.4z"/>
<path class="st8" d="M263.9,352.1c-0.1,3.6-3.3,6.7-6.8,6.4c-3.8-0.4-6.1-2.6-6.1-6.5c0.1-3.9,2.5-6.1,6.3-6.4
	C260.8,345.3,264,348.6,263.9,352.1z M261.1,351.8c-0.7-1.2-0.4-4-3.2-3.7c-1.9,0.2-4.8,0.4-4.4,3.5c0.2,1.7,0.4,4.5,3.2,4.2
	C258.6,355.7,261.3,355.5,261.1,351.8z"/>
<path class="st8" d="M267.7,335.2c-3.3-0.3-5.6-2.2-5.9-6.2c-0.2-3.7,2.8-6.9,6.4-6.8c3.8,0.2,6.1,2.4,6.5,6.2
	C275,332,271.9,335.2,267.7,335.2z M265.7,329.3c-0.4,1.3-0.7,2.7,1,2.7c2,0,4.4-0.5,4.9-2.5c0.5-2.1-1.9-3-3.6-3.4
	C265.4,325.6,266.3,328.2,265.7,329.3z"/>
<path class="st8" d="M291.1,346c-3.3-0.3-5.7-2.2-6-6.1c-0.4-3.7,2.6-6.9,6.3-6.9c3.9,0,6.2,2.2,6.6,6
	C298.3,342.7,295.2,345.9,291.1,346z M288.9,343.1c1.4,1.4,2.8,1.3,4.3,0.2c1.1-0.2,1.8-0.9,2.1-2c1-1.5,1.1-2.9-0.2-4.3
	c-0.3-0.3-0.7-0.7-1-1c-1.7-1.4-3.4-1.5-5.1,0c-0.3,0.3-0.7,0.7-1,1c-1.4,1.7-1.4,3.4,0,5.1C288.3,342.5,288.6,342.8,288.9,343.1z"
	/>
<path class="st8" d="M287.2,362.7c-0.2,3.8-2.1,6.2-6,6.5c-3.7,0.3-6.8-2.6-6.9-6.2c-0.1-3.6,3-6.9,6.6-6.7
	C284.5,356.5,286.7,358.7,287.2,362.7z M281.9,360c-1.1,1.3-3,0.8-4.3,1.6c1.1,2.7,2.2,5.1,5.8,3c-0.9-1.3-1.6-2.7-1.2-4.4
	c0.1-0.2,0.2-0.4,0.3-0.6C282.3,359.7,282.1,359.8,281.9,360z"/>
<path class="st8" d="M245.9,328.3c0.1,1.7,0.1,3.8-1.4,3.2c-2.9-1.2-1.9-4.5-2.4-6.9c-0.3-1.1,0-3,1.2-2.6
	C246.6,322.9,245,326.4,245.9,328.3z"/>
<path class="st8" d="M96,411.6c0.3,4.8-6.3,11.2-10.9,10.3c-4.4-0.8-4.8-6.1-4.8-9.2c0-4.1,5.2-3.8,8.1-4.6
	C91.5,407.5,94.1,410,96,411.6z"/>
<path class="st8" d="M115.8,427.7c-2.1,2.6-6.2,4-9.4,3.9c-4.3-0.2-4.3-5.4-4.8-8.5c-0.4-2.5,1-6.2,4.2-7.1
	C109.6,415,115.4,421.7,115.8,427.7z"/>
<path class="st8" d="M100,386.5c2.7,1.9,3.5,5.7,3.7,8.9c0.2,2.7-0.9,6.7-4.5,7.2c-3.9,0.6-8.8-5.3-9.4-10.4
	C89.7,390.3,95.5,386.7,100,386.5z"/>
<path class="st8" d="M125.5,406.6c-2.3,2.4-6,3.8-9.2,3.7c-2.5-0.1-6.8-0.8-6.8-4.9c0-4.2,7.3-9.8,11.2-9.3
	C121.8,396.3,125.7,404.2,125.5,406.6z M119.8,404.9c1.1-0.1,1.8-0.8,2-1.8c0.1-1.3-0.9-1.6-1.9-1.7c-1-0.2-1.6,0.3-1.6,1.3
	C118.2,403.6,118.7,404.5,119.8,404.9z"/>
<path class="st8" d="M118.1,377.2c-0.2,0.9-0.6,1.5-1.6,1.5c-0.9,0-5.3-6.4-5.2-7.5c0.1-0.9,0.7-1.5,1.6-1.5
	C114.1,369.8,118.2,375.9,118.1,377.2z"/>
<path class="st9" d="M215.8,427.6c-3.7,3.4-8.5,4.3-13,6c-0.3,0.1-0.9-0.4-1.1-0.7c-0.5-0.8,0.2-1.4,0.7-1.5
	C206.7,429.7,210.8,427.3,215.8,427.6z"/>
<path class="st10" d="M161.1,418.1c8.3,0,13.5,3.8,15.5,11.2c1.7,6.2-1.3,13.1-7.1,16.6c-6.1,3.7-12.9,2.6-18.4-2.8
	C146.2,431.3,150.6,422.7,161.1,418.1z M171.9,433c0-5-4.9-9.9-9.9-9.9c-5.3,0-9.8,4.5-9.9,9.8c-0.1,5,4.9,10.2,9.8,10
	C167,442.7,171.9,437.9,171.9,433z"/>
<path class="st14" d="M161.1,418.1c-10.4,4.6-14.8,13.2-10.1,25c-4.9-4.6-5.4-10.2-3-16C150.3,421.4,154.5,417.9,161.1,418.1z"/>
<path class="st10" d="M245,387.1c8.3,0.1,13.2,3.5,15.3,10.7c1.9,6.4-0.6,13.2-6.4,16.8c-6.3,4-12.6,3.2-19-2.4
	c-0.5-3.7-2.3-7.1-1.7-11.1C234.5,394,239,390,245,387.1z M246.1,392.1c-5,0-10.1,5-10,9.8c0.1,5.2,4.8,10,9.8,10
	c5.2,0.1,10.1-5,10-10.4C255.8,396.9,250.9,392.1,246.1,392.1z"/>
<path class="st14" d="M245,387.1c-6,3-10.6,7-11.7,14.1c-0.6,4,1.2,7.4,1.7,11.1c-4.6-4.7-5.4-10.3-3-16.1
	C234.4,390.6,238.6,387.1,245,387.1z"/>
<path class="st0" d="M428,356.3c-1,6.3-2,12-2.8,17.7c-0.3,2.3-1.3,2.5-3.3,2.3c-2.1-0.3-2.8-0.9-2.3-3.1c1.1-5.7,1.8-11.4,2.6-17.2
	c0.3-2,1-3,3.2-2.4C427.2,354,428.8,354.4,428,356.3z"/>
<path class="st0" d="M420,398.4c-0.7,4.2-1.3,8.4-2,12.6c-0.2,1-0.3,2.1-1.7,1.9c-1.3-0.2-1.3-1.3-1.1-2.3c0.6-4.2,1.3-8.5,2-12.7
	c0.2-1.1,0.2-2.7,1.6-2.7C420.9,395.3,419.8,397.2,420,398.4z"/>
<path class="st9" d="M261.1,351.8c0.2,3.7-2.5,3.8-4.4,4c-2.8,0.3-3-2.5-3.2-4.2c-0.4-3.1,2.4-3.3,4.4-3.5
	C260.7,347.9,260.4,350.6,261.1,351.8z M259.1,352.2c-0.1-1.1-0.3-2.1-1.6-2c-1.1,0-1.7,0.8-1.6,2c0.1,0.8,0.3,1.7,1.4,1.7
	C258.4,354,259,353.4,259.1,352.2z"/>
<path class="st9" d="M265.7,329.3c0.6-1.2-0.3-3.8,2.4-3.2c1.7,0.3,4,1.3,3.6,3.4c-0.5,2-2.9,2.5-4.9,2.5
	C265,332,265.3,330.6,265.7,329.3z"/>
<path class="st9" d="M287.9,342.1c-1.4-1.7-1.4-3.4,0-5.1l0.3,0.3c0,1.5,0,3.1,0,4.6C288.2,341.9,287.9,342.1,287.9,342.1z"/>
<path class="st9" d="M288.9,336c1.7-1.5,3.4-1.4,5.1,0c0,0-0.2,0.3-0.2,0.3c-1.5,0-3.1,0-4.6,0L288.9,336z"/>
<path class="st9" d="M295,337c1.4,1.4,1.3,2.8,0.2,4.3c-0.2-0.1-0.3-0.3-0.5-0.4c0-1.2,0-2.5,0-3.7L295,337z"/>
<path class="st9" d="M293.2,343.3c-1.5,1.1-2.9,1.2-4.3-0.2c0,0,0.2-0.3,0.2-0.3c1.2,0,2.5,0,3.7,0C293,343,293.1,343.2,293.2,343.3
	z"/>
<path class="st9" d="M295.3,341.3c-0.2,1.1-0.9,1.8-2.1,2c-0.1-0.2-0.3-0.3-0.4-0.5c0.6-0.7,1.3-1.3,1.9-2
	C295,341,295.1,341.2,295.3,341.3z"/>
<path class="st9" d="M288.9,343.1c-0.3-0.3-0.7-0.7-1-1c0,0,0.3-0.3,0.3-0.3c0.3,0.3,0.6,0.7,0.9,1L288.9,343.1z"/>
<path class="st9" d="M294.1,336c0.3,0.3,0.7,0.7,1,1c0,0-0.3,0.2-0.2,0.2c-0.3-0.3-0.6-0.6-1-0.9L294.1,336z"/>
<path class="st9" d="M287.9,337c0.3-0.3,0.7-0.7,1-1c0,0,0.3,0.3,0.3,0.3c-0.3,0.3-0.6,0.6-0.9,1L287.9,337z"/>
<path class="st9" d="M282.1,360.2c-0.4,1.7,0.3,3.1,1.2,4.4c-3.5,2-4.7-0.4-5.8-3c1.3-0.8,3.2-0.3,4.3-1.6L282.1,360.2z"/>
<path class="st9" d="M281.9,360c0.2-0.1,0.4-0.2,0.6-0.3c-0.1,0.2-0.2,0.4-0.3,0.6C282.1,360.2,281.9,360,281.9,360z"/>
<path class="st9" d="M119.8,404.9c-1.1-0.4-1.5-1.3-1.6-2.3c0-1,0.6-1.5,1.6-1.3c1,0.2,2.1,0.5,1.9,1.7
	C121.6,404.1,120.9,404.8,119.8,404.9z"/>
<path class="st0" d="M171.9,433c0,4.9-4.8,9.7-10.1,9.9c-4.8,0.1-9.9-5-9.8-10c0.1-5.3,4.7-9.7,9.9-9.8
	C167,423.1,171.9,427.9,171.9,433z M168.1,433.1c0.2-4.1-2.3-6.2-6-6.7c-3.4-0.5-6.2,2.6-6.2,6.3c0,3.7,1.9,5.9,5.7,6.3
	C165.2,439.4,168,436.8,168.1,433.1z"/>
<path class="st0" d="M246.1,392.1c4.8,0,9.7,4.8,9.8,9.5c0.1,5.3-4.8,10.4-10,10.4c-5-0.1-9.7-4.8-9.8-10
	C236,397.1,241.1,392,246.1,392.1z M246.6,408.2c3.4-0.6,5.7-2.5,5.5-6.6c-0.2-4.1-2.6-5.9-6.5-5.7c-3.8,0.2-5.7,2.4-5.6,6.1
	C240,406.1,242.3,407.9,246.6,408.2z"/>
<path class="st8" d="M259.1,352.2c-0.1,1.2-0.7,1.8-1.9,1.7c-1-0.1-1.3-0.9-1.4-1.7c-0.1-1.2,0.5-2,1.6-2
	C258.8,350.1,259.1,351.1,259.1,352.2z"/>
<path class="st8" d="M288.2,337.3c0.3-0.3,0.6-0.6,0.9-1c1.5,0,3.1,0,4.6,0c0.3,0.3,0.6,0.6,1,0.9c0,1.2,0,2.5,0,3.7
	c-0.6,0.7-1.3,1.3-1.9,2c-1.2,0-2.5,0-3.7,0c-0.3-0.3-0.6-0.7-0.9-1C288.2,340.3,288.2,338.8,288.2,337.3z"/>
<path class="st10" d="M168.1,433.1c-0.1,3.7-2.9,6.3-6.5,5.9c-3.7-0.3-5.7-2.5-5.7-6.3c0-3.8,2.8-6.8,6.2-6.3
	C165.7,427,168.2,429,168.1,433.1z"/>
<path class="st10" d="M246.6,408.2c-4.2-0.3-6.6-2.1-6.7-6.2c-0.1-3.7,1.8-5.9,5.6-6.1c3.9-0.2,6.3,1.6,6.5,5.7
	C252.3,405.7,250,407.6,246.6,408.2z"/>
</svg>
