<svg fill="#000000" xmlns="http://www.w3.org/2000/svg"  viewBox="0 0 19.688 17" width="24px" height="24px"><path d="M 0.8203125 0 A 0.232 0.232 0 0 0 0.58984375 0.234375 L 0.58984375 2.2480469 L 0.75195312 2.4101562 L 0.58984375 2.671875 L 0.58984375 4.3632812 A 0.187 0.187 0 0 0 0.40039062 4.5507812 L 0.40039062 5.5878906 A 0.187 0.187 0 0 0 0.58984375 5.7734375 L 0.58984375 5.859375 L 0.69921875 6.015625 L 0.58789062 6.1582031 L 0.58789062 9.2714844 A 0.348 0.348 0 0 0 0.93554688 9.6210938 L 1.7421875 9.6210938 A 0.348 0.348 0 0 0 2.0898438 9.2714844 L 2.0898438 5.7714844 L 3.0996094 5.7714844 L 3.7050781 5.7714844 A 0.7 0.7 0 0 0 4.4042969 5.0722656 L 4.4042969 0.69921875 A 0.7 0.7 0 0 0 3.7050781 0 L 0.8203125 0 z M 10.683594 0 A 0.232 0.232 0 0 0 10.451172 0.23242188 L 10.451172 2.3515625 L 10.539062 2.6464844 L 10.451172 2.8144531 L 10.451172 3.4433594 L 10.597656 3.6289062 L 10.451172 3.9140625 A 0.187 0.187 0 0 0 10.265625 4.1015625 L 10.265625 5.0136719 A 0.187 0.187 0 0 0 10.451172 5.1992188 L 10.451172 9.3886719 A 0.232 0.232 0 0 0 10.683594 9.6210938 L 13.46875 9.6210938 A 0.7 0.7 0 0 0 14.169922 8.921875 L 14.169922 5.265625 L 14.169922 5.125 A 0.79 0.79 0 0 0 13.738281 4.4355469 L 13.804688 4.3847656 A 0.927 0.927 0 0 0 14.171875 3.6835938 L 14.171875 3.3144531 L 14.099609 3.0996094 L 14.160156 2.8535156 L 14.050781 2.6289062 L 14.160156 2.3632812 L 14.160156 0.46679688 A 0.464 0.464 0 0 0 13.699219 0 L 10.683594 0 z M 15.746094 0 A 0.58 0.58 0 0 0 15.167969 0.58007812 L 15.167969 8.9238281 A 0.7 0.7 0 0 0 15.863281 9.6210938 L 18.242188 9.6210938 A 0.7 0.7 0 0 0 18.941406 8.921875 L 18.941406 4.0214844 A 0.232 0.232 0 0 0 18.710938 3.7890625 L 17.451172 3.7890625 A 0.232 0.232 0 0 0 17.21875 4.0214844 L 17.21875 4.84375 A 0.232 0.232 0 0 0 17.451172 5.0742188 L 17.5 5.0742188 L 17.5 7.90625 L 17.599609 7.9511719 A 1.111 1.111 0 0 1 17.5 8.3046875 C 17.487 8.3186875 17.418391 8.2604844 17.400391 8.2714844 A 0.232 0.232 0 0 1 17.269531 8.3125 L 16.900391 8.3125 A 0.232 0.232 0 0 1 16.667969 8.0800781 L 16.667969 1.6796875 L 16.613281 1.453125 A 0.206 0.206 0 0 1 16.705078 1.2714844 C 16.742078 1.2464844 16.852391 1.2890625 16.900391 1.2890625 L 17.400391 1.2890625 A 0.232 0.232 0 0 1 17.632812 1.5214844 L 17.632812 2.0996094 A 0.232 0.232 0 0 0 17.863281 2.3320312 L 18.703125 2.3320312 A 0.232 0.232 0 0 0 18.935547 2.0996094 L 18.935547 0.58007812 A 0.58 0.58 0 0 0 18.355469 0 L 17.632812 0 L 15.746094 0 z M 5.6425781 0.013671875 A 0.232 0.232 0 0 0 5.4335938 0.24414062 L 5.4335938 8.9335938 A 0.7 0.7 0 0 0 6.1289062 9.6308594 L 8.8183594 9.6308594 A 0.7 0.7 0 0 0 9.5175781 8.9296875 L 9.5175781 1.3652344 L 9.4003906 1.125 L 9.5136719 0.86914062 L 9.5136719 0.69921875 L 9.4355469 0.61523438 L 9.5136719 0.4765625 L 9.5136719 0.24414062 A 0.232 0.232 0 0 0 9.28125 0.013671875 L 8.2421875 0.013671875 A 0.232 0.232 0 0 0 8.0117188 0.24414062 L 8.0117188 6.1132812 L 7.9511719 6.3398438 L 8.0117188 6.5273438 L 8.0117188 8.0703125 A 0.232 0.232 0 0 1 7.7792969 8.3027344 L 7.6660156 8.171875 L 7.1894531 8.2402344 L 7.1679688 8.3007812 A 0.232 0.232 0 0 1 6.9355469 8.0683594 L 6.9355469 0.24414062 A 0.232 0.232 0 0 0 6.6992188 0.013671875 L 5.6640625 0.013671875 A 0.232 0.232 0 0 0 5.6425781 0.013671875 z M 12.183594 1.2871094 L 12.427734 1.2871094 A 0.232 0.232 0 0 1 12.658203 1.5195312 L 12.658203 3.9140625 L 12.224609 3.9140625 L 12.136719 3.8066406 L 11.951172 3.7773438 L 11.951172 1.5195312 A 0.232 0.232 0 0 1 12.183594 1.2871094 z M 2.1972656 1.3125 A 0.116 0.116 0 0 1 2.2050781 1.3125 L 2.7382812 1.3125 A 0.116 0.116 0 0 1 2.8554688 1.4296875 L 2.8554688 3.96875 L 2.9726562 3.96875 L 2.9628906 4.21875 L 2.8554688 4.21875 A 0.146 0.146 0 0 1 2.7089844 4.3652344 L 2.2382812 4.3652344 A 0.146 0.146 0 0 1 2.0917969 4.21875 L 1.9589844 4.1191406 L 2.0898438 3.9882812 L 2.0898438 1.4296875 A 0.116 0.116 0 0 1 2.1972656 1.3125 z M 12.183594 5.1992188 L 12.427734 5.1992188 A 0.232 0.232 0 0 1 12.658203 5.4316406 L 12.658203 7.1328125 L 12.775391 7.3378906 L 12.658203 7.484375 L 12.658203 8.1015625 C 12.658203 8.1235625 12.722563 8.1301563 12.726562 8.1601562 A 0.248 0.248 0 0 1 12.65625 8.3105469 A 0.223 0.223 0 0 1 12.519531 8.359375 A 0.238 0.238 0 0 1 12.427734 8.3339844 L 12.183594 8.3339844 A 0.232 0.232 0 0 1 11.951172 8.1015625 L 11.951172 5.4316406 A 0.232 0.232 0 0 1 12.183594 5.1992188 z M 0.76757812 10.423828 A 0.327 0.327 0 0 0 0.47265625 10.75 L 0.47265625 11.638672 L 0.11523438 11.638672 A 0.116 0.116 0 0 0 0 11.755859 L 0 12.126953 A 0.116 0.116 0 0 0 0.11523438 12.242188 L 0.46875 12.242188 L 0.46875 15.142578 L 0.11523438 15.142578 A 0.116 0.116 0 0 0 0 15.261719 L 0 15.632812 A 0.116 0.116 0 0 0 0.11523438 15.748047 L 0.46875 15.748047 L 0.46875 16.673828 A 0.328 0.328 0 0 0 0.80078125 17 L 18.818359 17 A 0.328 0.328 0 0 0 19.146484 16.673828 L 19.146484 15.748047 L 19.572266 15.748047 A 0.116 0.116 0 0 0 19.6875 15.632812 L 19.6875 15.261719 A 0.116 0.116 0 0 0 19.572266 15.144531 L 19.146484 15.144531 L 19.146484 12.244141 L 19.572266 12.242188 A 0.116 0.116 0 0 0 19.6875 12.126953 L 19.6875 11.755859 A 0.116 0.116 0 0 0 19.572266 11.638672 L 19.146484 11.638672 L 19.146484 10.75 A 0.327 0.327 0 0 0 18.818359 10.423828 L 0.80078125 10.423828 A 0.327 0.327 0 0 0 0.76757812 10.423828 z M 1.1230469 11.076172 L 18.490234 11.076172 L 18.490234 16.34375 L 1.1230469 16.34375 L 1.1230469 11.076172 z M 2.8964844 11.933594 L 2.8964844 15.636719 L 4.5625 15.636719 L 4.5625 14.914062 L 3.6191406 14.914062 L 3.6191406 11.933594 L 2.8964844 11.933594 z M 7.2382812 11.933594 L 7.2382812 15.611328 L 7.9609375 15.611328 L 7.9609375 11.933594 L 7.2382812 11.933594 z M 11.265625 11.933594 L 11.265625 11.935547 L 10.742188 11.935547 L 10.742188 12.626953 L 11.265625 12.626953 L 11.265625 15.611328 L 11.988281 15.611328 L 11.988281 12.626953 L 12.572266 12.626953 L 12.572266 11.935547 L 11.988281 11.935547 L 11.988281 11.933594 L 11.265625 11.933594 z M 15.193359 11.933594 L 15.193359 13.357422 L 15.115234 13.357422 L 15.115234 13.976562 L 15.193359 13.976562 L 15.193359 15.611328 L 15.263672 15.611328 L 15.916016 15.611328 L 16.595703 15.611328 L 16.595703 14.9375 L 15.916016 14.9375 L 15.916016 13.976562 L 16.574219 13.976562 L 16.574219 13.357422 L 15.916016 13.357422 L 15.916016 12.626953 L 16.638672 12.626953 L 16.638672 11.935547 L 15.916016 11.935547 L 15.916016 11.933594 L 15.193359 11.933594 z"/></svg>